{"glyphs":{"0":{"ha":739,"x_min":73,"x_max":665,"o":"m 377 819 q 279 767 321 819 q 215 628 237 715 q 193 434 193 541 q 214 240 193 328 q 275 99 235 151 q 363 46 315 46 q 464 101 422 46 q 526 244 506 156 q 545 441 545 332 q 524 633 545 547 q 465 769 503 719 q 377 819 426 819 m 369 869 q 529 809 460 869 q 631 651 597 749 q 665 433 665 553 q 630 215 665 313 q 528 56 596 117 q 369 -4 460 -4 q 211 56 279 -4 q 108 215 143 117 q 73 433 73 313 q 107 650 73 552 q 210 809 142 749 q 369 869 278 869 z "},"1":{"ha":739,"x_min":198,"x_max":541,"o":"m 335 157 l 335 705 q 328 745 335 734 q 307 757 321 757 q 212 730 284 757 q 198 753 198 741 q 201 761 198 760 q 308 810 248 782 q 401 855 368 839 q 437 871 435 871 l 439 871 q 453 849 449 871 q 442 718 442 800 l 442 157 q 449 57 442 79 q 484 41 452 47 q 536 35 516 35 q 540 16 540 30 q 536 -4 541 1 q 385 3 397 3 q 240 -4 379 3 q 236 16 235 1 q 240 35 236 30 q 292 41 260 35 q 327 57 324 47 q 335 157 335 83 z "},"2":{"ha":739,"x_min":92,"x_max":648,"o":"m 648 203 q 575 0 618 131 q 106 0 575 0 q 97 8 102 2 q 92 19 92 15 q 415 415 307 257 q 467 517 454 472 q 480 618 480 563 q 438 736 480 689 q 331 783 396 783 q 258 769 293 783 q 199 734 223 755 q 160 696 174 713 q 137 666 145 680 q 120 674 130 666 q 111 688 111 683 q 135 731 115 703 q 185 791 155 759 q 264 847 216 824 q 361 871 311 871 q 526 802 456 871 q 595 644 595 732 q 518 439 595 534 q 222 99 414 312 l 491 99 q 556 124 530 99 q 605 203 583 149 q 621 212 608 212 q 648 203 637 212 z "},"3":{"ha":739,"x_min":114,"x_max":624,"o":"m 382 871 q 440 859 410 871 q 497 826 470 847 q 542 771 524 805 q 560 697 560 736 q 548 636 560 666 q 514 583 535 606 q 474 543 494 559 q 434 514 454 526 q 496 494 465 510 q 557 451 528 477 q 605 384 587 425 q 624 296 624 343 q 594 171 624 229 q 515 74 564 113 q 405 15 467 36 q 279 -7 343 -7 q 141 24 203 -7 q 123 46 133 30 q 114 76 114 62 q 131 123 114 104 q 171 141 148 141 q 201 132 188 141 q 228 105 214 123 q 247 81 242 86 q 347 47 281 47 q 403 59 376 47 q 454 94 430 71 q 493 160 478 117 q 507 258 507 202 q 455 394 507 338 q 334 449 403 449 q 306 446 321 449 q 272 437 290 443 q 252 431 254 432 q 244 458 244 441 q 247 472 244 468 q 326 497 290 481 q 393 537 362 513 q 441 596 424 562 q 458 673 458 631 q 421 763 458 727 q 326 799 383 799 q 268 786 296 799 q 222 758 239 772 q 191 727 206 744 q 174 709 175 710 q 162 720 168 709 q 157 739 157 730 q 252 832 195 794 q 382 871 310 871 z "},"4":{"ha":739,"x_min":68,"x_max":670,"o":"m 551 873 q 566 866 560 873 q 571 849 571 859 l 571 313 l 651 313 q 664 296 657 313 q 670 258 670 278 q 665 236 670 244 l 571 236 l 571 -1 q 513 -8 566 -8 q 464 3 464 -8 l 464 236 l 81 236 q 68 262 68 243 l 510 840 q 531 862 518 850 q 551 873 543 873 m 464 711 l 160 313 l 464 313 l 464 711 z "},"5":{"ha":739,"x_min":114,"x_max":624,"o":"m 369 536 q 476 514 427 536 q 557 459 525 493 q 606 382 589 425 q 624 296 624 339 q 594 171 624 229 q 515 74 564 113 q 405 15 467 36 q 279 -7 343 -7 q 141 24 203 -7 q 123 46 133 30 q 114 76 114 62 q 131 123 114 104 q 171 141 148 141 q 201 132 188 141 q 228 105 214 123 q 247 81 242 86 q 347 47 281 47 q 403 59 376 47 q 454 93 430 70 q 493 159 478 117 q 507 258 507 201 q 500 311 507 284 q 476 365 493 338 q 435 413 459 392 q 373 447 410 434 q 290 460 336 460 q 230 453 267 460 q 176 439 192 447 q 169 446 172 439 q 165 458 165 452 q 244 861 239 833 l 445 861 q 500 864 469 861 q 551 871 532 868 l 570 873 q 575 870 572 872 q 581 866 579 867 q 584 863 583 865 q 586 859 586 861 q 573 814 586 848 q 545 762 561 781 q 388 754 469 754 l 274 754 q 259 676 269 727 q 241 585 249 625 q 225 510 233 544 q 296 528 252 521 q 369 536 340 536 z "},"6":{"ha":739,"x_min":99,"x_max":640,"o":"m 221 415 q 216 323 216 377 q 226 227 216 275 q 255 134 236 178 q 305 64 273 91 q 376 37 337 37 q 483 97 440 37 q 525 250 525 158 q 508 358 525 310 q 452 438 492 406 q 354 469 412 469 q 221 415 271 469 m 392 536 q 490 518 446 536 q 562 472 534 500 q 607 409 589 445 q 633 340 625 374 q 640 275 640 307 q 560 76 640 160 q 365 -8 479 -8 q 255 19 306 -8 q 170 90 203 46 q 118 189 137 134 q 99 298 99 243 q 132 495 99 403 q 229 658 165 588 q 400 794 298 734 q 593 878 503 854 q 605 863 601 878 q 609 838 609 848 q 232 475 299 739 q 311 519 266 503 q 392 536 355 536 z "},"7":{"ha":739,"x_min":84,"x_max":654,"o":"m 553 859 q 610 861 574 859 q 646 863 645 863 q 654 850 654 863 q 650 833 654 844 q 642 813 646 823 q 629 786 637 804 q 616 760 621 769 l 258 -3 q 244 -7 254 -7 q 206 1 227 -7 q 184 18 184 9 q 343 297 247 112 q 505 621 439 483 l 570 760 l 225 760 q 164 735 186 760 q 127 655 143 711 q 111 647 126 647 q 84 655 95 647 q 141 859 125 785 l 553 859 z "},"8":{"ha":739,"x_min":114,"x_max":625,"o":"m 369 37 q 476 77 436 37 q 515 187 515 118 q 498 252 515 219 q 460 308 481 285 q 410 353 439 330 q 368 385 381 376 q 342 400 354 393 q 334 403 336 403 q 328 401 330 403 q 247 321 272 366 q 221 213 221 277 q 266 85 221 134 q 369 37 311 37 m 369 825 q 286 781 320 825 q 252 675 252 736 q 265 611 252 640 q 301 559 277 581 q 343 525 326 536 q 387 497 361 513 q 393 494 391 495 q 401 491 399 491 q 410 494 406 491 q 502 659 502 555 q 465 773 502 722 q 369 825 427 825 m 377 872 q 535 818 471 872 q 600 673 600 764 q 586 603 600 635 q 546 544 572 570 q 499 502 519 517 q 448 467 478 486 q 448 458 439 465 q 572 356 519 418 q 625 227 625 294 q 548 57 625 127 q 366 -12 470 -12 q 184 49 254 -12 q 114 209 114 111 q 118 243 114 227 q 127 274 122 260 q 142 303 132 288 q 160 329 153 319 q 183 353 168 339 q 205 373 198 366 q 229 391 212 379 q 251 406 246 403 q 273 420 256 410 q 290 431 290 431 q 290 439 297 436 q 195 527 237 471 q 152 651 152 583 q 220 805 152 738 q 377 872 288 872 z "},"9":{"ha":739,"x_min":100,"x_max":640,"o":"m 518 454 q 524 547 524 492 q 513 643 524 594 q 485 735 503 692 q 434 806 466 779 q 363 833 402 833 q 258 772 300 833 q 216 620 216 711 q 232 511 216 559 q 288 432 248 463 q 385 400 327 400 q 518 454 469 400 m 130 31 q 507 395 440 131 q 429 350 473 366 q 347 334 384 334 q 249 352 293 334 q 178 397 205 370 q 133 460 151 425 q 107 529 115 496 q 100 594 100 562 q 180 793 100 709 q 374 878 260 878 q 485 850 433 878 q 569 779 536 823 q 621 681 602 735 q 640 571 640 627 q 607 374 640 467 q 510 212 574 281 q 339 76 441 136 q 146 -8 237 16 q 134 6 138 -8 q 130 31 130 21 z "}," ":{"ha":407,"x_min":0,"x_max":0,"o":""}," ":{"ha":407,"x_min":0,"x_max":0,"o":""},"!":{"ha":327,"x_min":88,"x_max":237,"o":"m 111 8 q 100 19 111 8 q 88 61 88 31 q 111 113 88 92 q 164 134 134 134 q 216 113 195 134 q 237 61 237 92 q 216 8 237 31 q 164 -15 195 -15 q 111 8 134 -15 m 121 901 q 130 913 121 901 q 170 925 140 925 q 214 901 199 925 q 229 846 229 876 q 182 233 229 701 q 160 216 174 217 q 142 231 147 221 q 102 846 102 699 q 121 901 102 876 z "},"\"":{"ha":380,"x_min":53,"x_max":321,"o":"m 286 948 q 321 930 307 948 q 315 810 321 901 q 302 667 309 720 q 275 642 294 651 q 263 650 267 642 q 216 853 216 812 q 236 917 216 885 q 286 948 256 948 m 123 948 q 159 930 144 948 q 152 810 159 901 q 140 667 146 720 q 113 642 132 651 q 100 650 104 642 q 53 853 53 812 q 73 917 53 885 q 123 948 94 948 z "},"#":{"ha":651,"x_min":68,"x_max":581,"o":"m 441 308 l 532 308 q 542 293 541 308 q 537 262 543 278 q 523 241 531 245 l 431 241 l 409 104 q 399 93 408 99 q 376 87 390 87 q 367 88 370 87 q 362 91 363 90 l 361 92 l 385 241 l 212 241 l 189 104 q 180 93 188 99 q 158 87 172 87 q 148 88 152 87 q 144 91 144 90 l 143 92 l 167 241 l 77 241 q 69 257 69 243 q 75 288 68 271 q 90 308 82 305 l 178 308 l 208 500 l 115 500 q 107 516 107 500 q 113 548 106 532 q 127 567 119 564 l 219 567 l 241 703 q 243 711 243 709 q 247 715 244 712 q 256 720 250 719 q 271 720 261 720 q 288 716 282 720 l 264 567 l 437 567 l 459 703 q 462 711 461 709 q 466 715 463 712 q 474 720 469 719 q 489 720 479 720 q 507 716 500 720 l 483 567 l 569 567 q 579 552 578 567 q 575 521 581 537 q 561 500 569 505 l 472 500 l 441 308 m 396 308 l 427 500 l 254 500 l 222 308 l 396 308 z "},"$":{"ha":675,"x_min":69,"x_max":608,"o":"m 396 926 q 444 917 444 926 l 434 858 q 485 845 450 854 q 545 830 520 836 q 554 775 551 806 q 559 727 558 745 q 561 678 560 709 q 562 646 562 648 q 537 640 553 640 q 518 647 525 640 q 488 727 513 684 q 424 796 463 770 l 372 482 q 376 479 373 481 q 381 476 380 477 q 415 455 391 469 q 453 432 439 441 q 490 407 467 423 q 527 378 513 391 q 558 347 541 366 q 585 311 575 328 q 601 271 594 293 q 608 225 608 249 q 568 100 608 156 q 467 16 529 45 q 335 -14 406 -14 q 290 -12 313 -14 l 281 -71 q 250 -67 267 -71 q 233 -58 233 -64 l 242 -5 q 100 24 229 -3 q 79 144 90 77 q 69 224 69 211 q 84 231 73 228 q 103 235 96 235 q 118 228 115 235 q 129 191 122 210 q 149 143 135 172 q 190 88 163 113 q 251 49 216 63 l 307 385 q 256 415 275 404 q 209 448 237 427 q 163 486 180 468 q 127 528 145 505 q 102 579 110 552 q 94 637 94 607 q 130 758 94 704 q 225 839 167 811 q 349 867 283 867 q 386 865 363 867 l 396 926 m 352 359 l 298 35 q 338 33 315 33 q 448 75 402 33 q 494 190 494 117 q 491 220 494 205 q 485 245 488 234 q 473 268 482 256 q 460 286 465 279 q 442 303 456 293 q 423 318 429 314 q 400 333 418 322 q 377 346 382 343 q 352 359 372 349 m 327 509 l 378 817 q 340 822 361 822 q 271 809 300 822 q 226 773 241 795 q 204 727 211 751 q 198 678 198 704 q 208 624 198 648 q 238 578 218 599 q 277 543 258 557 q 327 509 296 528 z "},"%":{"ha":905,"x_min":54,"x_max":848,"o":"m 252 842 q 188 816 214 842 q 152 752 162 789 q 141 673 141 715 q 179 537 141 600 q 266 475 216 475 q 315 490 294 475 q 347 531 336 505 q 362 585 357 557 q 368 646 368 614 q 354 737 368 692 q 313 812 340 781 q 252 842 286 842 m 258 875 q 401 811 345 875 q 457 656 457 747 q 434 553 457 602 q 363 472 410 504 q 258 441 317 441 q 114 504 173 441 q 54 656 54 567 q 112 812 54 749 q 258 875 169 875 m 644 392 q 580 366 606 392 q 543 302 553 339 q 532 222 532 265 q 570 87 532 150 q 658 24 608 24 q 706 40 686 24 q 738 81 727 55 q 753 135 749 106 q 758 195 758 163 q 745 287 758 242 q 705 361 732 331 q 644 392 678 392 m 650 425 q 792 361 736 425 q 848 206 848 297 q 793 55 848 120 q 648 -9 738 -9 q 504 54 564 -9 q 445 206 445 117 q 503 361 445 298 q 650 425 560 425 m 811 846 l 156 0 q 137 -11 152 -5 q 111 -16 123 -16 q 87 -1 94 -16 l 741 846 q 768 863 754 863 q 789 862 782 863 q 799 860 797 861 q 805 854 802 859 q 811 846 808 849 z "},"&":{"ha":926,"x_min":72,"x_max":890,"o":"m 551 129 q 456 243 511 169 q 364 372 400 317 l 328 426 q 284 395 298 406 q 248 365 271 385 q 216 328 226 345 q 197 287 205 311 q 189 233 189 262 q 244 99 189 144 q 381 54 300 54 q 471 75 423 54 q 551 129 519 95 m 425 841 q 349 812 380 841 q 317 736 317 783 q 388 522 317 650 q 461 572 435 549 q 505 632 488 595 q 522 719 522 669 q 495 804 522 768 q 425 841 468 841 m 418 890 q 562 850 509 890 q 614 738 614 810 q 598 656 614 694 q 551 586 583 618 q 489 530 519 553 q 412 479 458 507 q 613 209 492 345 q 669 308 647 260 q 690 368 690 355 q 678 385 690 380 q 648 391 666 390 q 629 392 630 392 q 626 409 626 398 q 631 423 627 419 l 738 423 q 781 424 759 423 q 834 427 804 425 q 887 430 864 429 q 889 410 890 428 q 886 392 889 392 q 836 384 868 392 q 792 369 803 376 q 772 338 790 368 q 721 259 755 309 q 651 167 687 209 q 694 122 682 134 q 727 91 707 109 q 760 67 747 73 q 784 61 772 61 q 825 84 803 61 q 854 123 848 106 q 876 115 865 123 q 886 99 886 106 q 878 83 882 91 q 861 59 874 76 q 833 31 848 43 q 793 9 819 19 q 738 0 767 0 q 691 10 715 0 q 648 35 667 20 q 614 63 629 49 q 590 87 598 77 l 582 98 q 465 24 530 52 q 335 -4 399 -4 q 143 54 215 -4 q 72 214 72 113 q 90 301 72 261 q 143 372 108 340 q 213 427 178 404 q 297 475 248 450 q 258 544 272 518 q 232 615 245 570 q 218 704 218 661 q 276 836 218 782 q 418 890 333 890 z "},"'":{"ha":217,"x_min":53,"x_max":159,"o":"m 123 948 q 159 930 144 948 q 152 810 159 901 q 140 667 146 720 q 113 642 132 651 q 100 650 104 642 q 53 853 53 812 q 73 917 53 885 q 123 948 94 948 z "},"(":{"ha":637,"x_min":203,"x_max":576,"o":"m 306 231 q 393 -241 306 -18 q 576 -513 461 -413 q 556 -536 576 -513 q 253 -94 341 -367 q 203 231 203 59 q 408 849 203 596 q 556 996 475 931 l 576 966 q 356 592 430 850 q 306 231 306 416 z "},")":{"ha":637,"x_min":61,"x_max":433,"o":"m 331 231 q 281 592 331 416 q 61 966 207 850 l 81 996 q 229 849 162 931 q 433 231 433 596 q 384 -94 433 59 q 81 -536 296 -367 l 61 -513 q 243 -241 176 -413 q 331 231 331 -18 z "},"*":{"ha":601,"x_min":44,"x_max":545,"o":"m 409 831 q 448 857 427 852 q 485 848 469 862 q 499 810 501 831 q 477 772 496 789 q 408 726 452 749 q 345 685 363 703 q 343 681 345 684 q 340 674 342 679 q 338 666 338 669 q 352 652 340 657 q 420 634 374 642 q 497 612 466 626 q 533 582 522 601 q 536 545 545 564 q 505 521 526 525 q 462 529 484 517 q 396 580 432 545 q 338 627 360 615 q 335 628 337 627 q 327 631 333 629 q 319 631 321 633 q 315 627 317 629 q 313 623 313 625 q 312 618 313 621 q 311 613 311 614 q 314 543 309 589 q 317 463 320 496 q 299 419 313 436 q 265 406 286 403 q 232 427 243 408 q 227 471 222 445 q 256 550 233 504 q 283 620 278 595 q 279 637 284 632 q 261 642 274 644 q 196 616 238 637 q 119 589 153 596 q 72 591 93 583 q 48 620 51 600 q 59 657 44 642 q 100 677 74 673 q 183 674 134 681 q 257 670 232 667 q 272 681 269 674 q 269 700 275 690 q 225 755 257 721 q 176 819 193 789 q 164 863 163 841 q 184 895 166 886 q 223 897 204 905 q 253 864 241 888 q 276 784 267 833 q 295 712 284 735 q 309 697 302 699 q 326 705 317 696 q 365 765 343 724 q 409 831 387 806 z "},"+":{"ha":735,"x_min":42,"x_max":693,"o":"m 328 643 q 387 658 368 658 q 397 656 393 658 q 403 652 401 654 l 404 650 l 404 372 l 681 372 q 689 367 686 372 q 693 355 693 363 q 687 322 693 339 q 671 296 680 304 l 404 296 l 404 22 q 346 7 385 7 q 334 11 339 7 q 328 19 328 15 l 328 296 l 50 296 q 42 309 42 296 q 48 341 42 318 q 62 372 54 365 l 328 372 l 328 643 z "},",":{"ha":273,"x_min":23,"x_max":203,"o":"m 144 167 q 179 157 163 167 q 203 62 203 115 q 150 -77 203 5 q 43 -189 96 -159 q 30 -178 37 -189 q 23 -160 23 -167 q 49 -139 39 -149 q 75 -111 59 -130 q 100 -66 92 -92 q 109 -9 109 -40 q 86 43 109 12 q 64 100 64 73 q 86 145 64 124 q 144 167 109 167 z "},"-":{"ha":511,"x_min":79,"x_max":433,"o":"m 96 354 q 423 370 378 369 q 433 358 433 370 q 415 285 433 322 q 88 270 387 283 q 79 285 79 270 q 96 354 79 316 z "},".":{"ha":281,"x_min":65,"x_max":214,"o":"m 88 8 q 76 19 88 8 q 65 61 65 31 q 88 113 65 92 q 141 134 111 134 q 193 113 172 134 q 214 61 214 92 q 193 8 214 31 q 141 -15 172 -15 q 88 8 111 -15 z "},"/":{"ha":479,"x_min":21,"x_max":437,"o":"m 419 975 q 437 963 433 975 l 98 -227 q 80 -248 96 -236 q 45 -258 66 -259 q 31 -256 37 -258 q 23 -251 24 -254 l 21 -249 l 365 955 q 372 962 366 958 q 391 971 378 966 q 419 975 404 975 z "},":":{"ha":307,"x_min":79,"x_max":228,"o":"m 101 8 q 90 19 101 8 q 79 61 79 31 q 101 113 79 92 q 155 134 124 134 q 207 113 185 134 q 228 61 228 92 q 207 8 228 31 q 155 -15 185 -15 q 101 8 124 -15 m 101 458 q 90 469 101 458 q 79 511 79 481 q 101 563 79 542 q 155 585 124 585 q 207 563 185 585 q 228 511 228 542 q 207 458 228 481 q 155 435 185 435 q 101 458 124 435 z "},";":{"ha":315,"x_min":52,"x_max":232,"o":"m 172 167 q 208 157 191 167 q 232 62 232 115 q 178 -77 232 5 q 72 -189 125 -159 q 58 -178 65 -189 q 52 -160 52 -167 q 77 -139 67 -149 q 104 -111 87 -130 q 129 -66 120 -92 q 137 -9 137 -40 q 115 43 137 12 q 92 100 92 73 q 115 145 92 124 q 172 167 138 167 m 105 458 q 94 469 105 458 q 83 511 83 481 q 105 563 83 542 q 159 585 128 585 q 211 563 189 585 q 232 511 232 542 q 211 458 232 481 q 159 435 189 435 q 105 458 128 435 z "},"<":{"ha":667,"x_min":41,"x_max":602,"o":"m 602 47 q 594 9 602 38 q 581 -20 586 -20 q 574 -18 579 -20 l 65 240 q 41 294 41 253 q 65 327 41 315 l 566 581 q 572 583 571 583 q 595 519 583 583 q 595 513 596 516 q 593 509 594 510 l 591 507 l 149 283 l 598 56 q 602 47 602 54 z "},"=":{"ha":766,"x_min":92,"x_max":675,"o":"m 649 163 q 98 163 649 163 q 93 181 92 165 q 102 215 94 196 q 120 237 111 234 l 667 237 q 674 220 675 235 q 666 186 674 205 q 649 163 658 168 m 649 358 l 98 358 q 93 376 92 361 q 102 410 94 391 q 120 433 111 429 l 667 433 q 674 415 675 430 q 666 382 674 401 q 649 358 658 363 z "},">":{"ha":669,"x_min":65,"x_max":627,"o":"m 65 47 q 66 52 65 50 q 68 55 66 54 l 69 56 l 518 283 l 77 507 q 73 518 73 509 q 82 559 73 535 q 95 583 90 583 q 102 581 96 583 l 604 327 q 627 294 627 315 q 604 240 627 252 l 95 -18 q 88 -20 90 -20 q 74 8 83 -20 q 65 47 65 37 z "},"?":{"ha":483,"x_min":76,"x_max":420,"o":"m 108 8 q 97 19 108 8 q 85 61 85 31 q 108 113 85 92 q 161 134 131 134 q 213 113 192 134 q 235 61 235 92 q 213 8 235 31 q 161 -15 192 -15 q 108 8 131 -15 m 136 743 q 97 762 117 743 q 76 811 76 781 q 88 861 76 844 q 153 871 107 871 q 216 860 181 871 q 286 828 250 850 q 352 777 322 806 q 401 707 382 748 q 420 620 420 665 q 390 503 420 550 q 283 412 359 456 q 219 367 255 395 q 178 328 184 339 q 172 308 174 321 q 169 285 170 294 q 169 257 169 276 q 170 233 170 238 q 148 216 161 217 q 130 231 135 221 q 119 354 119 276 q 126 405 119 381 q 142 443 134 428 q 168 473 151 458 q 195 496 184 489 q 225 516 205 504 q 235 522 232 520 q 274 547 262 540 q 304 570 285 555 q 331 596 323 585 q 346 625 339 608 q 353 661 353 642 q 323 742 353 711 q 252 772 293 772 q 180 758 212 772 q 136 743 149 743 z "},"@":{"ha":1015,"x_min":66,"x_max":966,"o":"m 567 784 q 710 761 644 784 q 822 698 776 738 q 902 605 869 658 q 950 491 935 551 q 966 366 966 431 q 929 178 966 264 q 829 41 893 92 q 686 -9 764 -9 q 604 19 634 -9 q 574 107 574 47 q 583 170 574 144 q 553 120 572 148 q 508 63 534 93 q 451 13 482 33 q 392 -7 420 -7 q 297 47 332 -7 q 263 176 263 100 q 298 324 263 249 q 387 458 333 399 q 512 553 441 516 q 651 590 583 590 q 750 572 702 590 l 667 144 q 663 110 663 127 q 681 64 663 79 q 728 49 699 49 q 793 74 760 49 q 852 141 826 100 q 895 242 878 183 q 911 362 911 300 q 899 471 911 418 q 858 571 886 524 q 790 653 830 618 q 693 709 751 688 q 567 730 635 730 q 414 701 486 730 q 290 622 342 671 q 198 508 237 572 q 140 373 159 444 q 121 231 121 302 q 172 28 121 117 q 301 -106 223 -60 q 403 -144 353 -136 q 385 -160 403 -151 q 354 -168 367 -168 q 301 -160 322 -168 q 135 -16 203 -124 q 66 231 66 92 q 88 390 66 311 q 152 540 109 469 q 254 666 195 611 q 394 752 313 720 q 567 784 475 784 m 594 528 q 514 499 556 528 q 439 425 473 470 q 385 321 406 380 q 363 205 363 262 q 433 72 363 72 q 506 120 465 72 q 578 237 546 168 q 623 372 610 307 l 650 510 q 594 528 634 528 z "},"A":{"ha":850,"x_min":-19,"x_max":857,"o":"m 129 189 q 391 860 308 649 q 415 885 396 870 q 442 899 433 899 q 447 898 444 899 q 450 895 449 896 l 726 171 q 761 81 760 83 q 803 48 770 60 q 853 35 837 35 q 857 15 857 29 q 856 -4 857 1 q 707 3 720 3 q 655 2 679 3 q 601 -1 631 1 q 549 -4 571 -3 q 545 16 545 1 q 551 35 545 30 q 592 40 566 35 q 627 53 618 45 q 632 72 632 58 q 609 156 632 90 q 563 279 586 222 l 540 336 q 532 342 536 342 q 397 343 514 343 q 251 339 312 343 l 244 335 q 183 170 206 235 q 164 73 164 114 q 177 54 164 62 q 207 42 189 45 q 238 37 225 38 q 258 35 251 35 q 261 17 260 33 q 260 -4 262 2 q 218 -1 241 -3 q 175 2 195 1 q 129 3 155 3 q 80 2 101 3 q 33 -1 58 1 q -16 -4 7 -3 q -19 14 -19 -1 q -16 35 -19 28 q 28 42 1 35 q 65 61 56 50 q 129 189 94 98 m 395 735 l 270 404 q 273 399 270 399 q 396 396 343 396 q 510 400 447 396 q 513 401 511 400 q 514 406 514 404 l 514 407 l 395 735 z "},"B":{"ha":808,"x_min":57,"x_max":749,"o":"m 280 450 l 280 156 q 283 103 279 136 q 292 64 286 70 q 331 44 307 49 q 399 39 356 39 q 615 239 615 39 q 363 450 615 450 l 280 450 m 280 502 l 393 502 q 521 549 478 502 q 564 661 564 595 q 507 800 564 750 q 355 850 450 850 q 287 837 293 850 q 280 735 279 817 l 280 502 m 414 894 q 490 888 454 894 q 564 867 527 882 q 627 830 600 852 q 670 772 654 808 q 687 692 687 736 q 641 567 687 622 q 550 495 595 512 q 550 488 544 492 q 610 471 576 487 q 674 429 643 456 q 728 360 706 402 q 749 270 749 317 q 658 69 749 146 q 374 -4 573 -1 l 62 -4 q 57 16 57 1 q 62 35 58 30 q 117 41 82 35 q 155 57 153 47 q 162 157 162 79 l 162 736 q 155 837 162 815 q 117 852 153 846 q 62 859 82 859 q 57 878 58 864 q 62 898 57 892 q 222 891 201 891 q 308 892 245 891 q 414 894 371 894 z "},"C":{"ha":914,"x_min":65,"x_max":857,"o":"m 524 905 q 811 876 680 905 q 842 675 842 689 q 833 664 843 669 q 812 658 823 658 q 796 662 802 658 q 530 860 758 860 q 357 800 434 860 q 239 651 279 741 q 199 465 199 562 q 213 339 199 401 q 256 223 227 278 q 326 127 285 168 q 425 61 367 85 q 552 37 484 37 q 731 102 657 37 q 814 259 792 157 q 857 248 838 261 q 840 143 857 222 q 810 53 823 64 q 518 -8 701 -8 q 334 28 420 -8 q 191 124 249 64 q 99 266 132 184 q 65 437 65 347 q 100 617 65 531 q 194 766 134 703 q 340 867 254 829 q 524 905 426 905 z "},"D":{"ha":963,"x_min":57,"x_max":895,"o":"m 281 734 l 281 156 q 290 58 281 68 q 401 39 303 39 q 538 63 475 39 q 652 132 602 86 q 731 253 703 178 q 760 425 760 328 q 740 586 760 514 q 684 707 719 659 q 600 787 648 755 q 496 834 551 820 q 382 849 442 849 q 288 834 293 849 q 281 734 280 808 m 418 892 q 618 859 528 892 q 768 767 708 825 q 862 627 829 708 q 895 453 895 547 q 880 317 895 380 q 830 193 866 253 q 740 90 795 133 q 599 22 686 47 q 401 -4 512 -4 l 62 -4 q 57 16 57 1 q 62 35 58 30 q 117 41 82 35 q 155 57 153 47 q 162 157 162 79 l 162 736 q 155 837 162 815 q 117 852 153 846 q 62 859 82 859 q 57 878 58 864 q 62 898 57 892 q 222 891 201 891 q 318 892 248 891 q 418 892 388 892 z "},"E":{"ha":796,"x_min":57,"x_max":759,"o":"m 222 891 q 432 896 283 891 q 659 901 582 901 q 679 797 664 861 q 698 716 694 732 q 673 709 691 709 q 654 719 656 709 q 596 820 633 794 q 497 846 558 846 l 380 846 q 287 831 292 846 q 280 735 279 806 l 280 481 q 296 475 279 477 q 338 473 312 473 l 410 473 q 463 474 444 473 q 499 478 482 475 q 523 487 515 481 q 537 502 530 492 q 548 526 544 512 q 557 559 551 539 q 559 571 558 567 q 580 581 562 581 q 603 574 596 581 l 603 317 q 581 312 597 312 q 559 323 564 312 q 538 391 545 376 q 522 412 532 406 q 378 423 505 423 q 357 423 364 423 q 336 423 349 423 q 314 422 322 422 q 297 420 306 421 q 284 416 288 418 q 280 411 280 414 l 280 153 q 281 97 279 130 q 288 60 283 64 q 318 48 300 50 q 385 46 336 46 l 450 46 q 546 56 498 46 q 621 83 593 66 q 667 132 650 100 q 706 220 685 163 q 725 228 708 228 q 759 220 751 228 q 739 163 753 202 q 716 101 724 125 q 698 46 707 77 q 686 -5 689 16 q 467 -3 616 -5 q 223 0 317 0 q 138 -2 190 0 q 62 -4 87 -4 q 57 16 57 1 q 62 35 58 30 q 117 41 82 35 q 155 57 153 47 q 162 157 162 79 l 162 736 q 155 837 162 815 q 117 852 153 846 q 62 859 82 859 q 57 878 58 864 q 62 898 57 892 q 222 891 201 891 z "},"F":{"ha":726,"x_min":57,"x_max":698,"o":"m 222 891 q 432 896 283 891 q 659 901 582 901 q 679 797 664 861 q 698 716 694 732 q 673 709 691 709 q 654 719 656 709 q 596 820 633 794 q 497 846 558 846 l 380 846 q 287 831 292 846 q 280 735 280 810 l 280 481 q 296 475 279 477 q 338 473 312 473 l 410 473 q 463 474 444 473 q 499 478 482 475 q 523 487 515 481 q 537 502 530 492 q 548 526 544 512 q 557 559 551 539 q 559 571 558 567 q 580 581 562 581 q 603 574 596 581 l 603 317 q 581 312 597 312 q 559 323 564 312 q 538 391 545 376 q 522 412 532 406 q 378 423 505 423 q 280 411 280 423 l 280 157 q 287 57 280 79 q 331 41 290 47 q 394 35 372 35 q 398 16 398 30 q 394 -4 399 1 q 222 3 255 3 q 138 -1 189 3 q 62 -4 87 -4 q 57 16 57 1 q 62 35 58 30 q 117 41 82 35 q 155 57 153 47 q 162 157 162 79 l 162 736 q 155 837 162 815 q 117 852 153 846 q 62 859 82 859 q 57 878 58 864 q 62 898 57 892 q 222 891 201 891 z "},"G":{"ha":977,"x_min":65,"x_max":942,"o":"m 726 237 q 719 338 726 316 q 682 353 716 347 q 627 359 647 359 q 622 379 623 365 q 627 399 622 393 q 785 392 766 392 q 937 399 798 392 q 942 379 942 393 q 937 359 941 365 q 885 353 918 359 q 849 338 852 347 q 842 237 842 316 l 842 141 q 849 108 842 125 q 856 87 856 92 q 851 76 856 81 q 829 62 846 71 q 761 29 788 41 q 667 4 733 17 q 518 -8 601 -8 q 334 28 420 -8 q 191 124 249 64 q 99 266 132 184 q 65 437 65 347 q 100 617 65 531 q 194 766 134 703 q 340 867 254 829 q 524 905 426 905 q 811 876 680 905 q 842 675 842 689 q 833 664 843 669 q 812 658 823 658 q 796 662 802 658 q 530 860 758 860 q 357 800 434 860 q 239 651 279 741 q 199 465 199 562 q 213 339 199 401 q 255 223 227 278 q 325 127 284 168 q 425 61 366 85 q 552 37 483 37 q 716 80 629 37 q 726 100 726 85 l 726 237 z "},"H":{"ha":985,"x_min":57,"x_max":929,"o":"m 222 891 q 380 898 241 891 q 385 876 385 892 q 380 854 385 860 q 325 848 360 854 q 287 833 290 842 q 280 732 280 811 l 280 495 l 283 491 q 496 487 482 487 q 703 491 520 487 q 706 496 706 494 l 706 732 q 699 833 706 811 q 661 848 696 842 q 606 854 626 854 q 601 876 602 860 q 606 898 601 892 q 766 891 745 891 q 924 898 785 891 q 929 876 929 892 q 924 854 928 860 q 869 848 904 854 q 831 833 833 842 q 824 732 824 811 l 824 161 q 831 61 824 83 q 869 45 833 52 q 924 39 904 39 q 929 18 928 34 q 924 -4 929 1 q 766 3 785 3 q 606 -4 745 3 q 601 18 601 1 q 606 39 602 34 q 661 45 626 39 q 699 61 696 52 q 706 161 706 83 l 706 430 l 703 435 q 611 438 687 436 q 496 441 536 441 q 281 433 298 441 l 280 430 l 280 161 q 287 61 280 83 q 325 45 290 52 q 380 39 360 39 q 385 18 385 34 q 380 -4 385 1 q 222 3 241 3 q 62 -4 201 3 q 57 18 57 1 q 62 39 58 34 q 117 45 82 39 q 155 61 153 52 q 162 161 162 83 l 162 732 q 155 833 162 811 q 117 848 153 842 q 62 854 82 854 q 57 876 58 860 q 62 898 57 892 q 222 891 201 891 z "},"I":{"ha":439,"x_min":57,"x_max":385,"o":"m 222 891 q 380 898 241 891 q 385 878 385 892 q 380 859 385 864 q 325 852 360 859 q 287 837 290 846 q 280 736 280 815 l 280 157 q 287 57 280 79 q 325 41 290 47 q 380 35 360 35 q 385 16 385 30 q 380 -4 385 1 q 222 3 241 3 q 62 -4 201 3 q 57 16 57 1 q 62 35 58 30 q 117 41 82 35 q 155 57 153 47 q 162 157 162 79 l 162 736 q 155 837 162 815 q 117 852 153 846 q 62 859 82 859 q 57 878 58 864 q 62 898 57 892 q 222 891 201 891 z "},"J":{"ha":425,"x_min":-141,"x_max":378,"o":"m 214 891 q 373 898 234 891 q 377 878 378 892 q 373 859 377 864 q 317 852 353 859 q 279 837 282 846 q 273 736 273 815 l 273 164 q 249 -52 273 40 q 182 -200 226 -144 q 82 -281 139 -255 q -45 -308 26 -308 q -90 -300 -61 -308 q -130 -283 -119 -292 q -141 -252 -141 -273 q -124 -198 -141 -219 q -76 -176 -107 -176 q -66 -177 -71 -176 q -56 -181 -61 -178 q -46 -186 -50 -184 q -37 -193 -43 -189 q -28 -200 -31 -198 q -19 -208 -26 -202 q -11 -216 -12 -214 q 50 -244 20 -244 q 91 -227 73 -244 q 123 -167 109 -210 q 146 -43 138 -125 q 155 157 155 39 l 155 736 q 148 837 155 815 q 110 852 145 846 q 54 859 75 859 q 50 878 50 864 q 54 898 50 892 q 214 891 193 891 z "},"K":{"ha":891,"x_min":57,"x_max":900,"o":"m 222 891 q 380 898 241 891 q 385 876 385 892 q 380 854 385 860 q 325 848 360 854 q 287 833 290 842 q 280 732 279 807 l 280 463 q 433 600 315 484 q 543 711 512 677 q 606 784 574 744 q 625 826 625 809 q 623 836 625 831 q 616 843 621 840 q 608 849 612 846 q 597 852 603 851 q 586 854 591 854 q 574 856 581 855 q 563 856 567 856 q 554 856 559 856 q 549 856 549 856 q 545 875 545 862 q 549 898 545 888 q 597 895 564 897 q 656 891 630 892 q 705 890 682 890 q 789 893 740 890 q 851 898 839 897 q 853 874 854 892 q 848 856 853 856 l 838 855 q 818 853 827 854 q 794 849 809 852 q 767 841 779 846 q 740 827 754 836 q 714 806 725 818 q 630 717 673 761 q 560 647 587 673 q 480 570 533 621 q 400 494 428 520 q 400 483 397 488 q 438 438 409 473 q 477 393 467 404 q 512 352 486 382 q 549 310 538 322 q 583 271 560 297 q 619 231 606 245 q 651 196 631 218 q 685 160 671 175 q 716 129 699 146 q 748 98 732 113 q 811 55 777 71 q 896 35 844 39 q 898 14 900 28 q 895 -4 897 0 q 702 11 745 -4 q 610 69 649 30 q 304 412 572 106 q 292 416 302 416 q 280 414 286 416 l 280 161 q 287 61 280 83 q 325 45 290 52 q 380 39 360 39 q 385 18 385 34 q 380 -4 385 1 q 222 3 241 3 q 62 -4 201 3 q 57 18 57 1 q 62 39 58 34 q 117 45 82 39 q 155 61 153 52 q 162 161 162 83 l 162 732 q 155 833 162 811 q 117 848 153 842 q 62 854 82 854 q 57 876 58 860 q 62 898 57 892 q 222 891 201 891 z "},"L":{"ha":765,"x_min":57,"x_max":759,"o":"m 280 157 q 288 60 280 66 q 318 48 300 50 q 385 46 336 46 l 462 46 q 549 55 505 46 q 621 83 594 64 q 706 220 676 121 q 725 228 708 228 q 759 220 751 228 q 739 163 753 202 q 716 101 724 125 q 698 46 707 77 q 686 -5 689 16 q 467 -3 616 -5 q 223 0 317 0 q 138 -2 190 0 q 62 -4 87 -4 q 57 16 57 1 q 62 35 58 30 q 117 41 82 35 q 155 57 153 47 q 162 157 162 79 l 162 736 q 155 837 162 815 q 117 852 153 846 q 62 859 82 859 q 57 878 58 864 q 62 898 57 892 q 222 891 201 891 q 380 898 241 891 q 385 878 385 892 q 380 859 385 864 q 325 852 360 859 q 287 837 290 846 q 280 736 279 811 l 280 157 z "},"M":{"ha":1230,"x_min":33,"x_max":1187,"o":"m 220 891 q 330 898 256 891 q 392 742 342 861 q 511 458 441 623 q 618 198 580 294 q 623 195 619 195 q 630 201 628 195 q 838 735 828 711 l 897 898 q 1004 892 984 892 q 1156 898 1088 892 l 1160 859 q 1105 851 1141 859 q 1064 834 1069 843 q 1057 783 1057 819 q 1061 636 1059 741 q 1066 391 1063 532 q 1071 190 1069 250 q 1087 58 1074 95 q 1126 41 1091 46 q 1182 35 1161 35 q 1187 14 1187 27 q 1185 -4 1187 1 q 1023 3 1049 3 q 970 2 996 3 q 913 -1 945 1 q 861 -4 882 -3 q 858 13 858 -1 q 861 35 857 26 q 907 40 877 35 q 949 50 938 44 q 961 107 961 57 q 960 146 961 117 q 958 186 958 176 q 941 766 947 604 q 938 784 941 774 q 928 793 935 793 q 922 784 926 793 q 635 66 890 707 q 611 25 629 52 q 584 -3 593 -1 q 572 0 582 -3 l 241 792 q 234 492 238 662 q 226 213 229 322 q 223 102 223 104 q 229 60 223 74 q 273 41 234 47 q 336 35 313 35 q 340 16 340 30 q 338 -4 340 1 q 293 -1 320 -3 q 243 2 266 1 q 195 3 221 3 q 143 2 167 3 q 88 -1 119 1 q 36 -4 58 -3 q 33 13 33 -1 q 36 35 33 26 q 98 42 58 35 q 146 60 138 48 q 162 127 160 80 q 181 776 181 634 q 176 830 181 815 q 135 850 172 841 q 81 859 98 859 q 79 877 79 859 q 81 898 79 896 q 129 895 104 897 q 173 892 153 893 q 220 891 193 891 z "},"N":{"ha":1053,"x_min":45,"x_max":1021,"o":"m 194 895 q 297 898 259 895 q 541 589 331 845 q 829 225 751 333 l 829 304 l 829 739 q 827 800 829 781 q 815 833 825 818 q 771 851 810 842 q 712 860 732 860 q 707 880 707 867 q 709 899 707 894 q 865 892 845 892 q 915 893 893 892 q 962 897 936 895 q 1010 899 987 899 q 1010 860 1021 882 q 951 852 991 860 q 905 833 911 844 q 893 800 896 819 q 891 741 891 782 l 891 189 q 894 1 891 72 q 876 -7 892 -7 q 855 1 869 -7 q 829 24 841 8 l 237 772 l 237 156 q 239 96 237 114 q 251 62 241 77 q 295 44 256 53 q 353 35 333 35 q 358 15 357 28 q 355 -4 358 1 q 201 3 220 3 q 152 2 173 3 q 104 -1 130 1 q 56 -4 79 -3 q 56 35 45 13 q 115 43 75 35 q 161 62 155 52 q 173 95 170 77 q 175 155 175 113 l 175 743 q 173 803 175 785 q 161 836 170 821 q 115 854 155 846 q 56 863 75 863 q 56 902 45 885 q 123 898 77 901 q 194 895 168 895 z "},"O":{"ha":1015,"x_min":66,"x_max":948,"o":"m 486 859 q 378 836 427 859 q 297 776 330 813 q 243 688 265 739 q 211 585 220 638 q 201 475 201 531 q 223 317 201 395 q 285 175 245 239 q 388 72 325 111 q 528 33 452 33 q 635 55 587 33 q 716 116 684 78 q 771 204 749 153 q 804 309 794 254 q 814 419 814 363 q 791 577 814 499 q 729 718 769 654 q 625 820 688 781 q 486 859 562 859 m 506 905 q 675 870 595 905 q 817 777 756 836 q 912 630 877 717 q 948 445 948 544 q 912 267 948 352 q 817 120 877 182 q 675 23 757 59 q 506 -14 594 -14 q 337 21 417 -14 q 197 115 256 55 q 102 260 137 174 q 66 445 66 347 q 102 624 66 538 q 196 770 137 709 q 337 868 256 831 q 506 905 418 905 z "},"P":{"ha":743,"x_min":56,"x_max":703,"o":"m 703 650 q 620 452 703 526 q 404 377 538 377 q 346 388 368 377 q 327 418 327 401 q 328 421 327 419 q 330 424 328 422 q 334 425 331 425 q 385 415 368 415 q 524 471 469 415 q 578 627 578 528 q 521 790 578 730 q 354 850 464 850 q 286 837 292 850 q 279 735 279 821 l 279 157 q 286 57 279 79 q 324 41 289 47 q 380 35 359 35 q 384 16 384 30 q 380 -4 385 1 q 221 3 241 3 q 61 -4 200 3 q 57 16 56 1 q 61 35 57 30 q 117 41 81 35 q 155 57 152 47 q 161 157 161 79 l 161 736 q 155 837 161 815 q 117 852 152 846 q 61 859 81 859 q 57 878 57 864 q 61 898 56 892 q 221 891 200 891 q 307 892 244 891 q 414 894 370 894 q 552 866 488 894 q 660 782 617 839 q 703 650 703 725 z "},"Q":{"ha":1013,"x_min":66,"x_max":1051,"o":"m 486 859 q 378 836 427 859 q 297 776 330 813 q 243 688 265 739 q 211 585 220 638 q 201 475 201 531 q 223 317 201 395 q 285 175 245 239 q 388 72 325 111 q 528 33 452 33 q 635 55 587 33 q 716 116 684 78 q 771 204 749 153 q 804 309 794 254 q 814 419 814 363 q 791 577 814 499 q 729 718 769 654 q 625 820 688 781 q 486 859 562 859 m 506 905 q 675 870 595 905 q 817 777 756 836 q 912 630 877 717 q 948 445 948 544 q 859 170 948 292 q 632 5 770 49 q 712 -38 669 -12 q 779 -77 755 -64 q 841 -100 802 -90 q 929 -110 880 -110 q 1025 -102 997 -110 q 1050 -111 1044 -102 q 1051 -115 1051 -114 q 935 -167 986 -150 q 826 -184 883 -184 q 744 -170 785 -184 q 663 -132 702 -155 q 584 -85 623 -109 q 495 -36 545 -60 q 397 0 446 -12 q 159 158 252 37 q 66 445 66 279 q 102 624 66 538 q 196 770 137 709 q 337 868 256 831 q 506 905 418 905 z "},"R":{"ha":842,"x_min":56,"x_max":881,"o":"m 414 894 q 509 879 461 894 q 598 835 557 863 q 664 761 639 806 q 690 659 690 715 q 633 525 690 589 q 505 435 576 460 q 724 117 592 290 q 788 58 754 77 q 877 35 823 39 q 879 14 881 28 q 876 -4 878 0 q 696 12 743 -4 q 630 49 653 28 q 608 72 618 59 q 521 199 591 96 q 393 393 452 302 q 352 410 382 410 l 280 410 l 280 157 q 287 57 280 79 q 325 41 290 47 q 380 35 360 35 q 385 16 385 30 q 380 -4 385 1 q 222 3 241 3 q 62 -4 201 3 q 57 16 57 1 q 62 35 58 30 q 117 41 82 35 q 155 57 153 47 q 162 157 161 74 l 161 736 q 155 837 161 815 q 117 852 152 846 q 61 859 81 859 q 57 878 57 864 q 61 898 56 892 q 221 891 200 891 q 307 892 244 891 q 414 894 370 894 m 563 647 q 512 796 563 741 q 354 850 462 850 q 286 837 292 850 q 279 735 279 821 l 280 452 l 353 452 q 499 506 436 452 q 563 647 563 561 z "},"S":{"ha":681,"x_min":66,"x_max":623,"o":"m 354 903 q 410 900 384 903 q 453 892 436 897 q 502 879 470 888 q 559 865 534 871 q 578 673 568 806 q 568 662 578 667 q 549 658 558 658 q 534 663 540 658 q 523 709 532 684 q 497 761 514 734 q 459 809 480 787 q 408 844 437 830 q 345 857 378 857 q 275 843 305 857 q 229 806 245 829 q 204 758 212 783 q 197 707 197 733 q 201 669 197 687 q 213 636 206 650 q 234 607 220 622 q 258 583 247 593 q 288 559 269 572 q 319 538 307 546 q 353 517 331 530 q 387 496 375 504 q 422 475 397 490 q 461 450 446 460 q 500 424 477 441 q 538 394 524 408 q 571 362 553 381 q 599 324 589 342 q 616 282 609 306 q 623 235 623 259 q 599 133 623 180 q 535 54 575 86 q 445 4 496 22 q 339 -14 393 -14 q 270 -9 307 -14 q 209 1 233 -4 q 147 14 184 5 q 95 26 109 23 q 75 150 84 79 q 66 236 66 220 q 102 252 83 252 q 117 240 115 252 q 129 198 121 220 q 154 145 136 176 q 195 90 172 114 q 257 50 218 66 q 342 33 296 33 q 458 77 411 33 q 505 198 505 121 q 500 237 505 218 q 490 269 496 255 q 472 295 484 282 q 450 317 460 309 q 422 337 439 326 q 392 356 405 349 q 358 374 380 363 q 324 393 337 386 q 288 415 296 410 q 253 436 280 419 q 216 461 226 453 q 183 486 206 469 q 151 516 161 504 q 127 547 142 528 q 105 583 112 566 q 94 621 99 600 q 88 665 88 642 q 126 789 88 734 q 225 874 165 845 q 354 903 286 903 z "},"T":{"ha":849,"x_min":16,"x_max":831,"o":"m 689 897 q 731 903 705 897 q 770 917 758 910 q 796 920 786 925 q 831 686 812 778 q 806 677 821 675 q 787 684 791 677 q 739 804 772 759 q 656 849 705 849 l 484 849 l 484 157 q 491 57 484 79 q 529 41 494 47 q 585 35 564 35 q 589 16 589 30 q 585 -4 589 1 q 426 3 446 3 q 266 -4 405 3 q 261 16 261 1 q 266 35 262 30 q 321 41 286 35 q 359 57 357 47 q 366 157 366 79 l 366 849 l 191 849 q 109 804 142 849 q 61 684 76 759 q 42 677 56 677 q 16 686 27 675 q 52 920 35 778 q 83 916 63 925 q 119 903 96 909 q 159 897 143 897 l 689 897 z "},"U":{"ha":981,"x_min":35,"x_max":966,"o":"m 200 891 q 359 898 220 891 q 363 878 363 892 q 359 859 363 864 q 303 852 338 859 q 265 837 268 846 q 258 736 258 815 l 258 401 q 325 152 258 235 q 511 73 389 73 q 774 372 768 73 l 774 739 q 772 800 774 781 q 760 833 770 818 q 719 851 755 842 q 663 860 682 860 q 657 880 658 867 q 660 899 657 894 q 810 892 795 892 q 860 893 838 892 q 907 897 881 895 q 956 899 932 899 q 956 860 966 882 q 896 852 937 860 q 850 833 856 844 q 839 800 841 819 q 836 741 836 782 l 836 374 q 743 87 836 179 q 482 -5 649 -5 q 240 84 334 -5 q 140 340 140 178 l 140 736 q 134 837 140 815 q 96 852 131 846 q 40 859 60 859 q 36 878 36 864 q 40 898 35 892 q 200 891 179 891 z "},"V":{"ha":865,"x_min":-11,"x_max":886,"o":"m 149 891 q 317 898 181 891 q 318 876 319 892 q 314 859 318 859 q 296 857 308 859 q 270 851 285 855 q 243 837 254 846 q 233 814 233 827 q 256 722 233 786 q 458 175 383 376 q 498 271 463 184 q 586 486 534 357 q 675 709 637 614 q 699 804 699 772 q 688 831 699 819 q 660 847 677 842 q 631 855 644 852 q 610 857 618 857 q 605 875 605 859 q 610 897 605 891 q 751 891 710 891 q 799 892 779 891 q 841 895 819 893 q 884 898 864 897 q 885 876 886 892 q 881 859 884 859 q 838 850 866 859 q 794 823 809 841 q 726 686 768 793 q 463 43 612 400 q 412 -3 444 -3 q 407 1 410 -3 q 401 12 404 5 l 398 19 q 285 318 371 90 q 140 697 199 547 q 78 827 108 782 q 39 850 68 842 q -9 859 9 859 q -11 877 -11 859 q -9 898 -11 896 q 43 895 13 897 q 97 892 73 893 q 149 891 121 891 z "},"W":{"ha":1221,"x_min":-8,"x_max":1230,"o":"m 159 891 q 209 892 186 891 q 260 895 232 893 q 306 898 288 897 q 308 876 308 892 q 303 859 307 859 q 286 857 297 859 q 259 851 274 855 q 233 837 243 846 q 222 814 222 827 q 242 726 222 801 q 317 474 259 664 q 400 201 376 283 q 510 553 434 313 q 605 853 587 793 q 626 885 610 871 q 654 898 642 898 q 670 876 660 898 q 886 205 848 315 q 934 376 905 275 q 984 551 963 476 q 1027 711 1005 625 q 1044 806 1044 776 q 1032 832 1044 821 q 1003 849 1020 844 q 973 856 987 854 q 951 859 960 859 q 947 877 947 861 q 951 898 947 892 q 1098 891 1077 891 q 1145 892 1126 891 q 1185 895 1164 893 q 1227 898 1207 897 q 1229 876 1230 892 q 1224 859 1227 859 q 1184 848 1213 859 q 1138 823 1156 838 q 1089 720 1113 802 q 996 395 1058 613 q 895 43 934 177 q 873 12 890 26 q 843 -3 857 -3 q 835 5 840 -3 q 829 19 831 14 q 781 163 810 74 q 722 341 751 252 q 667 509 692 431 q 624 640 641 588 q 608 689 607 692 q 506 369 572 570 q 404 43 441 168 q 382 12 399 26 q 352 -3 366 -3 q 344 5 349 -3 q 338 19 340 14 q 220 401 293 163 q 121 722 147 639 q 115 743 120 727 q 109 763 111 759 q 104 780 108 768 q 97 796 100 791 q 91 808 95 800 q 82 821 87 816 q 73 831 78 826 q 34 851 60 844 q -6 859 9 859 q -8 877 -8 859 q -6 898 -8 896 q 159 891 150 891 z "},"X":{"ha":906,"x_min":-13,"x_max":909,"o":"m 216 891 q 390 898 254 891 q 392 875 393 892 q 387 859 392 859 q 357 856 374 859 q 323 842 340 852 q 306 815 306 831 q 322 774 306 798 l 479 533 q 538 611 501 562 q 597 689 576 661 q 642 749 618 717 q 677 800 665 781 q 683 822 683 810 q 676 837 683 829 q 648 850 670 844 q 591 857 627 857 q 586 874 587 858 q 589 897 585 890 q 729 890 679 890 q 878 897 797 890 q 881 877 882 892 q 876 857 881 863 q 848 854 865 857 q 802 838 831 851 q 755 803 773 824 q 505 488 631 656 l 772 90 q 828 49 790 62 q 905 35 867 35 q 908 14 909 29 q 907 -4 908 -1 q 862 -1 888 -3 q 813 2 835 1 q 767 3 792 3 q 703 2 733 3 q 633 -1 672 1 q 569 -4 595 -3 q 564 18 564 1 q 569 35 564 35 q 617 46 587 35 q 648 73 648 56 q 641 90 648 76 l 434 408 q 296 219 369 321 q 210 90 224 117 q 203 68 203 69 q 213 52 203 59 q 247 40 222 45 q 307 35 271 35 q 312 14 311 30 q 310 -4 312 -1 q 157 3 184 3 q -10 -4 125 3 q -12 17 -13 3 q -7 35 -10 32 q 64 50 16 35 q 138 95 113 64 q 226 211 183 153 q 319 336 269 268 q 404 450 369 404 l 212 743 q 169 801 188 781 q 123 837 151 821 q 83 852 106 846 q 47 859 60 859 q 42 876 42 859 q 47 898 42 892 q 102 895 70 897 q 161 892 135 893 q 216 891 186 891 z "},"Y":{"ha":811,"x_min":-19,"x_max":820,"o":"m 354 157 l 354 362 q 345 400 354 381 q 245 578 302 477 q 152 743 188 679 q 112 800 131 780 q 62 837 92 820 q 23 852 46 846 q -14 859 0 859 q -19 876 -19 859 q -14 898 -19 892 q 42 895 9 897 q 100 892 75 893 q 156 891 126 891 q 330 898 194 891 q 332 875 332 892 q 327 859 332 859 q 297 856 314 859 q 263 842 280 852 q 245 815 245 831 q 262 774 245 801 l 450 449 q 553 645 496 532 q 627 800 610 759 q 631 821 631 810 q 624 836 631 829 q 594 850 616 844 q 536 857 571 857 q 532 876 533 857 q 533 897 531 894 q 669 890 659 890 q 724 891 701 890 q 774 894 747 892 q 818 897 800 896 q 819 874 820 890 q 815 857 818 857 q 795 856 806 857 q 764 851 785 855 q 724 834 743 846 q 694 803 705 822 q 480 408 653 730 q 473 366 473 396 l 472 157 q 479 57 472 79 q 517 41 481 47 q 572 35 552 35 q 577 16 576 30 q 572 -4 577 1 q 414 3 433 3 q 254 -4 393 3 q 249 16 249 1 q 254 35 250 30 q 309 41 274 35 q 347 57 345 47 q 354 157 354 79 z "},"Z":{"ha":859,"x_min":43,"x_max":817,"o":"m 293 849 q 178 803 225 849 q 109 671 132 756 q 94 666 105 666 q 73 670 85 666 q 58 677 62 673 q 103 907 90 764 q 214 897 179 897 l 477 897 q 762 910 572 897 q 777 898 767 909 q 787 880 787 888 q 642 667 785 876 q 355 254 498 460 l 213 47 l 567 47 q 693 96 646 47 q 707 112 700 103 q 718 127 713 120 q 729 145 723 134 q 738 162 735 157 q 746 180 741 168 q 753 197 751 193 q 760 214 754 200 q 765 229 765 229 q 784 233 767 233 q 817 221 804 233 q 795 152 807 191 q 778 95 783 114 q 764 50 772 75 q 751 0 757 24 l 72 0 q 52 6 60 0 q 47 19 43 13 l 624 849 l 293 849 z "},"[":{"ha":502,"x_min":203,"x_max":441,"o":"m 229 986 q 437 994 229 986 q 440 987 437 994 q 441 982 441 984 q 429 961 441 967 q 427 960 428 960 q 269 929 376 943 l 269 -471 q 359 -485 269 -471 q 427 -502 404 -494 q 441 -524 441 -509 q 439 -530 441 -528 q 438 -534 439 -530 l 437 -536 l 315 -529 q 229 -528 270 -528 q 203 -496 207 -525 l 203 955 q 216 983 203 975 q 229 986 222 986 z "},"\\":{"ha":479,"x_min":42,"x_max":458,"o":"m 60 975 q 87 971 75 975 q 107 962 100 966 q 114 955 113 958 l 458 -249 l 456 -251 q 448 -256 454 -254 q 433 -258 442 -258 q 399 -248 413 -259 q 380 -227 383 -237 l 42 963 q 60 975 46 975 z "},"]":{"ha":502,"x_min":61,"x_max":298,"o":"m 273 986 q 286 983 280 986 q 298 955 298 975 l 298 -496 q 273 -528 295 -525 q 187 -529 232 -528 l 65 -536 l 64 -534 l 62 -530 q 61 -524 61 -528 q 75 -502 61 -509 q 142 -485 98 -494 l 233 -471 l 233 929 q 75 960 126 943 q 73 961 74 960 q 61 982 61 967 q 62 987 61 984 l 65 994 l 273 986 z "},"^":{"ha":529,"x_min":83,"x_max":422,"o":"m 252 875 q 274 857 265 875 q 320 770 298 809 q 373 679 342 732 q 422 595 404 626 q 415 580 422 586 q 401 574 408 574 q 336 647 374 604 q 275 720 298 690 l 252 749 q 104 574 167 639 q 90 580 98 574 q 83 595 83 586 q 132 680 102 629 q 185 769 162 730 q 232 857 208 809 q 252 875 241 875 z "},"_":{"ha":685,"x_min":19,"x_max":654,"o":"m 19 -45 q 39 18 26 18 l 648 18 q 654 11 654 18 q 640 -50 654 -1 q 637 -56 639 -54 q 633 -58 635 -58 l 632 -58 l 28 -58 q 19 -45 19 -58 z "},"`":{"ha":464,"x_min":157,"x_max":374,"o":"m 206 928 q 224 925 215 928 q 237 921 233 923 q 243 917 241 918 q 325 805 275 876 q 374 728 374 734 q 362 711 374 711 q 304 746 355 711 q 206 825 254 781 q 157 888 157 869 q 159 902 157 895 q 173 919 161 909 q 206 928 184 928 z "},"a":{"ha":585,"x_min":50,"x_max":567,"o":"m 254 62 q 329 84 287 62 q 372 118 372 106 l 372 302 q 245 263 267 271 q 185 221 207 248 q 163 157 163 195 q 189 91 163 119 q 254 62 216 62 m 327 591 q 430 537 386 591 q 475 406 475 483 l 475 126 q 517 62 475 62 q 529 63 523 62 q 538 66 534 64 q 547 70 543 68 q 554 74 551 73 q 558 78 556 76 q 562 80 561 80 q 567 69 567 80 q 560 43 567 55 q 511 11 545 29 q 458 -8 477 -8 q 406 19 430 -8 q 376 80 382 47 q 298 25 356 60 q 209 -11 240 -11 q 96 34 142 -11 q 50 145 50 79 q 72 214 50 184 q 118 254 93 244 q 199 282 140 262 q 298 317 258 302 q 355 339 338 331 q 369 349 366 343 q 372 373 372 355 l 372 410 q 337 499 372 458 q 255 540 303 540 q 204 519 221 540 q 180 456 188 498 q 117 391 169 391 q 83 408 96 391 q 71 448 71 426 q 74 464 71 453 q 80 480 77 475 q 192 555 122 519 q 327 591 261 591 z "},"b":{"ha":675,"x_min":5,"x_max":622,"o":"m 287 -9 q 186 11 258 -9 q 172 15 183 12 q 157 19 161 18 q 143 22 153 20 q 128 24 134 24 q 114 23 122 24 q 98 19 106 22 q 87 31 94 19 q 81 49 81 43 q 97 149 97 85 l 97 757 q 90 827 97 811 q 7 852 80 852 q 6 860 7 852 q 6 878 5 869 q 9 887 6 886 q 201 941 102 897 q 211 934 206 941 q 216 920 216 927 q 201 802 201 876 l 201 534 q 201 528 201 530 q 202 523 201 526 q 205 519 203 519 q 210 521 206 519 q 289 568 237 541 q 374 594 340 594 q 480 568 432 594 q 559 501 529 543 q 606 412 589 460 q 622 316 622 363 q 596 190 622 250 q 527 86 571 130 q 420 17 483 43 q 287 -9 357 -9 m 309 514 q 252 501 284 514 q 208 477 219 488 q 201 463 201 471 l 201 133 q 241 64 201 92 q 328 37 280 37 q 417 70 375 37 q 484 156 459 104 q 508 263 508 209 q 454 447 508 380 q 309 514 400 514 z "},"c":{"ha":574,"x_min":53,"x_max":533,"o":"m 518 524 q 503 474 518 490 q 467 458 487 458 q 439 467 453 458 q 411 490 426 476 q 388 509 395 504 q 350 529 365 524 q 311 534 336 534 q 205 472 252 534 q 159 308 159 409 q 220 136 159 194 q 378 79 281 79 q 464 101 427 79 q 522 148 501 123 q 526 145 523 148 q 531 138 528 143 q 533 129 533 134 q 525 104 533 118 q 498 69 514 87 q 457 33 481 52 q 398 1 433 14 q 327 -11 364 -11 q 184 28 248 -11 q 86 130 120 68 q 53 263 53 192 q 74 373 53 320 q 129 465 94 426 q 205 534 163 505 q 294 579 248 564 q 382 594 340 594 q 505 562 456 594 q 514 545 509 557 q 518 524 518 533 z "},"d":{"ha":699,"x_min":53,"x_max":674,"o":"m 376 594 q 427 589 396 594 q 469 581 458 585 q 476 609 476 581 l 476 757 q 469 827 476 811 q 387 852 459 852 q 385 860 386 852 q 385 878 385 869 q 388 887 385 886 q 581 941 481 897 q 590 934 585 941 q 595 920 595 927 q 581 802 581 876 l 581 221 q 590 88 581 111 q 607 75 594 80 q 633 67 620 69 q 657 65 646 66 q 670 64 669 64 q 674 47 674 62 q 671 35 674 43 q 663 27 667 27 q 618 22 644 26 q 571 12 593 18 q 530 1 549 7 q 499 -7 511 -4 l 487 -11 q 476 15 476 -11 l 476 62 q 472 71 475 71 q 393 19 452 49 q 292 -11 335 -11 q 125 74 197 -11 q 53 279 53 158 q 86 403 53 342 q 169 504 119 463 q 274 569 218 545 q 376 594 330 594 m 332 537 q 213 470 258 537 q 167 312 167 402 q 218 142 167 212 q 358 73 269 73 q 439 92 401 73 q 476 127 476 110 l 476 471 q 432 516 476 494 q 332 537 388 537 z "},"e":{"ha":583,"x_min":54,"x_max":532,"o":"m 157 387 q 378 387 157 387 q 410 418 408 387 q 404 452 410 431 q 386 494 398 472 q 351 530 374 515 q 298 545 328 545 q 240 529 267 545 q 198 489 214 513 q 173 443 183 466 q 160 403 163 419 q 157 387 156 387 m 151 336 q 212 144 148 212 q 372 76 276 76 q 460 100 420 76 q 521 148 500 123 q 524 145 522 148 q 529 138 527 143 q 532 129 532 134 q 524 104 532 118 q 496 69 513 87 q 456 33 480 52 q 397 1 431 14 q 326 -11 363 -11 q 131 70 207 -11 q 54 271 54 150 q 79 398 54 337 q 143 501 104 459 q 229 569 182 543 q 321 594 277 594 q 405 580 368 594 q 464 545 442 566 q 500 498 486 524 q 519 450 514 471 q 525 410 525 428 q 518 362 525 378 q 492 346 511 347 q 316 340 465 344 q 151 336 168 336 z "},"f":{"ha":418,"x_min":34,"x_max":443,"o":"m 366 945 q 404 943 395 945 q 429 929 413 940 q 438 912 434 924 q 443 891 443 901 q 437 862 443 874 q 422 845 431 850 q 405 839 412 840 q 389 837 397 837 q 349 852 376 837 q 310 864 327 864 q 256 830 277 864 q 235 736 235 797 l 235 568 l 395 568 q 402 553 402 568 q 383 513 402 532 l 235 513 l 235 157 q 242 57 235 79 q 279 41 245 47 q 333 35 313 35 q 337 16 337 30 q 333 -4 338 1 q 182 3 194 3 q 137 2 159 3 q 86 -1 115 1 q 39 -4 58 -3 q 34 16 34 1 q 39 35 35 30 q 90 41 58 35 q 124 57 121 47 q 131 157 131 79 l 131 513 l 52 513 q 45 525 45 513 q 60 546 45 528 q 81 568 75 563 l 131 568 l 131 594 q 156 731 131 664 q 217 844 181 799 q 294 918 254 890 q 366 945 334 945 z "},"g":{"ha":632,"x_min":31,"x_max":618,"o":"m 292 555 q 204 507 237 555 q 172 396 172 458 q 208 278 172 330 q 302 227 243 227 q 387 274 355 227 q 418 381 418 321 q 384 503 418 450 q 292 555 351 555 m 346 -5 q 220 -12 232 -5 q 164 -54 190 -29 q 138 -103 138 -79 q 187 -213 138 -171 q 320 -255 235 -255 q 414 -235 366 -255 q 493 -180 462 -214 q 525 -110 525 -146 q 515 -77 525 -94 q 484 -43 505 -60 q 428 -16 464 -26 q 346 -5 391 -5 m 408 91 q 554 48 490 91 q 618 -52 618 5 q 589 -138 618 -93 q 513 -221 560 -184 q 400 -283 466 -258 q 266 -308 334 -307 q 156 -291 208 -309 q 67 -234 104 -273 q 31 -142 31 -195 q 46 -99 31 -121 q 86 -58 62 -77 q 133 -25 111 -39 q 175 -1 154 -12 q 98 45 132 12 q 64 125 64 79 q 118 173 79 143 q 180 217 157 203 q 99 293 130 245 q 68 391 68 341 q 135 534 68 473 q 297 595 201 595 q 329 594 313 595 q 359 587 345 592 q 382 581 376 583 q 405 572 389 579 l 420 566 q 452 556 438 559 l 597 576 q 610 563 610 572 q 600 533 610 554 q 579 507 589 513 l 490 513 q 484 509 484 513 q 508 462 494 499 q 522 385 522 425 q 455 248 522 311 q 293 186 387 186 q 252 190 276 186 q 217 198 227 194 q 182 170 197 186 q 167 138 167 153 q 190 108 167 125 q 248 91 212 91 l 408 91 z "},"h":{"ha":700,"x_min":24,"x_max":689,"o":"m 417 594 q 492 583 461 594 q 542 550 522 571 q 573 492 562 529 q 588 412 584 456 q 592 307 592 369 l 592 157 q 599 57 592 79 q 633 41 602 47 q 684 35 665 35 q 689 16 688 30 q 684 -4 689 1 q 539 3 545 3 q 493 2 515 3 q 443 -1 471 1 q 395 -4 414 -3 q 391 16 391 1 q 395 35 391 30 q 447 41 415 35 q 481 57 478 47 q 488 157 488 79 l 488 293 q 460 468 488 421 q 355 515 433 515 q 300 499 332 515 q 247 465 269 483 q 226 441 226 448 l 226 157 q 233 57 226 79 q 267 41 235 47 q 318 35 298 35 q 322 16 322 30 q 318 -4 323 1 q 173 3 179 3 q 127 2 149 3 q 77 -1 105 1 q 29 -4 48 -3 q 25 16 24 1 q 29 35 25 30 q 80 41 49 35 q 115 57 112 47 q 121 157 121 79 l 121 757 q 115 827 121 811 q 32 852 104 852 q 31 860 31 852 q 30 878 30 869 q 33 887 31 886 q 226 941 127 897 q 236 934 231 941 q 241 920 241 927 q 226 802 226 876 l 226 495 q 230 492 226 492 q 234 495 231 492 q 317 559 261 525 q 417 594 374 594 z "},"i":{"ha":366,"x_min":43,"x_max":343,"o":"m 136 756 q 126 766 136 756 q 116 804 116 776 q 136 852 116 833 q 184 872 155 872 q 232 852 212 872 q 252 804 252 833 q 232 756 252 776 q 184 736 212 736 q 136 756 155 736 m 246 441 l 246 157 q 253 57 246 79 q 287 41 256 47 q 338 35 319 35 q 343 16 342 30 q 338 -4 343 1 q 193 3 199 3 q 148 2 170 3 q 97 -1 125 1 q 50 -4 68 -3 q 45 16 45 1 q 50 35 45 30 q 101 41 69 35 q 135 57 132 47 q 142 157 140 74 l 142 410 q 135 480 142 464 q 109 496 131 490 q 73 504 87 503 q 47 505 58 505 q 44 521 44 507 q 47 540 43 534 q 241 597 163 555 q 251 589 245 597 q 256 575 256 581 q 246 486 246 509 l 246 441 z "},"j":{"ha":324,"x_min":-24,"x_max":239,"o":"m 109 756 q 99 766 109 756 q 90 804 90 776 q 109 852 90 833 q 157 872 129 872 q 205 852 186 872 q 225 804 225 833 q 205 756 225 776 q 157 736 186 736 q 109 756 129 736 m 125 61 l 125 410 q 118 480 125 464 q 92 496 114 490 q 56 504 71 503 q 30 505 41 505 q 27 521 27 507 q 30 540 26 534 q 224 597 146 555 q 234 589 229 597 q 239 575 239 581 q 229 486 229 509 l 229 439 l 229 92 q 213 -46 229 18 q 174 -152 197 -110 q 117 -229 150 -195 q 55 -282 84 -263 q -5 -313 26 -300 q -23 -293 -18 -306 q -24 -288 -24 -291 q -23 -283 -24 -285 q 23 -248 5 -264 q 62 -203 41 -232 q 96 -141 83 -174 q 116 -56 108 -108 q 125 61 125 -4 z "},"k":{"ha":703,"x_min":24,"x_max":698,"o":"m 226 157 q 233 57 226 79 q 267 41 235 47 q 318 35 298 35 q 322 16 322 30 q 318 -4 323 1 q 173 3 179 3 q 127 2 149 3 q 77 -1 105 1 q 29 -4 48 -3 q 25 16 24 1 q 29 35 25 30 q 80 41 49 35 q 115 57 112 47 q 121 157 121 79 l 121 757 q 115 827 121 811 q 32 852 104 852 q 31 860 31 852 q 30 878 30 869 q 33 887 31 886 q 226 941 127 897 q 236 934 231 941 q 241 920 241 927 q 226 802 226 876 l 226 319 q 337 401 250 328 q 376 434 354 416 q 412 464 399 453 q 438 485 425 474 q 456 503 450 496 q 462 514 462 510 q 459 522 462 518 q 451 527 456 525 q 440 531 446 530 q 428 534 435 533 q 415 535 420 535 q 404 536 410 536 q 397 537 398 537 q 393 559 392 545 q 399 576 394 574 q 530 570 465 570 q 649 576 600 570 q 653 556 653 570 q 649 537 652 541 q 597 528 631 537 q 545 506 564 519 q 325 338 395 397 q 422 230 363 296 q 518 124 481 164 q 569 72 555 84 q 628 43 593 52 q 694 35 663 34 q 697 20 696 32 q 695 3 698 8 q 607 -5 676 -5 q 506 14 553 -5 q 440 54 459 34 q 246 264 323 180 q 239 270 244 267 q 229 275 233 274 l 226 277 l 226 157 z "},"l":{"ha":346,"x_min":24,"x_max":323,"o":"m 121 757 q 115 827 121 811 q 32 852 104 852 q 31 860 31 852 q 30 878 30 869 q 33 887 31 886 q 226 941 127 897 q 236 934 231 941 q 241 920 241 927 q 226 802 226 876 l 226 157 q 233 57 226 79 q 267 41 235 47 q 318 35 298 35 q 322 16 322 30 q 318 -4 323 1 q 173 3 179 3 q 127 2 149 3 q 77 -1 105 1 q 29 -4 48 -3 q 25 16 24 1 q 29 35 25 30 q 80 41 49 35 q 115 57 112 47 q 121 157 121 79 l 121 757 z "},"m":{"ha":1072,"x_min":43,"x_max":1059,"o":"m 433 594 q 534 568 495 594 q 588 481 572 541 q 787 594 712 594 q 862 583 831 594 q 912 550 892 571 q 943 492 932 529 q 958 412 954 456 q 962 307 962 369 l 962 157 q 969 57 962 79 q 1003 41 972 47 q 1055 35 1035 35 q 1059 16 1059 30 q 1055 -4 1059 1 q 909 3 916 3 q 864 2 886 3 q 813 -1 842 1 q 766 -4 785 -3 q 761 16 761 1 q 766 35 762 30 q 817 41 785 35 q 851 57 848 47 q 858 157 858 79 l 858 302 q 855 376 858 346 q 845 435 852 407 q 823 479 837 463 q 786 506 809 496 q 730 515 763 515 q 668 498 701 515 q 616 462 635 480 q 597 438 597 444 q 598 430 597 437 q 599 420 599 422 q 604 324 604 386 l 604 157 q 611 57 604 79 q 645 41 614 47 q 696 35 677 35 q 701 16 701 30 q 696 -4 701 1 q 551 3 557 3 q 506 2 528 3 q 455 -1 484 1 q 408 -4 427 -3 q 403 16 403 1 q 408 35 404 30 q 459 41 427 35 q 493 57 490 47 q 500 157 500 79 l 500 296 q 473 468 500 420 q 372 515 446 515 q 289 486 331 515 q 246 441 246 457 l 246 157 q 253 57 246 79 q 287 41 256 47 q 338 35 319 35 q 343 16 342 30 q 338 -4 343 1 q 193 3 199 3 q 148 2 170 3 q 97 -1 125 1 q 50 -4 68 -3 q 45 16 45 1 q 50 35 45 30 q 101 41 69 35 q 135 57 132 47 q 142 157 142 79 l 142 404 q 135 480 142 464 q 109 496 131 490 q 73 504 87 503 q 47 505 58 505 q 44 521 44 507 q 47 540 43 534 q 241 597 163 555 q 251 589 245 597 q 256 575 256 581 q 248 505 248 518 q 250 499 248 499 q 254 502 252 499 q 357 574 317 555 q 433 594 398 594 z "},"n":{"ha":722,"x_min":43,"x_max":709,"o":"m 437 594 q 512 583 481 594 q 562 550 543 571 q 593 492 582 529 q 608 412 604 456 q 612 307 612 369 l 612 157 q 619 57 612 79 q 653 41 622 47 q 705 35 685 35 q 709 16 709 30 q 705 -4 709 1 q 559 3 566 3 q 514 2 536 3 q 463 -1 492 1 q 416 -4 435 -3 q 411 16 411 1 q 416 35 412 30 q 467 41 435 35 q 501 57 498 47 q 508 157 508 79 l 508 293 q 480 468 508 421 q 375 515 453 515 q 320 499 352 515 q 268 465 289 483 q 246 441 246 448 l 246 157 q 253 57 246 79 q 287 41 256 47 q 338 35 319 35 q 343 16 342 30 q 338 -4 343 1 q 193 3 199 3 q 148 2 170 3 q 97 -1 125 1 q 50 -4 68 -3 q 45 16 45 1 q 50 35 45 30 q 101 41 69 35 q 135 57 132 47 q 142 157 142 79 l 142 404 q 135 480 142 464 q 109 496 131 490 q 73 504 87 503 q 47 505 58 505 q 44 521 44 507 q 47 540 43 534 q 241 597 163 555 q 251 589 245 597 q 256 575 256 581 q 248 498 248 518 q 250 492 248 492 q 254 495 252 492 q 338 559 281 525 q 437 594 394 594 z "},"o":{"ha":690,"x_min":56,"x_max":635,"o":"m 330 551 q 238 515 275 551 q 187 429 201 480 q 172 316 172 378 q 193 185 172 248 q 258 79 214 122 q 361 35 302 35 q 452 71 416 35 q 504 156 489 106 q 518 269 518 207 q 497 400 518 336 q 431 507 475 463 q 330 551 387 551 m 345 595 q 556 512 477 595 q 635 300 635 429 q 552 79 635 168 q 347 -9 470 -9 q 135 75 215 -9 q 56 289 56 159 q 138 508 56 420 q 345 595 221 595 z "},"p":{"ha":692,"x_min":19,"x_max":640,"o":"m 394 594 q 503 567 454 594 q 580 498 551 541 q 624 408 609 455 q 640 315 640 360 q 611 190 640 251 q 538 86 583 130 q 436 16 494 42 q 322 -11 379 -11 q 227 4 275 -11 q 222 -14 222 -3 l 222 -145 q 229 -245 222 -224 q 263 -261 231 -255 q 314 -267 294 -267 q 318 -287 318 -273 q 314 -307 319 -301 q 169 -300 175 -300 q 123 -301 145 -300 q 73 -304 101 -302 q 25 -307 44 -306 q 21 -287 20 -301 q 25 -267 21 -273 q 76 -261 45 -267 q 111 -245 108 -255 q 117 -145 116 -229 l 117 410 q 111 480 117 464 q 85 496 106 490 q 48 504 63 503 q 22 505 34 505 q 19 521 20 507 q 22 540 19 534 q 216 597 138 555 q 226 589 221 597 q 231 575 231 581 q 227 550 231 574 q 222 519 222 526 q 224 514 222 514 q 229 517 226 514 q 309 569 260 544 q 394 594 357 594 m 336 514 q 259 495 296 514 q 222 461 222 477 l 222 136 q 263 62 222 88 q 348 37 304 37 q 443 71 401 37 q 505 157 485 106 q 526 264 526 208 q 471 448 526 381 q 336 514 416 514 z "},"q":{"ha":674,"x_min":53,"x_max":675,"o":"m 347 545 q 266 522 302 545 q 209 463 229 498 q 178 389 189 427 q 167 319 167 352 q 222 137 167 202 q 365 72 277 72 q 438 91 404 72 q 473 126 473 110 l 473 450 q 434 518 473 492 q 347 545 395 545 m 388 594 q 467 577 408 594 q 549 560 526 560 q 576 564 564 560 q 588 552 582 564 q 594 534 594 541 q 578 434 578 498 l 578 -146 q 585 -247 578 -225 q 619 -262 587 -256 q 670 -269 650 -269 q 674 -288 674 -274 q 670 -308 675 -302 q 525 -301 531 -301 q 479 -302 501 -301 q 429 -305 457 -303 q 381 -308 400 -307 q 377 -288 376 -302 q 381 -269 377 -274 q 432 -262 401 -269 q 467 -247 464 -256 q 473 -146 473 -225 l 473 54 q 471 66 473 61 q 464 68 469 71 q 386 19 440 47 q 294 -9 332 -9 q 210 8 250 -9 q 142 54 170 25 q 93 119 114 83 q 63 195 73 156 q 53 270 53 233 q 74 375 53 323 q 129 465 94 426 q 207 533 164 503 q 297 578 250 563 q 388 594 345 594 z "},"r":{"ha":519,"x_min":43,"x_max":500,"o":"m 412 593 q 461 581 438 593 q 494 553 485 570 q 500 517 500 537 q 484 465 500 484 q 455 446 469 446 q 438 450 446 446 q 419 462 431 454 q 405 472 407 471 q 355 488 380 488 q 281 442 315 488 q 246 366 246 395 l 246 157 q 253 57 246 79 q 301 41 256 47 q 370 35 346 35 q 374 16 374 30 q 370 -4 374 1 q 201 3 231 3 q 50 -4 189 3 q 45 16 45 1 q 50 35 45 30 q 101 41 69 35 q 135 57 132 47 q 142 157 140 74 l 142 410 q 135 480 142 464 q 109 496 131 490 q 73 504 87 503 q 47 505 58 505 q 44 521 44 507 q 47 540 43 534 q 241 597 163 555 q 251 589 245 597 q 256 575 256 581 q 250 514 254 567 q 246 450 246 460 q 248 447 246 448 q 250 446 249 446 q 252 448 251 446 q 322 545 275 498 q 412 593 370 593 z "},"s":{"ha":500,"x_min":56,"x_max":446,"o":"m 264 593 q 340 585 295 593 q 403 575 385 577 q 419 426 416 514 q 406 419 419 419 q 382 426 391 419 q 339 511 370 471 q 269 551 308 551 q 197 527 222 551 q 172 465 172 503 q 177 434 172 448 q 189 410 182 419 q 209 389 195 400 q 232 372 224 377 q 261 354 240 366 q 290 338 282 342 q 317 322 296 334 q 348 303 338 310 q 377 284 358 297 q 405 261 395 272 q 426 236 414 251 q 441 206 437 222 q 446 172 446 190 q 384 38 446 92 q 237 -15 322 -15 q 185 -11 210 -15 q 129 0 161 -7 q 79 11 97 7 q 63 78 71 32 q 56 152 56 125 q 80 160 66 160 q 92 157 88 160 q 147 69 106 109 q 239 28 189 28 q 309 55 281 28 q 336 126 336 81 q 328 169 336 150 q 300 204 319 188 q 264 230 280 220 q 217 257 249 240 q 171 282 185 273 q 96 343 123 309 q 68 427 68 378 q 127 546 68 500 q 264 593 186 593 z "},"t":{"ha":422,"x_min":27,"x_max":399,"o":"m 217 586 l 392 586 q 399 571 399 586 q 380 530 399 549 l 217 530 l 217 175 q 307 64 217 64 q 395 95 351 64 q 399 85 399 93 q 393 65 399 71 q 363 36 380 50 q 315 6 347 21 q 254 -9 284 -9 q 202 -3 226 -9 q 157 20 178 4 q 124 65 136 35 q 113 137 113 95 l 113 530 l 34 530 q 27 543 27 530 q 42 563 27 546 q 62 586 57 581 l 113 586 l 113 671 q 144 706 123 684 q 179 745 164 728 q 195 762 194 761 q 204 767 199 766 q 213 767 209 768 q 217 764 217 766 l 217 586 z "},"u":{"ha":699,"x_min":18,"x_max":672,"o":"m 474 434 q 463 507 474 487 q 387 534 448 534 q 384 551 384 538 q 387 570 383 564 q 573 597 498 574 q 583 584 578 597 q 588 564 588 570 q 578 476 578 545 l 578 414 l 578 191 q 588 88 578 132 q 603 74 590 79 q 629 67 616 68 q 655 64 642 65 q 668 64 667 64 q 672 49 672 62 q 669 36 672 45 q 661 27 665 27 q 616 22 642 26 q 569 12 591 18 q 528 1 547 7 q 496 -7 509 -4 l 485 -11 q 477 -4 480 -11 q 474 11 474 3 l 474 73 l 471 80 q 384 19 440 47 q 279 -9 328 -9 q 206 8 237 -9 q 157 52 175 26 q 128 117 139 79 q 113 188 117 155 q 109 260 109 222 l 109 434 q 98 507 109 487 q 22 534 83 534 q 19 551 19 538 q 22 570 18 564 q 208 597 134 574 q 218 586 213 597 q 223 570 223 576 q 214 476 214 551 l 214 418 l 214 277 q 246 117 214 168 q 349 66 279 66 q 434 91 393 66 q 474 141 475 116 l 474 434 z "},"v":{"ha":642,"x_min":-5,"x_max":644,"o":"m 139 576 q 183 577 162 576 q 230 581 203 578 q 275 583 256 583 q 276 561 277 577 q 269 544 274 544 q 247 543 260 544 q 218 535 234 541 q 203 521 203 530 q 204 515 203 518 l 353 149 q 474 457 422 330 q 482 500 482 477 q 460 532 482 521 q 404 544 439 544 q 399 561 399 544 q 404 583 399 578 q 436 581 418 583 q 471 577 454 578 q 513 576 488 576 q 555 577 536 576 q 596 581 573 578 q 640 583 619 583 q 642 561 644 577 q 635 544 640 544 q 589 533 618 544 q 550 498 560 522 q 347 8 405 152 q 331 -7 344 1 q 311 -15 318 -15 q 299 -9 302 -15 q 223 176 267 66 q 145 368 179 287 q 78 517 111 449 q 3 544 65 544 q 3 583 -5 564 q 48 581 23 583 q 94 577 73 578 q 139 576 115 576 z "},"w":{"ha":978,"x_min":0,"x_max":979,"o":"m 137 576 q 181 577 160 576 q 228 581 201 578 q 273 583 254 583 q 274 562 275 577 q 270 544 274 546 q 247 543 260 544 q 218 533 234 541 q 202 513 202 526 q 209 492 202 511 q 349 159 223 455 q 386 253 365 200 q 418 333 407 306 q 439 387 429 359 q 454 428 450 415 q 458 444 458 440 q 448 476 458 452 q 426 518 438 500 q 366 544 408 544 q 361 562 361 547 q 366 583 361 578 q 420 579 383 583 q 490 576 458 576 q 631 583 495 576 q 633 562 633 576 q 629 544 633 548 q 562 500 562 544 q 565 486 562 498 q 574 458 568 475 q 592 411 581 440 q 616 350 604 381 q 649 266 628 319 q 689 163 670 212 q 808 467 790 414 q 815 499 815 488 q 808 522 815 513 q 785 535 801 531 q 761 541 769 540 q 734 544 753 543 q 729 563 730 547 q 734 583 729 578 q 786 579 753 583 q 852 576 820 576 q 893 577 875 576 q 933 581 911 578 q 977 583 956 583 q 978 565 979 581 q 972 544 978 548 q 922 532 954 544 q 880 495 890 521 q 684 8 761 193 q 671 -7 681 0 q 655 -15 661 -15 q 639 -9 642 -15 l 488 382 l 342 11 q 329 -4 340 6 q 308 -15 317 -15 q 296 -9 298 -15 q 76 514 182 274 q 3 544 63 544 q 0 564 0 550 q 3 583 0 577 q 47 581 23 583 q 92 577 72 578 q 137 576 113 576 z "},"x":{"ha":646,"x_min":13,"x_max":637,"o":"m 167 576 q 304 583 229 576 q 305 563 305 576 q 301 544 305 549 q 247 521 247 544 q 254 505 247 516 l 343 362 q 382 418 354 380 q 425 481 410 457 q 439 518 439 506 q 428 533 439 528 q 405 541 417 539 q 378 543 393 543 q 363 544 364 544 q 361 562 361 545 q 363 583 361 579 q 409 581 383 583 q 455 577 435 578 q 500 576 476 576 q 609 583 562 576 q 610 561 610 578 q 608 544 610 544 q 503 514 523 539 q 452 442 486 490 q 395 363 417 393 q 368 326 373 332 l 530 84 q 635 35 564 35 q 636 26 636 35 q 636 8 637 18 q 633 -4 635 -1 q 591 -1 616 -3 q 548 2 567 1 q 506 3 528 3 q 457 2 480 3 q 405 -1 434 1 q 355 -4 375 -3 q 353 19 353 3 q 357 35 353 35 q 395 43 376 37 q 414 60 414 49 q 411 68 414 62 q 304 237 340 183 q 262 176 296 227 q 206 91 228 125 q 198 65 198 78 q 203 51 198 57 q 221 42 209 45 q 241 38 234 39 q 265 36 248 37 q 273 35 270 35 q 275 27 274 35 q 275 9 275 18 q 271 -4 274 -1 q 229 -1 252 -3 q 185 2 205 1 q 142 3 166 3 q 100 2 119 3 q 57 -1 81 1 q 15 -4 33 -3 q 14 17 13 4 q 18 35 15 31 q 34 38 20 36 q 52 41 47 40 q 69 44 56 41 q 87 48 81 46 q 103 55 93 51 q 120 63 113 59 q 134 74 126 68 q 146 88 141 81 q 279 279 273 270 l 122 514 q 84 537 112 530 q 31 544 57 544 q 30 552 30 544 q 30 570 29 560 q 33 583 31 579 q 167 576 107 576 z "},"y":{"ha":636,"x_min":0,"x_max":637,"o":"m 138 576 q 273 583 216 576 q 274 561 276 577 q 268 544 273 544 q 246 543 259 544 q 217 535 233 541 q 201 521 201 530 q 203 515 201 518 l 347 149 q 467 457 416 330 q 475 500 475 477 q 454 532 475 521 q 397 544 432 544 q 392 561 392 544 q 397 583 392 578 q 519 576 448 576 q 633 583 565 576 q 635 561 637 577 q 629 544 633 544 q 582 533 611 544 q 543 498 553 522 q 340 8 398 152 q 311 -68 333 -8 q 271 -164 288 -127 q 232 -233 254 -201 q 114 -309 180 -309 q 55 -251 55 -309 q 71 -212 55 -231 q 156 -198 125 -212 q 224 -134 186 -185 q 262 -64 239 -115 q 290 3 286 -12 q 77 517 154 349 q 2 544 64 544 q 0 563 0 544 q 2 583 0 581 q 138 576 66 576 z "},"z":{"ha":606,"x_min":46,"x_max":568,"o":"m 201 585 l 374 585 q 540 595 451 585 q 544 563 544 589 q 184 47 184 52 l 374 47 q 471 84 432 47 q 524 170 510 120 q 533 178 525 178 q 552 173 541 178 q 568 161 563 168 q 507 0 528 62 l 66 0 q 53 11 59 2 q 46 27 46 19 q 47 37 46 35 l 396 537 l 206 538 q 172 533 188 538 q 148 519 157 527 q 130 500 138 512 q 118 479 121 488 q 109 459 114 471 q 103 444 104 446 q 92 435 101 439 q 73 431 83 431 q 58 435 58 431 q 80 595 75 496 q 201 585 152 585 z "},"{":{"ha":552,"x_min":197,"x_max":375,"o":"m 264 -312 q 353 -515 258 -411 q 351 -547 365 -532 q 318 -548 335 -562 q 207 -279 210 -456 q 246 -92 205 -199 q 290 52 284 10 q 197 209 302 145 l 197 252 q 290 409 303 316 q 246 553 284 452 q 207 740 206 661 q 318 1008 210 917 q 351 1008 335 1023 q 352 975 365 991 q 264 772 258 871 q 307 653 267 719 q 355 411 375 538 q 252 231 336 289 q 355 50 336 171 q 307 -192 375 -78 q 264 -312 267 -258 z "},"|":{"ha":278,"x_min":104,"x_max":174,"o":"m 174 -512 q 117 -534 174 -525 q 112 -535 113 -535 q 104 -530 105 -535 q 105 -527 104 -530 q 105 -524 105 -525 l 105 972 q 106 980 105 972 q 112 983 109 982 q 162 993 143 993 q 173 985 174 992 l 174 -512 z "},"}":{"ha":552,"x_min":177,"x_max":355,"o":"m 288 -312 q 245 -192 285 -258 q 197 50 177 -78 q 300 231 216 171 q 197 411 216 289 q 245 653 177 538 q 288 772 285 719 q 200 975 294 871 q 201 1008 187 991 q 234 1008 217 1023 q 345 740 342 917 q 306 553 346 661 q 262 409 268 452 q 355 252 249 316 l 355 209 q 262 52 250 145 q 306 -92 268 10 q 345 -279 347 -199 q 234 -548 342 -456 q 201 -547 217 -562 q 199 -515 187 -532 q 288 -312 294 -411 z "},"~":{"ha":773,"x_min":76,"x_max":707,"o":"m 368 376 q 318 393 336 387 q 270 405 300 399 q 212 411 240 411 q 147 395 176 411 q 88 351 119 379 q 76 374 76 357 q 136 446 76 411 q 252 480 197 480 q 314 474 282 480 q 362 462 347 467 q 414 444 377 456 q 464 426 446 432 q 512 414 481 420 q 572 408 543 408 q 591 410 582 408 q 608 413 601 412 q 624 419 615 414 q 638 426 633 424 q 653 436 643 429 q 666 445 663 443 q 680 457 669 448 q 694 468 692 466 q 707 445 707 462 q 651 375 707 410 q 533 339 595 339 q 471 345 502 339 q 419 357 439 351 q 368 376 399 363 z "},"¡":{"ha":292,"x_min":72,"x_max":221,"o":"m 93 455 q 83 466 93 455 q 72 507 72 477 q 93 561 72 538 q 145 583 115 583 q 198 561 176 583 q 221 507 221 538 q 198 455 221 477 q 145 434 176 434 q 93 455 115 434 m 140 -302 q 95 -278 111 -302 q 80 -224 80 -254 q 82 -185 80 -213 q 88 -106 84 -158 q 97 1 92 -55 q 111 152 102 57 q 126 335 119 248 q 148 353 134 351 q 167 338 162 347 q 208 -224 208 -130 q 189 -278 208 -254 q 140 -302 170 -302 z "},"¢":{"ha":605,"x_min":61,"x_max":541,"o":"m 526 524 q 511 474 526 490 q 475 458 495 458 q 448 467 461 458 q 419 490 434 476 q 396 509 404 504 q 358 529 373 524 q 319 534 344 534 q 214 472 260 534 q 167 308 167 409 q 228 136 167 194 q 387 79 290 79 q 472 101 435 79 q 530 148 509 123 q 534 145 531 148 q 539 138 536 143 q 541 129 541 134 q 533 104 541 118 q 506 69 522 87 q 465 33 490 52 q 407 1 441 14 q 335 -11 372 -11 q 192 28 256 -11 q 95 130 128 68 q 61 263 61 192 q 82 373 61 320 q 137 465 102 426 q 214 534 171 505 q 302 579 256 564 q 391 594 348 594 q 513 562 464 594 q 522 545 517 557 q 526 524 526 533 m 369 640 q 407 632 407 640 l 294 -61 q 256 -52 256 -61 l 369 640 z "},"£":{"ha":647,"x_min":60,"x_max":597,"o":"m 426 863 q 477 856 458 863 q 524 830 496 849 q 533 813 528 825 q 537 792 537 802 q 522 743 537 759 q 486 727 506 727 q 464 733 475 727 q 447 744 453 739 q 429 762 440 750 q 414 777 418 773 q 389 796 399 791 q 366 800 380 800 q 311 774 332 800 q 282 711 290 749 q 274 623 274 673 q 288 487 274 570 q 292 464 290 475 l 517 464 q 524 446 526 456 q 516 427 522 435 q 505 415 510 418 l 299 415 q 302 369 302 387 q 261 235 302 302 q 182 132 220 167 q 229 142 203 142 q 277 133 254 142 q 319 111 301 123 q 370 89 337 98 q 444 79 403 79 q 494 92 469 79 q 535 125 518 104 q 563 160 553 146 q 579 189 572 175 q 584 185 580 189 q 593 177 589 182 q 597 167 597 172 q 593 146 597 159 q 570 103 587 128 q 528 52 553 79 q 468 7 503 25 q 395 -11 432 -11 q 319 1 356 -11 q 259 28 282 14 q 208 54 236 42 q 157 66 180 66 q 125 53 138 66 q 100 20 112 40 q 81 -8 89 -1 q 66 2 73 -8 q 60 22 60 12 q 127 127 60 60 q 179 211 157 157 q 201 313 201 265 q 186 415 201 326 l 75 415 q 82 443 68 421 q 106 464 96 464 l 179 464 q 170 541 170 524 q 190 669 168 608 q 248 771 212 730 q 331 838 284 813 q 426 863 378 863 z "},"¤":{"ha":779,"x_min":106,"x_max":675,"o":"m 399 206 q 497 263 459 206 q 536 399 536 320 q 488 560 536 492 q 376 628 440 628 q 276 570 315 628 q 237 433 237 511 q 286 273 237 340 q 399 206 334 206 m 540 617 l 620 692 q 637 689 625 697 q 660 664 648 680 q 675 632 671 648 l 594 556 q 633 416 633 490 q 589 270 633 336 l 662 191 q 659 174 667 186 q 634 152 650 163 q 602 136 618 140 l 532 210 q 388 163 467 163 q 233 217 300 163 l 161 149 q 144 152 156 144 q 122 177 133 161 q 106 209 111 193 l 179 278 q 138 416 138 342 q 190 574 138 505 l 119 650 q 122 667 114 655 q 147 689 131 678 q 179 705 163 701 l 250 631 q 388 673 311 673 q 540 617 473 673 z "},"¥":{"ha":911,"x_min":35,"x_max":874,"o":"m 408 296 l 275 296 q 281 324 269 302 q 302 346 293 346 l 407 346 q 399 370 405 358 q 299 548 357 447 q 206 713 242 649 q 166 770 185 750 q 117 807 146 790 q 77 823 100 817 q 41 829 54 829 q 35 846 35 829 q 41 868 35 863 q 96 865 64 867 q 155 862 129 863 q 210 861 180 861 q 384 868 248 861 q 386 845 387 862 q 381 829 386 829 q 351 826 368 829 q 317 812 334 823 q 300 785 300 802 q 316 745 300 771 l 505 422 q 610 622 552 508 q 684 773 669 736 q 688 793 688 785 q 679 806 688 799 q 645 820 670 813 q 586 827 621 827 q 582 846 583 827 q 583 867 581 864 q 723 860 709 860 q 778 861 755 860 q 828 864 802 862 q 872 867 854 866 q 873 844 874 861 q 869 827 872 827 q 849 826 860 827 q 818 821 839 825 q 778 804 797 817 q 749 773 760 792 q 534 378 707 701 q 528 346 529 368 l 658 346 q 665 328 667 338 q 656 308 662 317 q 644 296 650 299 l 528 296 l 527 237 l 658 237 q 665 219 667 230 q 656 199 662 208 q 644 187 650 191 l 526 187 l 526 157 q 533 57 526 79 q 571 41 536 47 q 627 35 606 35 q 631 16 631 30 q 627 -4 631 1 q 468 3 488 3 q 308 -4 447 3 q 303 16 303 1 q 308 35 304 30 q 363 41 328 35 q 401 57 399 47 q 408 157 408 79 l 408 187 l 275 187 q 281 215 269 193 q 302 237 293 237 l 408 237 l 408 296 z "},"¦":{"ha":278,"x_min":100,"x_max":172,"o":"m 172 346 q 143 332 171 339 q 109 326 116 326 q 103 327 105 326 q 101 329 102 328 q 101 333 101 330 q 102 336 102 336 l 102 979 q 109 990 100 987 q 161 997 132 997 q 169 995 166 997 q 172 991 172 993 l 172 989 l 172 346 m 102 -522 l 102 141 q 109 152 100 149 q 161 159 132 159 q 169 157 166 159 q 172 153 172 155 l 172 151 l 172 -513 q 143 -526 171 -519 q 109 -533 116 -533 q 103 -532 105 -533 q 101 -530 102 -531 q 101 -526 101 -529 q 102 -522 102 -523 z "},"§":{"ha":598,"x_min":52,"x_max":548,"o":"m 187 -106 q 368 -49 298 -106 q 383 -34 376 -41 q 481 81 427 3 q 548 243 548 175 q 534 325 548 284 q 495 401 520 366 q 446 464 470 437 q 391 519 422 491 q 276 641 326 578 q 225 745 225 703 q 244 786 225 768 q 288 811 264 804 q 335 818 312 818 q 378 807 357 818 q 388 802 380 806 q 400 796 396 798 q 411 793 404 795 q 427 791 419 791 q 459 808 443 791 q 476 840 476 825 q 468 875 476 859 q 412 886 443 886 q 232 829 301 886 q 216 814 224 821 q 118 699 173 777 q 52 537 52 605 q 65 455 52 496 q 104 378 79 414 q 154 316 130 342 q 209 260 178 289 q 324 139 273 201 q 374 35 374 77 q 355 -6 374 12 q 312 -31 336 -24 q 264 -38 288 -38 q 221 -27 243 -38 q 212 -22 220 -26 q 200 -16 203 -18 q 188 -13 196 -15 q 172 -11 180 -11 q 140 -28 157 -11 q 123 -60 123 -45 q 132 -95 123 -79 q 187 -106 157 -106 m 435 70 q 437 92 437 81 q 432 128 437 110 q 421 161 427 146 q 402 194 416 175 q 382 222 389 212 q 355 252 374 233 q 330 277 336 271 q 302 303 323 283 q 277 326 280 323 q 125 597 125 466 q 127 628 125 614 q 136 657 130 642 q 146 681 142 672 q 163 708 151 689 q 164 710 163 709 q 163 688 163 699 q 168 652 163 670 q 178 619 172 633 q 197 586 184 605 q 218 557 210 568 q 244 528 225 547 q 270 503 263 509 q 298 477 276 496 q 323 454 319 457 q 475 183 475 314 q 472 152 475 166 q 464 123 470 138 q 453 99 457 108 q 437 72 449 91 q 435 70 436 71 z "},"¨":{"ha":511,"x_min":68,"x_max":444,"o":"m 381 764 q 425 745 406 764 q 444 700 444 726 q 425 657 444 675 q 380 639 406 639 q 335 657 354 639 q 316 701 316 676 q 336 745 316 726 q 381 764 355 764 m 133 764 q 177 745 158 764 q 195 700 195 726 q 176 657 195 675 q 132 639 157 639 q 87 657 106 639 q 68 701 68 676 q 87 745 68 726 q 133 764 107 764 z "},"©":{"ha":894,"x_min":76,"x_max":818,"o":"m 618 374 q 608 331 618 368 q 591 290 597 293 q 448 264 528 264 q 310 320 366 264 q 254 456 254 375 q 308 597 254 538 q 445 655 362 655 q 597 629 530 655 q 618 547 618 552 q 611 538 618 542 q 597 534 604 534 q 587 537 593 534 q 579 556 585 546 q 559 579 572 566 q 520 601 546 592 q 461 609 495 609 q 369 567 407 609 q 331 468 331 525 q 375 350 331 392 q 473 308 420 308 q 571 334 543 308 q 583 352 578 340 q 589 371 587 363 q 591 378 591 378 q 618 374 616 378 m 164 628 q 143 591 164 628 q 121 464 121 553 q 164 299 121 375 q 283 180 208 224 q 448 136 359 136 q 612 180 536 136 q 732 299 688 224 q 776 464 776 375 q 732 628 776 553 q 612 748 688 704 q 448 792 536 792 q 283 748 359 792 q 164 628 208 704 m 184 202 q 130 256 184 202 q 76 464 76 311 q 184 726 76 617 q 446 834 293 834 q 633 785 547 834 q 768 650 718 735 q 818 464 818 564 q 768 278 818 363 q 633 143 718 193 q 446 94 547 94 q 184 202 293 94 z "},"ª":{"ha":468,"x_min":64,"x_max":422,"o":"m 205 388 q 257 407 227 388 q 286 434 286 425 l 286 549 q 257 541 277 547 q 222 530 237 534 q 199 522 207 525 q 141 454 141 499 q 160 408 141 428 q 205 388 178 388 m 255 754 q 327 717 296 754 q 358 627 358 680 l 358 433 q 387 388 358 388 q 398 390 392 388 q 407 393 404 391 q 414 397 411 395 l 418 400 q 422 393 422 400 q 416 376 422 384 q 383 352 406 366 q 346 339 359 339 q 310 358 326 339 q 289 400 293 377 q 235 362 276 387 q 174 338 195 338 q 95 369 127 338 q 64 446 64 400 q 79 493 64 473 q 111 521 94 514 q 275 581 267 576 q 284 588 283 584 q 286 604 286 591 l 286 629 q 264 688 286 663 q 206 713 243 713 q 171 701 182 713 q 153 661 159 688 q 110 616 146 616 q 86 628 96 616 q 77 655 77 640 q 84 678 77 671 q 160 729 112 705 q 255 754 209 754 z "},"«":{"ha":576,"x_min":68,"x_max":513,"o":"m 135 231 q 258 -18 135 88 q 263 -39 270 -27 q 239 -44 256 -52 q 113 71 159 -3 q 68 231 68 145 q 113 391 68 317 q 239 505 160 467 q 263 500 256 513 q 258 479 270 488 q 135 231 135 380 m 378 231 q 501 -18 378 88 q 506 -39 513 -27 q 482 -44 498 -52 q 356 71 401 -3 q 311 231 311 145 q 356 391 311 317 q 482 505 403 467 q 506 500 499 513 q 501 479 513 488 q 378 231 378 380 z "},"¬":{"ha":796,"x_min":61,"x_max":700,"o":"m 700 570 l 700 229 q 689 223 699 228 q 664 214 680 219 q 636 209 648 209 q 618 218 623 210 l 618 494 l 69 494 q 61 507 61 494 q 81 570 68 570 l 700 570 z "},"­":{"ha":513,"x_min":80,"x_max":434,"o":"m 80 285 q 96 354 80 354 l 98 354 l 425 370 l 426 370 q 434 358 434 370 q 430 310 434 328 q 420 288 425 292 l 416 285 l 90 270 q 87 270 88 270 q 83 274 85 270 q 80 285 80 277 z "},"®":{"ha":894,"x_min":76,"x_max":818,"o":"m 438 749 q 522 723 483 749 q 561 650 561 696 q 538 594 561 621 q 486 556 516 567 q 583 421 526 490 q 611 398 597 405 q 648 389 625 391 q 649 379 650 387 q 648 370 648 371 q 555 376 574 370 q 518 402 532 385 q 422 539 469 467 q 406 546 418 546 l 385 546 l 385 441 q 387 398 385 408 q 404 392 389 394 q 427 389 418 389 q 429 379 429 387 q 427 370 429 372 q 355 372 380 372 q 279 370 326 372 q 277 379 277 372 q 279 389 277 387 q 302 392 288 389 q 318 398 317 394 q 321 441 321 410 l 321 680 q 318 723 321 711 q 302 729 317 727 q 279 732 288 732 q 277 742 277 734 q 279 751 277 749 q 356 749 326 749 q 393 749 366 749 q 438 749 420 749 m 496 637 q 478 703 496 680 q 416 727 461 727 q 387 721 389 727 q 385 678 386 718 l 385 570 q 410 570 400 571 q 472 588 448 570 q 496 637 496 605 m 164 716 q 143 679 164 716 q 121 552 121 641 q 164 388 121 463 q 283 268 208 312 q 448 224 359 224 q 612 268 536 224 q 732 388 688 312 q 776 552 776 463 q 732 716 776 641 q 612 835 688 791 q 448 879 536 879 q 283 835 359 879 q 164 716 208 791 m 76 552 q 184 814 76 705 q 446 922 293 922 q 633 873 547 922 q 768 738 718 823 q 818 552 818 652 q 768 366 818 451 q 633 230 718 280 q 446 180 547 180 q 260 230 346 180 q 125 366 175 280 q 76 552 76 451 z "},"¯":{"ha":458,"x_min":65,"x_max":394,"o":"m 378 762 q 75 762 378 762 q 69 790 65 767 q 83 819 73 812 l 387 819 q 391 794 394 814 q 378 762 389 773 z "},"°":{"ha":372,"x_min":52,"x_max":319,"o":"m 126 786 q 114 774 126 786 q 102 727 102 762 q 126 668 102 692 q 186 643 151 643 q 244 668 220 643 q 269 727 269 692 q 244 786 269 762 q 186 810 220 810 q 126 786 151 810 m 91 632 q 71 652 91 632 q 52 727 52 672 q 91 821 52 782 q 186 860 131 860 q 280 821 241 860 q 319 727 319 782 q 280 632 319 672 q 186 593 241 593 q 91 632 131 593 z "},"±":{"ha":743,"x_min":46,"x_max":697,"o":"m 66 84 q 685 84 66 84 q 693 80 690 84 q 697 68 697 75 q 691 34 697 52 q 675 8 684 17 l 54 8 q 46 22 46 8 q 52 54 46 31 q 66 84 58 77 m 66 490 l 332 490 l 332 761 q 391 776 372 776 q 401 774 397 776 q 407 770 406 772 l 408 768 l 408 490 l 685 490 q 693 485 690 490 q 697 473 697 481 q 691 440 697 457 q 675 414 684 422 l 408 414 l 408 140 q 350 125 389 125 q 338 129 343 125 q 332 137 332 133 l 332 414 l 54 414 q 46 427 46 414 q 52 459 46 436 q 66 490 58 483 z "},"²":{"ha":486,"x_min":52,"x_max":435,"o":"m 435 488 q 412 422 429 474 q 385 345 395 370 l 70 345 q 58 351 64 345 q 54 361 52 357 q 112 420 71 380 q 185 497 152 461 q 243 567 219 534 q 309 719 309 654 q 285 789 309 762 q 219 817 261 817 q 166 805 191 817 q 130 782 142 793 q 101 750 117 770 q 87 757 97 746 q 78 773 77 768 q 146 847 102 816 q 235 878 191 878 q 352 837 307 878 q 397 732 397 796 q 334 595 397 670 q 165 419 315 572 l 328 419 q 356 425 343 419 q 378 441 370 431 q 393 460 387 452 q 403 480 398 469 q 409 492 408 491 q 416 496 410 494 q 435 488 429 496 z "},"³":{"ha":431,"x_min":53,"x_max":381,"o":"m 220 876 q 302 848 267 876 q 338 772 338 821 q 313 702 338 732 q 259 659 288 672 q 337 621 294 659 q 381 524 381 583 q 317 388 381 437 q 160 338 253 338 q 107 343 136 338 q 69 358 79 349 q 53 391 53 373 q 65 423 53 410 q 95 435 78 435 q 113 430 105 435 q 130 412 121 425 q 144 396 140 400 q 197 376 164 376 q 268 407 241 376 q 294 499 294 439 q 265 582 294 548 q 197 616 235 616 q 174 613 186 616 q 153 608 163 611 q 142 605 143 605 q 136 620 138 610 q 136 633 134 628 q 226 676 190 644 q 262 754 262 707 q 240 802 262 781 q 193 823 219 823 q 176 822 184 823 q 161 818 168 821 q 148 812 154 815 q 135 805 141 809 q 124 798 129 801 q 115 790 120 794 q 108 783 110 785 q 102 777 106 781 l 98 773 q 91 780 94 774 q 86 789 88 785 q 85 795 85 794 q 220 876 140 876 z "},"´":{"ha":353,"x_min":68,"x_max":285,"o":"m 236 928 q 270 919 258 928 q 283 902 281 909 q 285 888 285 895 q 236 825 285 869 q 138 746 188 781 q 80 711 87 711 q 68 728 68 711 q 117 805 68 734 q 199 917 167 876 q 205 921 201 918 q 218 925 210 923 q 236 928 227 928 z "},"µ":{"ha":734,"x_min":106,"x_max":697,"o":"m 195 302 q 213 150 195 214 q 264 87 231 87 q 328 107 297 87 q 383 161 359 127 q 425 232 407 195 q 457 308 444 268 l 457 404 l 457 566 q 490 593 474 593 q 532 574 502 593 q 562 543 562 555 q 560 524 562 536 q 556 492 559 512 q 550 453 553 473 q 541 399 547 433 q 530 334 535 364 l 517 264 q 542 139 517 189 q 612 90 567 90 q 681 130 649 90 q 693 118 686 130 q 697 103 697 110 q 647 26 684 58 q 571 -5 611 -5 q 531 20 549 -5 q 503 81 513 45 q 489 145 494 118 q 483 193 484 172 q 446 120 467 154 q 399 55 425 86 q 339 6 372 24 q 273 -12 307 -12 q 187 137 212 -12 q 188 56 188 132 q 192 -115 187 -21 q 210 -281 197 -210 q 178 -308 193 -308 q 136 -289 165 -308 q 106 -258 106 -270 q 115 -14 106 -215 q 134 277 124 186 q 132 341 134 293 q 129 404 129 389 l 129 566 q 161 593 146 593 q 203 574 174 593 q 233 543 233 555 q 202 334 233 479 l 195 302 z "},"¶":{"ha":656,"x_min":46,"x_max":587,"o":"m 437 452 q 437 822 437 452 q 397 829 430 829 q 359 821 368 829 q 359 445 359 821 q 402 447 372 445 q 437 452 433 449 m 435 396 q 414 394 430 395 q 383 392 397 393 q 359 391 369 391 l 359 157 q 363 57 359 79 q 397 49 365 49 q 433 57 431 49 q 437 157 437 79 l 435 396 m 490 406 l 490 157 q 496 57 490 79 q 533 39 499 47 q 585 31 567 31 q 587 14 587 31 q 585 -5 587 -3 q 500 -1 551 -4 q 403 3 450 3 q 214 -5 377 3 q 212 14 212 0 q 217 31 212 28 q 264 39 231 31 q 300 57 297 47 q 307 157 307 79 l 307 389 q 193 414 245 389 q 111 477 142 439 q 63 557 80 515 q 46 636 46 599 q 81 765 46 707 q 169 854 116 823 q 278 884 222 884 q 344 882 318 884 q 410 879 370 879 q 492 881 450 879 q 553 884 533 883 l 574 886 q 578 865 578 880 q 572 846 578 850 q 527 838 553 846 q 495 819 500 830 q 491 732 491 805 l 491 460 q 511 464 494 459 q 543 473 528 468 l 557 477 q 571 469 571 477 q 555 441 570 460 q 532 419 540 422 q 490 406 507 408 z "},"·":{"ha":304,"x_min":73,"x_max":231,"o":"m 96 302 q 85 314 96 302 q 73 358 73 326 q 96 414 73 391 q 152 437 119 437 q 208 414 184 437 q 231 358 231 391 q 208 302 231 326 q 152 278 184 278 q 96 302 119 278 z "},"¸":{"ha":313,"x_min":68,"x_max":245,"o":"m 152 -37 l 186 -37 q 229 -56 212 -37 q 245 -103 245 -76 q 209 -178 245 -150 q 118 -206 172 -206 q 72 -194 90 -206 q 70 -186 72 -193 q 68 -175 68 -180 q 74 -162 68 -168 q 87 -156 81 -156 q 110 -165 94 -156 q 137 -174 125 -174 q 180 -160 164 -174 q 195 -129 195 -147 q 182 -95 195 -106 q 153 -83 169 -83 q 118 -92 142 -83 q 109 -85 115 -92 q 104 -75 102 -78 q 126 -41 110 -66 q 148 -5 142 -16 l 176 -5 l 152 -37 z "},"¹":{"ha":396,"x_min":53,"x_max":351,"o":"m 167 703 q 160 759 167 745 q 141 772 154 772 q 65 750 127 772 q 53 773 53 756 q 57 784 53 782 q 170 836 120 810 q 240 872 220 861 q 260 884 260 884 l 263 884 q 279 853 269 884 q 267 743 267 796 l 267 461 q 278 397 267 422 q 309 385 281 391 q 349 378 337 378 q 351 363 351 378 q 349 343 351 347 q 290 346 332 344 q 218 347 249 347 q 143 346 188 347 q 83 343 98 344 q 77 361 77 346 q 83 377 77 377 q 127 384 98 377 q 159 396 156 390 q 167 458 167 417 l 167 703 z "},"º":{"ha":526,"x_min":52,"x_max":475,"o":"m 254 719 q 172 671 199 719 q 145 557 145 623 q 180 425 145 483 q 277 368 214 368 q 355 417 328 368 q 381 530 381 467 q 368 618 381 577 q 326 689 355 660 q 254 719 296 719 m 266 751 q 414 691 354 751 q 475 547 475 631 q 414 398 475 461 q 266 335 353 335 q 115 396 178 335 q 52 541 52 456 q 114 690 52 628 q 266 751 176 751 z "},"»":{"ha":576,"x_min":64,"x_max":509,"o":"m 441 231 q 318 479 441 380 q 313 500 307 488 q 337 505 320 513 q 463 391 416 467 q 509 231 509 317 q 463 71 509 145 q 337 -44 418 -3 q 313 -39 321 -52 q 318 -18 307 -27 q 441 231 441 88 m 199 231 q 75 479 199 380 q 71 500 64 488 q 94 505 77 513 q 220 391 174 467 q 266 231 266 317 q 220 71 266 145 q 94 -44 175 -3 q 71 -39 78 -52 q 75 -18 64 -27 q 199 231 199 88 z "},"¼":{"ha":948,"x_min":46,"x_max":897,"o":"m 822 552 q 831 547 827 552 q 834 536 834 542 l 834 198 q 882 198 834 198 q 894 174 891 189 q 890 144 897 159 l 838 144 l 838 0 q 798 -4 834 -4 q 754 3 762 -4 l 754 144 l 530 144 q 517 165 519 146 l 795 536 q 822 552 808 552 m 754 205 q 754 414 754 205 q 677 311 726 378 q 600 205 629 243 l 754 205 m 236 724 l 236 456 q 245 389 236 418 q 275 377 248 383 q 313 370 302 370 q 317 354 317 363 q 315 340 317 344 q 261 343 294 341 q 198 345 228 345 q 130 343 168 345 q 73 340 92 341 q 69 355 68 344 q 73 370 69 366 q 113 377 87 370 q 141 391 138 384 q 152 453 152 419 l 152 705 q 145 739 152 725 q 129 753 139 753 q 113 750 122 753 q 87 741 104 748 q 64 732 70 734 q 46 757 52 738 q 229 865 64 768 q 242 857 237 863 q 247 844 247 850 q 236 724 236 777 m 252 -17 q 242 -13 246 -16 q 237 -8 238 -11 l 237 -5 l 711 863 q 718 868 712 865 q 733 873 724 871 q 753 873 742 876 q 764 860 764 871 l 296 3 q 279 -13 290 -5 q 252 -17 267 -20 z "},"½":{"ha":1017,"x_min":50,"x_max":971,"o":"m 772 532 q 888 491 843 532 q 933 387 933 450 q 871 250 933 324 q 701 73 851 226 l 864 73 q 893 79 880 73 q 915 96 906 85 q 929 115 924 106 q 940 134 935 123 q 945 146 945 145 q 952 151 947 149 q 971 142 965 151 q 949 76 966 128 q 921 -1 932 24 l 606 -1 q 594 5 600 -1 q 590 15 588 11 q 668 95 599 25 q 769 206 736 165 q 845 373 845 302 q 821 444 845 416 q 755 471 798 471 q 703 459 727 471 q 666 436 678 448 q 637 404 654 424 q 623 411 633 400 q 614 427 613 422 q 683 501 639 470 q 772 532 727 532 m 240 724 l 240 456 q 250 389 240 418 q 279 377 252 383 q 317 370 306 370 q 321 354 321 363 q 319 340 321 344 q 265 343 298 341 q 202 345 232 345 q 134 343 172 345 q 77 340 96 341 q 73 355 73 344 q 77 370 73 366 q 117 377 92 370 q 145 391 142 384 q 156 453 156 419 l 156 705 q 150 739 156 725 q 133 753 143 753 q 117 750 126 753 q 91 741 109 748 q 68 732 74 734 q 50 757 56 738 q 233 865 68 768 q 246 857 241 863 q 251 844 251 850 q 240 724 240 777 m 765 860 l 297 3 q 280 -13 292 -5 q 254 -17 269 -20 q 243 -13 248 -16 q 239 -8 239 -11 l 238 -5 l 713 863 q 719 868 713 865 q 734 873 725 871 q 755 873 743 876 q 765 860 765 871 z "},"¾":{"ha":949,"x_min":47,"x_max":899,"o":"m 823 552 q 832 547 829 552 q 836 536 836 542 l 836 198 q 883 198 836 198 q 896 174 892 189 q 891 144 899 159 l 840 144 l 840 0 q 799 -4 836 -4 q 755 3 764 -4 l 755 144 l 532 144 q 518 165 520 146 l 796 536 q 823 552 809 552 m 755 205 q 755 414 755 205 q 679 311 727 378 q 601 205 631 243 l 755 205 m 214 876 q 297 848 261 876 q 332 772 332 821 q 307 702 332 732 q 254 659 282 672 q 332 621 288 659 q 376 524 376 583 q 312 388 376 437 q 155 338 248 338 q 102 343 130 338 q 64 358 73 349 q 47 391 47 373 q 60 423 47 410 q 90 435 73 435 q 107 430 100 435 q 125 412 115 425 q 138 396 134 400 q 191 376 159 376 q 262 407 235 376 q 289 499 289 439 q 259 582 289 548 q 191 616 230 616 q 169 613 180 616 q 148 608 157 611 q 137 605 138 605 q 130 621 133 609 q 130 633 129 631 q 220 676 184 644 q 256 754 256 707 q 235 802 256 781 q 187 823 214 823 q 171 822 179 823 q 156 818 163 821 q 142 812 149 815 q 130 805 136 809 q 119 798 123 801 q 110 790 115 794 q 102 783 104 785 q 96 777 100 781 l 92 773 q 86 780 89 774 q 81 789 83 785 q 80 795 79 794 q 214 876 134 876 m 772 860 l 304 3 q 287 -13 298 -5 q 260 -17 275 -20 q 250 -13 254 -16 q 245 -8 246 -11 l 245 -5 l 720 863 q 726 868 720 865 q 741 873 732 871 q 762 873 750 876 q 772 860 772 871 z "},"¿":{"ha":468,"x_min":56,"x_max":400,"o":"m 368 561 q 379 549 368 561 q 391 507 391 538 q 368 455 391 477 q 315 434 345 434 q 263 455 284 434 q 241 507 241 477 q 263 561 241 538 q 315 583 284 583 q 368 561 345 583 m 346 338 q 357 214 357 292 q 350 164 357 187 q 334 125 342 140 q 309 95 326 111 q 281 72 292 79 q 251 52 271 64 q 241 46 244 48 q 202 21 214 28 q 172 -2 191 14 q 145 -28 153 -17 q 130 -56 137 -39 q 123 -92 123 -73 q 153 -173 123 -143 q 224 -203 183 -203 q 296 -189 264 -203 q 340 -175 328 -175 q 379 -194 359 -175 q 400 -243 400 -213 q 388 -293 400 -276 q 323 -302 369 -302 q 260 -292 295 -302 q 190 -260 226 -281 q 124 -209 154 -238 q 75 -138 94 -180 q 56 -52 56 -97 q 86 65 56 18 q 193 156 117 113 q 257 201 221 173 q 298 240 292 229 q 304 261 302 248 q 307 283 307 274 q 307 311 307 292 q 307 335 307 330 q 328 353 315 351 q 346 338 341 347 z "},"À":{"ha":850,"x_min":-19,"x_max":857,"o":"m 481 1000 q 479 992 481 996 q 473 987 476 987 q 401 1012 460 987 q 287 1071 343 1036 q 231 1127 231 1105 q 293 1168 231 1168 q 317 1164 309 1168 q 416 1073 351 1139 q 481 1000 481 1007 m 129 189 q 391 860 308 649 q 415 885 396 870 q 442 899 433 899 q 447 898 444 899 q 450 895 449 896 l 726 171 q 761 81 760 83 q 803 48 770 60 q 853 35 837 35 q 857 15 857 29 q 856 -4 857 1 q 707 3 720 3 q 655 2 679 3 q 601 -1 631 1 q 549 -4 571 -3 q 545 16 545 1 q 551 35 545 30 q 592 40 566 35 q 627 53 618 45 q 632 72 632 58 q 609 156 632 90 q 563 279 586 222 l 540 336 q 532 342 536 342 q 397 343 514 343 q 251 339 312 343 l 244 335 q 183 170 206 235 q 164 73 164 114 q 177 54 164 62 q 207 42 189 45 q 238 37 225 38 q 258 35 251 35 q 261 17 260 33 q 260 -4 262 2 q 218 -1 241 -3 q 175 2 195 1 q 129 3 155 3 q 80 2 101 3 q 33 -1 58 1 q -16 -4 7 -3 q -19 14 -19 -1 q -16 35 -19 28 q 28 42 1 35 q 65 61 56 50 q 129 189 94 98 m 395 735 l 270 404 q 273 399 270 399 q 396 396 343 396 q 510 400 447 396 q 513 401 511 400 q 514 406 514 404 l 514 407 l 395 735 z "},"Á":{"ha":850,"x_min":-19,"x_max":857,"o":"m 365 1000 q 430 1073 365 1007 q 529 1164 495 1139 q 553 1168 537 1168 q 616 1127 616 1168 q 559 1071 616 1105 q 445 1012 503 1036 q 373 987 387 987 q 368 992 370 987 q 365 1000 365 996 m 129 189 q 391 860 308 649 q 415 885 396 870 q 442 899 433 899 q 447 898 444 899 q 450 895 449 896 l 726 171 q 761 81 760 83 q 803 48 770 60 q 853 35 837 35 q 857 15 857 29 q 856 -4 857 1 q 707 3 720 3 q 655 2 679 3 q 601 -1 631 1 q 549 -4 571 -3 q 545 16 545 1 q 551 35 545 30 q 592 40 566 35 q 627 53 618 45 q 632 72 632 58 q 609 156 632 90 q 563 279 586 222 l 540 336 q 532 342 536 342 q 397 343 514 343 q 251 339 312 343 l 244 335 q 183 170 206 235 q 164 73 164 114 q 177 54 164 62 q 207 42 189 45 q 238 37 225 38 q 258 35 251 35 q 261 17 260 33 q 260 -4 262 2 q 218 -1 241 -3 q 175 2 195 1 q 129 3 155 3 q 80 2 101 3 q 33 -1 58 1 q -16 -4 7 -3 q -19 14 -19 -1 q -16 35 -19 28 q 28 42 1 35 q 65 61 56 50 q 129 189 94 98 m 395 735 l 270 404 q 273 399 270 399 q 396 396 343 396 q 510 400 447 396 q 513 401 511 400 q 514 406 514 404 l 514 407 l 395 735 z "},"Â":{"ha":850,"x_min":-19,"x_max":857,"o":"m 441 1166 q 457 1155 448 1166 q 528 1080 486 1123 q 595 1009 570 1037 q 591 994 595 1002 q 582 986 587 986 l 441 1073 q 299 986 334 1008 q 289 994 294 986 q 285 1009 285 1002 q 424 1155 398 1126 q 441 1166 433 1166 m 129 189 q 391 860 308 649 q 415 885 396 870 q 442 899 433 899 q 447 898 444 899 q 450 895 449 896 l 726 171 q 761 81 760 83 q 803 48 770 60 q 853 35 837 35 q 857 15 857 29 q 856 -4 857 1 q 707 3 720 3 q 655 2 679 3 q 601 -1 631 1 q 549 -4 571 -3 q 545 16 545 1 q 551 35 545 30 q 592 40 566 35 q 627 53 618 45 q 632 72 632 58 q 609 156 632 90 q 563 279 586 222 l 540 336 q 532 342 536 342 q 397 343 514 343 q 251 339 312 343 l 244 335 q 183 170 206 235 q 164 73 164 114 q 177 54 164 62 q 207 42 189 45 q 238 37 225 38 q 258 35 251 35 q 261 17 260 33 q 260 -4 262 2 q 218 -1 241 -3 q 175 2 195 1 q 129 3 155 3 q 80 2 101 3 q 33 -1 58 1 q -16 -4 7 -3 q -19 14 -19 -1 q -16 35 -19 28 q 28 42 1 35 q 65 61 56 50 q 129 189 94 98 m 395 735 l 270 404 q 273 399 270 399 q 396 396 343 396 q 510 400 447 396 q 513 401 511 400 q 514 406 514 404 l 514 407 l 395 735 z "},"Ã":{"ha":850,"x_min":-19,"x_max":857,"o":"m 366 1100 q 456 1071 404 1100 q 540 1038 515 1038 q 583 1050 564 1038 q 614 1075 602 1061 q 627 1090 625 1089 q 633 1085 631 1090 q 635 1076 635 1080 q 616 1027 635 1054 q 523 978 576 978 q 433 1007 486 978 q 422 1013 431 1008 q 411 1019 414 1018 q 401 1025 408 1021 q 390 1030 393 1029 q 380 1034 387 1031 q 369 1037 374 1036 q 359 1039 365 1038 q 349 1040 354 1040 q 314 1033 330 1040 q 289 1016 298 1025 q 272 998 280 1007 q 262 988 264 989 q 256 994 258 988 q 254 1003 254 999 q 273 1052 254 1025 q 366 1100 311 1100 m 129 189 q 391 860 308 649 q 415 885 396 870 q 442 899 433 899 q 447 898 444 899 q 450 895 449 896 l 726 171 q 761 81 760 83 q 803 48 770 60 q 853 35 837 35 q 857 15 857 29 q 856 -4 857 1 q 707 3 720 3 q 655 2 679 3 q 601 -1 631 1 q 549 -4 571 -3 q 545 16 545 1 q 551 35 545 30 q 592 40 566 35 q 627 53 618 45 q 632 72 632 58 q 609 156 632 90 q 563 279 586 222 l 540 336 q 532 342 536 342 q 397 343 514 343 q 251 339 312 343 l 244 335 q 183 170 206 235 q 164 73 164 114 q 177 54 164 62 q 207 42 189 45 q 238 37 225 38 q 258 35 251 35 q 261 17 260 33 q 260 -4 262 2 q 218 -1 241 -3 q 175 2 195 1 q 129 3 155 3 q 80 2 101 3 q 33 -1 58 1 q -16 -4 7 -3 q -19 14 -19 -1 q -16 35 -19 28 q 28 42 1 35 q 65 61 56 50 q 129 189 94 98 m 395 735 l 270 404 q 273 399 270 399 q 396 396 343 396 q 510 400 447 396 q 513 401 511 400 q 514 406 514 404 l 514 407 l 395 735 z "},"Ä":{"ha":850,"x_min":-19,"x_max":857,"o":"m 129 189 q 391 860 308 649 q 415 885 396 870 q 442 899 433 899 q 447 898 444 899 q 450 895 449 896 l 726 171 q 761 81 760 83 q 803 48 770 60 q 853 35 837 35 q 857 15 857 29 q 856 -4 857 1 q 707 3 720 3 q 655 2 679 3 q 601 -1 631 1 q 549 -4 571 -3 q 545 16 545 1 q 551 35 545 30 q 592 40 566 35 q 627 53 618 45 q 632 72 632 58 q 609 156 632 90 q 563 279 586 222 l 540 336 q 532 342 536 342 q 397 343 514 343 q 251 339 312 343 l 244 335 q 183 170 206 235 q 164 73 164 114 q 177 54 164 62 q 207 42 189 45 q 238 37 225 38 q 258 35 251 35 q 261 17 260 33 q 260 -4 262 2 q 218 -1 241 -3 q 175 2 195 1 q 129 3 155 3 q 80 2 101 3 q 33 -1 58 1 q -16 -4 7 -3 q -19 14 -19 -1 q -16 35 -19 28 q 28 42 1 35 q 65 61 56 50 q 129 189 94 98 m 395 735 l 270 404 q 273 399 270 399 q 396 396 343 396 q 510 400 447 396 q 513 401 511 400 q 514 406 514 404 l 514 407 l 395 735 m 516 1007 q 506 1017 516 1007 q 496 1055 496 1027 q 516 1103 496 1084 q 564 1123 536 1123 q 612 1103 593 1123 q 632 1055 632 1084 q 612 1007 632 1027 q 564 987 593 987 q 516 1007 536 987 m 271 1007 q 261 1017 271 1007 q 251 1055 251 1027 q 271 1103 251 1084 q 319 1123 290 1123 q 367 1103 347 1123 q 387 1055 387 1084 q 367 1007 387 1027 q 319 987 347 987 q 271 1007 290 987 z "},"Å":{"ha":850,"x_min":-19,"x_max":857,"o":"m 383 1073 q 372 1062 383 1073 q 361 1020 361 1051 q 384 966 361 989 q 437 944 406 944 q 489 966 467 944 q 510 1020 510 988 q 489 1073 510 1051 q 437 1095 467 1095 q 383 1073 406 1095 m 352 934 q 334 952 352 934 q 316 1020 316 970 q 352 1105 316 1069 q 437 1141 388 1141 q 520 1105 486 1141 q 555 1020 555 1070 q 520 934 555 970 q 437 898 486 898 q 352 934 388 898 m 129 189 q 391 860 308 649 q 415 885 396 870 q 442 899 433 899 q 447 898 444 899 q 450 895 449 896 l 726 171 q 761 81 760 83 q 803 48 770 60 q 853 35 837 35 q 857 15 857 29 q 856 -4 857 1 q 707 3 720 3 q 655 2 679 3 q 601 -1 631 1 q 549 -4 571 -3 q 545 16 545 1 q 551 35 545 30 q 592 40 566 35 q 627 53 618 45 q 632 72 632 58 q 609 156 632 90 q 563 279 586 222 l 540 336 q 532 342 536 342 q 397 343 514 343 q 251 339 312 343 l 244 335 q 183 170 206 235 q 164 73 164 114 q 177 54 164 62 q 207 42 189 45 q 238 37 225 38 q 258 35 251 35 q 261 17 260 33 q 260 -4 262 2 q 218 -1 241 -3 q 175 2 195 1 q 129 3 155 3 q 80 2 101 3 q 33 -1 58 1 q -16 -4 7 -3 q -19 14 -19 -1 q -16 35 -19 28 q 28 42 1 35 q 65 61 56 50 q 129 189 94 98 m 395 735 l 270 404 q 273 399 270 399 q 396 396 343 396 q 510 400 447 396 q 513 401 511 400 q 514 406 514 404 l 514 407 l 395 735 z "},"Æ":{"ha":1217,"x_min":-22,"x_max":1177,"o":"m 642 0 q 562 -1 601 0 q 503 -3 522 -1 l 484 -4 q 481 9 481 -1 q 482 27 481 18 q 484 35 483 35 q 535 45 500 35 q 574 66 569 56 q 583 183 583 103 l 583 346 q 463 349 534 349 q 324 342 428 349 l 317 338 q 218 175 260 241 q 164 71 164 91 q 176 51 164 59 q 204 40 187 43 q 232 36 221 37 q 251 35 243 35 q 255 17 254 33 q 254 -4 256 2 q 211 -1 234 -3 q 168 2 188 1 q 122 3 149 3 q 74 2 94 3 q 29 -1 54 1 q -19 -4 4 -3 q -22 14 -22 -1 q -19 35 -22 28 q 19 44 -7 35 q 58 61 44 52 q 160 186 101 88 l 536 792 q 545 819 545 808 q 524 844 545 836 q 484 853 502 853 q 480 875 479 860 q 484 892 481 890 q 642 891 551 891 q 851 896 703 891 q 1077 901 1000 901 q 1098 797 1082 861 q 1116 716 1113 732 q 1092 709 1109 709 q 1073 719 1075 709 q 1014 820 1052 794 q 916 846 977 846 l 799 846 q 705 831 710 846 q 699 735 697 806 l 699 481 q 714 475 698 477 q 757 473 730 473 l 829 473 q 882 474 863 473 q 917 478 901 475 q 941 487 934 481 q 956 502 949 492 q 966 526 962 512 q 975 559 970 539 q 978 571 977 567 q 998 581 980 581 q 1021 574 1015 581 l 1021 317 q 1000 312 1016 312 q 978 323 982 312 q 957 391 964 376 q 940 412 950 406 q 796 423 923 423 q 775 423 783 423 q 754 423 768 423 q 732 422 741 422 q 715 420 724 421 q 703 416 707 418 q 699 411 699 414 l 699 153 q 700 97 698 130 q 707 60 701 64 q 737 48 719 50 q 803 46 755 46 l 868 46 q 964 56 917 46 q 1039 83 1011 66 q 1086 132 1068 100 q 1124 220 1103 163 q 1143 228 1126 228 q 1177 220 1169 228 q 1157 163 1171 202 q 1134 101 1143 125 q 1117 46 1126 77 q 1104 -5 1107 16 q 885 -3 1034 -5 q 642 0 736 0 m 583 403 l 583 768 l 361 407 q 362 401 359 401 q 469 400 397 400 q 583 403 532 400 z "},"Ç":{"ha":914,"x_min":66,"x_max":859,"o":"m 525 905 q 812 876 681 905 q 844 675 844 689 q 834 664 844 669 q 814 658 824 658 q 798 662 804 658 q 532 860 759 860 q 358 800 435 860 q 241 651 281 741 q 201 465 201 562 q 215 339 201 401 q 257 223 229 278 q 327 127 286 168 q 427 61 368 85 q 553 37 485 37 q 732 102 659 37 q 815 259 793 157 q 859 248 839 261 q 841 143 859 222 q 811 53 824 64 q 519 -8 703 -8 q 336 28 421 -8 q 192 124 250 64 q 100 266 134 184 q 66 437 66 347 q 101 617 66 531 q 195 766 136 703 q 341 867 255 829 q 525 905 427 905 m 515 -37 l 556 -37 q 607 -60 587 -37 q 627 -115 627 -83 q 583 -203 627 -170 q 476 -236 540 -236 q 422 -222 441 -236 q 419 -212 421 -220 q 416 -199 416 -205 q 424 -184 416 -191 q 439 -178 432 -178 q 466 -188 448 -178 q 498 -198 484 -198 q 548 -182 530 -198 q 567 -145 567 -167 q 551 -105 567 -119 q 518 -91 536 -91 q 476 -102 502 -91 q 466 -94 473 -102 q 460 -81 458 -86 q 485 -44 465 -74 q 511 0 505 -14 l 545 0 l 515 -37 z "},"È":{"ha":796,"x_min":57,"x_max":759,"o":"m 465 1000 q 463 992 465 996 q 457 987 460 987 q 385 1012 444 987 q 271 1071 327 1036 q 214 1127 214 1105 q 277 1168 214 1168 q 301 1164 293 1168 q 400 1073 335 1139 q 465 1000 465 1007 m 222 891 q 432 896 283 891 q 659 901 582 901 q 679 797 664 861 q 698 716 694 732 q 673 709 691 709 q 654 719 656 709 q 596 820 633 794 q 497 846 558 846 l 380 846 q 287 831 292 846 q 280 735 279 806 l 280 481 q 296 475 279 477 q 338 473 312 473 l 410 473 q 463 474 444 473 q 499 478 482 475 q 523 487 515 481 q 537 502 530 492 q 548 526 544 512 q 557 559 551 539 q 559 571 558 567 q 580 581 562 581 q 603 574 596 581 l 603 317 q 581 312 597 312 q 559 323 564 312 q 538 391 545 376 q 522 412 532 406 q 378 423 505 423 q 357 423 364 423 q 336 423 349 423 q 314 422 322 422 q 297 420 306 421 q 284 416 288 418 q 280 411 280 414 l 280 153 q 281 97 279 130 q 288 60 283 64 q 318 48 300 50 q 385 46 336 46 l 450 46 q 546 56 498 46 q 621 83 593 66 q 667 132 650 100 q 706 220 685 163 q 725 228 708 228 q 759 220 751 228 q 739 163 753 202 q 716 101 724 125 q 698 46 707 77 q 686 -5 689 16 q 467 -3 616 -5 q 223 0 317 0 q 138 -2 190 0 q 62 -4 87 -4 q 57 16 57 1 q 62 35 58 30 q 117 41 82 35 q 155 57 153 47 q 162 157 162 79 l 162 736 q 155 837 162 815 q 117 852 153 846 q 62 859 82 859 q 57 878 58 864 q 62 898 57 892 q 222 891 201 891 z "},"É":{"ha":796,"x_min":57,"x_max":759,"o":"m 347 1000 q 412 1073 347 1007 q 511 1164 477 1139 q 536 1168 519 1168 q 598 1127 598 1168 q 542 1071 598 1105 q 427 1012 486 1036 q 355 987 369 987 q 350 992 353 987 q 347 1000 347 996 m 222 891 q 432 896 283 891 q 659 901 582 901 q 679 797 664 861 q 698 716 694 732 q 673 709 691 709 q 654 719 656 709 q 596 820 633 794 q 497 846 558 846 l 380 846 q 287 831 292 846 q 280 735 279 806 l 280 481 q 296 475 279 477 q 338 473 312 473 l 410 473 q 463 474 444 473 q 499 478 482 475 q 523 487 515 481 q 537 502 530 492 q 548 526 544 512 q 557 559 551 539 q 559 571 558 567 q 580 581 562 581 q 603 574 596 581 l 603 317 q 581 312 597 312 q 559 323 564 312 q 538 391 545 376 q 522 412 532 406 q 378 423 505 423 q 357 423 364 423 q 336 423 349 423 q 314 422 322 422 q 297 420 306 421 q 284 416 288 418 q 280 411 280 414 l 280 153 q 281 97 279 130 q 288 60 283 64 q 318 48 300 50 q 385 46 336 46 l 450 46 q 546 56 498 46 q 621 83 593 66 q 667 132 650 100 q 706 220 685 163 q 725 228 708 228 q 759 220 751 228 q 739 163 753 202 q 716 101 724 125 q 698 46 707 77 q 686 -5 689 16 q 467 -3 616 -5 q 223 0 317 0 q 138 -2 190 0 q 62 -4 87 -4 q 57 16 57 1 q 62 35 58 30 q 117 41 82 35 q 155 57 153 47 q 162 157 162 79 l 162 736 q 155 837 162 815 q 117 852 153 846 q 62 859 82 859 q 57 878 58 864 q 62 898 57 892 q 222 891 201 891 z "},"Ê":{"ha":796,"x_min":57,"x_max":759,"o":"m 412 1166 q 429 1155 419 1166 q 499 1080 458 1123 q 567 1009 541 1037 q 563 994 567 1002 q 553 986 559 986 l 412 1073 q 271 986 306 1008 q 261 994 265 986 q 256 1009 256 1002 q 395 1155 370 1126 q 412 1166 405 1166 m 222 891 q 432 896 283 891 q 659 901 582 901 q 679 797 664 861 q 698 716 694 732 q 673 709 691 709 q 654 719 656 709 q 596 820 633 794 q 497 846 558 846 l 380 846 q 287 831 292 846 q 280 735 279 806 l 280 481 q 296 475 279 477 q 338 473 312 473 l 410 473 q 463 474 444 473 q 499 478 482 475 q 523 487 515 481 q 537 502 530 492 q 548 526 544 512 q 557 559 551 539 q 559 571 558 567 q 580 581 562 581 q 603 574 596 581 l 603 317 q 581 312 597 312 q 559 323 564 312 q 538 391 545 376 q 522 412 532 406 q 378 423 505 423 q 357 423 364 423 q 336 423 349 423 q 314 422 322 422 q 297 420 306 421 q 284 416 288 418 q 280 411 280 414 l 280 153 q 281 97 279 130 q 288 60 283 64 q 318 48 300 50 q 385 46 336 46 l 450 46 q 546 56 498 46 q 621 83 593 66 q 667 132 650 100 q 706 220 685 163 q 725 228 708 228 q 759 220 751 228 q 739 163 753 202 q 716 101 724 125 q 698 46 707 77 q 686 -5 689 16 q 467 -3 616 -5 q 223 0 317 0 q 138 -2 190 0 q 62 -4 87 -4 q 57 16 57 1 q 62 35 58 30 q 117 41 82 35 q 155 57 153 47 q 162 157 162 79 l 162 736 q 155 837 162 815 q 117 852 153 846 q 62 859 82 859 q 57 878 58 864 q 62 898 57 892 q 222 891 201 891 z "},"Ë":{"ha":796,"x_min":57,"x_max":759,"o":"m 222 891 q 432 896 283 891 q 659 901 582 901 q 679 797 664 861 q 698 716 694 732 q 673 709 691 709 q 654 719 656 709 q 596 820 633 794 q 497 846 558 846 l 380 846 q 287 831 292 846 q 280 735 279 806 l 280 481 q 296 475 279 477 q 338 473 312 473 l 410 473 q 463 474 444 473 q 499 478 482 475 q 523 487 515 481 q 537 502 530 492 q 548 526 544 512 q 557 559 551 539 q 559 571 558 567 q 580 581 562 581 q 603 574 596 581 l 603 317 q 581 312 597 312 q 559 323 564 312 q 538 391 545 376 q 522 412 532 406 q 378 423 505 423 q 357 423 364 423 q 336 423 349 423 q 314 422 322 422 q 297 420 306 421 q 284 416 288 418 q 280 411 280 414 l 280 153 q 281 97 279 130 q 288 60 283 64 q 318 48 300 50 q 385 46 336 46 l 450 46 q 546 56 498 46 q 621 83 593 66 q 667 132 650 100 q 706 220 685 163 q 725 228 708 228 q 759 220 751 228 q 739 163 753 202 q 716 101 724 125 q 698 46 707 77 q 686 -5 689 16 q 467 -3 616 -5 q 223 0 317 0 q 138 -2 190 0 q 62 -4 87 -4 q 57 16 57 1 q 62 35 58 30 q 117 41 82 35 q 155 57 153 47 q 162 157 162 79 l 162 736 q 155 837 162 815 q 117 852 153 846 q 62 859 82 859 q 57 878 58 864 q 62 898 57 892 q 222 891 201 891 m 477 1007 q 467 1017 477 1007 q 457 1055 457 1027 q 477 1103 457 1084 q 525 1123 496 1123 q 573 1103 553 1123 q 593 1055 593 1084 q 573 1007 593 1027 q 525 987 553 987 q 477 1007 496 987 m 231 1007 q 221 1017 231 1007 q 212 1055 212 1027 q 231 1103 212 1084 q 279 1123 251 1123 q 328 1103 308 1123 q 347 1055 347 1084 q 328 1007 347 1027 q 279 987 308 987 q 231 1007 251 987 z "},"Ì":{"ha":439,"x_min":51,"x_max":385,"o":"m 302 1000 q 299 992 302 996 q 294 987 296 987 q 222 1012 280 987 q 107 1071 163 1036 q 51 1127 51 1105 q 113 1168 51 1168 q 138 1164 130 1168 q 237 1073 172 1139 q 302 1000 302 1007 m 222 891 q 380 898 241 891 q 385 878 385 892 q 380 859 385 864 q 325 852 360 859 q 287 837 290 846 q 280 736 280 815 l 280 157 q 287 57 280 79 q 325 41 290 47 q 380 35 360 35 q 385 16 385 30 q 380 -4 385 1 q 222 3 241 3 q 62 -4 201 3 q 57 16 57 1 q 62 35 58 30 q 117 41 82 35 q 155 57 153 47 q 162 157 162 79 l 162 736 q 155 837 162 815 q 117 852 153 846 q 62 859 82 859 q 57 878 58 864 q 62 898 57 892 q 222 891 201 891 z "},"Í":{"ha":439,"x_min":57,"x_max":408,"o":"m 157 1000 q 222 1073 157 1007 q 321 1164 287 1139 q 345 1168 329 1168 q 408 1127 408 1168 q 351 1071 408 1105 q 237 1012 295 1036 q 165 987 178 987 q 159 992 162 987 q 157 1000 157 996 m 222 891 q 380 898 241 891 q 385 878 385 892 q 380 859 385 864 q 325 852 360 859 q 287 837 290 846 q 280 736 280 815 l 280 157 q 287 57 280 79 q 325 41 290 47 q 380 35 360 35 q 385 16 385 30 q 380 -4 385 1 q 222 3 241 3 q 62 -4 201 3 q 57 16 57 1 q 62 35 58 30 q 117 41 82 35 q 155 57 153 47 q 162 157 162 79 l 162 736 q 155 837 162 815 q 117 852 153 846 q 62 859 82 859 q 57 878 58 864 q 62 898 57 892 q 222 891 201 891 z "},"Î":{"ha":439,"x_min":57,"x_max":387,"o":"m 233 1135 q 249 1124 239 1135 q 320 1049 278 1092 q 387 978 361 1006 q 383 963 387 971 q 374 955 379 955 l 233 1042 q 91 955 126 977 q 81 963 85 955 q 77 978 77 971 q 216 1124 190 1095 q 233 1135 225 1135 m 222 891 q 380 898 241 891 q 385 878 385 892 q 380 859 385 864 q 325 852 360 859 q 287 837 290 846 q 280 736 280 815 l 280 157 q 287 57 280 79 q 325 41 290 47 q 380 35 360 35 q 385 16 385 30 q 380 -4 385 1 q 222 3 241 3 q 62 -4 201 3 q 57 16 57 1 q 62 35 58 30 q 117 41 82 35 q 155 57 153 47 q 162 157 162 79 l 162 736 q 155 837 162 815 q 117 852 153 846 q 62 859 82 859 q 57 878 58 864 q 62 898 57 892 q 222 891 201 891 z "},"Ï":{"ha":439,"x_min":38,"x_max":419,"o":"m 222 891 q 381 898 242 891 q 386 878 386 892 q 381 859 385 864 q 326 852 361 859 q 288 837 290 846 q 281 736 281 815 l 281 157 q 288 57 281 79 q 326 41 290 47 q 381 35 361 35 q 386 16 385 30 q 381 -4 386 1 q 222 3 242 3 q 62 -4 201 3 q 58 16 58 1 q 62 35 58 30 q 118 41 83 35 q 156 57 153 47 q 163 157 163 79 l 163 736 q 156 837 163 815 q 118 852 153 846 q 62 859 83 859 q 58 878 58 864 q 62 898 58 892 q 222 891 201 891 m 303 1007 q 293 1017 303 1007 q 283 1055 283 1027 q 303 1103 283 1084 q 351 1123 323 1123 q 399 1103 380 1123 q 419 1055 419 1084 q 399 1007 419 1027 q 351 987 380 987 q 303 1007 323 987 m 58 1007 q 48 1017 58 1007 q 38 1055 38 1027 q 58 1103 38 1084 q 106 1123 77 1123 q 154 1103 134 1123 q 174 1055 174 1084 q 154 1007 174 1027 q 106 987 134 987 q 58 1007 77 987 z "},"Ð":{"ha":963,"x_min":57,"x_max":895,"o":"m 281 734 l 281 156 q 290 58 281 68 q 401 39 303 39 q 538 63 475 39 q 652 132 602 86 q 731 253 703 178 q 760 425 760 328 q 740 586 760 514 q 684 707 719 659 q 600 787 648 755 q 496 834 551 820 q 382 849 442 849 q 288 834 293 849 q 281 734 280 808 m 418 892 q 618 859 528 892 q 768 767 708 825 q 862 627 829 708 q 895 453 895 547 q 880 317 895 380 q 830 193 866 253 q 740 90 795 133 q 599 22 686 47 q 401 -4 512 -4 l 62 -4 q 57 16 57 1 q 62 35 58 30 q 117 41 82 35 q 155 57 153 47 q 162 157 162 79 l 162 736 q 155 837 162 815 q 117 852 153 846 q 62 859 82 859 q 57 878 58 864 q 62 898 57 892 q 222 891 201 891 q 318 892 248 891 q 418 892 388 892 m 495 422 l 66 422 q 62 431 64 422 q 62 454 61 441 q 68 472 64 467 l 495 472 q 499 452 499 472 q 495 422 499 431 z "},"Ñ":{"ha":1053,"x_min":45,"x_max":1021,"o":"m 425 1100 q 515 1071 462 1100 q 598 1038 573 1038 q 641 1050 622 1038 q 672 1075 661 1061 q 686 1090 684 1089 q 691 1085 689 1090 q 694 1076 694 1080 q 675 1027 694 1054 q 581 978 635 978 q 491 1007 544 978 q 480 1013 489 1008 q 469 1019 472 1018 q 459 1025 467 1021 q 448 1030 452 1029 q 438 1034 445 1031 q 428 1037 432 1036 q 418 1039 423 1038 q 408 1040 412 1040 q 372 1033 389 1040 q 347 1016 356 1025 q 331 998 338 1007 q 320 988 323 989 q 314 994 317 988 q 312 1003 312 999 q 331 1052 312 1025 q 425 1100 370 1100 m 194 895 q 297 898 259 895 q 541 589 331 845 q 829 225 751 333 l 829 304 l 829 739 q 827 800 829 781 q 815 833 825 818 q 771 851 810 842 q 712 860 732 860 q 707 880 707 867 q 709 899 707 894 q 865 892 845 892 q 915 893 893 892 q 962 897 936 895 q 1010 899 987 899 q 1010 860 1021 882 q 951 852 991 860 q 905 833 911 844 q 893 800 896 819 q 891 741 891 782 l 891 189 q 894 1 891 72 q 876 -7 892 -7 q 855 1 869 -7 q 829 24 841 8 l 237 772 l 237 156 q 239 96 237 114 q 251 62 241 77 q 295 44 256 53 q 353 35 333 35 q 358 15 357 28 q 355 -4 358 1 q 201 3 220 3 q 152 2 173 3 q 104 -1 130 1 q 56 -4 79 -3 q 56 35 45 13 q 115 43 75 35 q 161 62 155 52 q 173 95 170 77 q 175 155 175 113 l 175 743 q 173 803 175 785 q 161 836 170 821 q 115 854 155 846 q 56 863 75 863 q 56 902 45 885 q 123 898 77 901 q 194 895 168 895 z "},"Ò":{"ha":1015,"x_min":66,"x_max":948,"o":"m 567 1000 q 564 992 567 996 q 559 987 562 987 q 487 1012 545 987 q 372 1071 429 1036 q 316 1127 316 1105 q 378 1168 316 1168 q 403 1164 395 1168 q 502 1073 437 1139 q 567 1000 567 1007 m 486 859 q 378 836 427 859 q 297 776 330 813 q 243 688 265 739 q 211 585 220 638 q 201 475 201 531 q 223 317 201 395 q 285 175 245 239 q 388 72 325 111 q 528 33 452 33 q 635 55 587 33 q 716 116 684 78 q 771 204 749 153 q 804 309 794 254 q 814 419 814 363 q 791 577 814 499 q 729 718 769 654 q 625 820 688 781 q 486 859 562 859 m 506 905 q 675 870 595 905 q 817 777 756 836 q 912 630 877 717 q 948 445 948 544 q 912 267 948 352 q 817 120 877 182 q 675 23 757 59 q 506 -14 594 -14 q 337 21 417 -14 q 197 115 256 55 q 102 260 137 174 q 66 445 66 347 q 102 624 66 538 q 196 770 137 709 q 337 868 256 831 q 506 905 418 905 z "},"Ó":{"ha":1015,"x_min":66,"x_max":948,"o":"m 423 1000 q 488 1073 423 1007 q 587 1164 553 1139 q 612 1168 595 1168 q 674 1127 674 1168 q 618 1071 674 1105 q 503 1012 562 1036 q 431 987 445 987 q 426 992 429 987 q 423 1000 423 996 m 486 859 q 378 836 427 859 q 297 776 330 813 q 243 688 265 739 q 211 585 220 638 q 201 475 201 531 q 223 317 201 395 q 285 175 245 239 q 388 72 325 111 q 528 33 452 33 q 635 55 587 33 q 716 116 684 78 q 771 204 749 153 q 804 309 794 254 q 814 419 814 363 q 791 577 814 499 q 729 718 769 654 q 625 820 688 781 q 486 859 562 859 m 506 905 q 675 870 595 905 q 817 777 756 836 q 912 630 877 717 q 948 445 948 544 q 912 267 948 352 q 817 120 877 182 q 675 23 757 59 q 506 -14 594 -14 q 337 21 417 -14 q 197 115 256 55 q 102 260 137 174 q 66 445 66 347 q 102 624 66 538 q 196 770 137 709 q 337 868 256 831 q 506 905 418 905 z "},"Ô":{"ha":1015,"x_min":66,"x_max":948,"o":"m 510 1166 q 526 1155 517 1166 q 597 1080 555 1123 q 665 1009 639 1037 q 661 994 665 1002 q 651 986 656 986 l 510 1073 q 368 986 404 1008 q 358 994 363 986 q 354 1009 354 1002 q 493 1155 467 1126 q 510 1166 503 1166 m 486 859 q 378 836 427 859 q 297 776 330 813 q 243 688 265 739 q 211 585 220 638 q 201 475 201 531 q 223 317 201 395 q 285 175 245 239 q 388 72 325 111 q 528 33 452 33 q 635 55 587 33 q 716 116 684 78 q 771 204 749 153 q 804 309 794 254 q 814 419 814 363 q 791 577 814 499 q 729 718 769 654 q 625 820 688 781 q 486 859 562 859 m 506 905 q 675 870 595 905 q 817 777 756 836 q 912 630 877 717 q 948 445 948 544 q 912 267 948 352 q 817 120 877 182 q 675 23 757 59 q 506 -14 594 -14 q 337 21 417 -14 q 197 115 256 55 q 102 260 137 174 q 66 445 66 347 q 102 624 66 538 q 196 770 137 709 q 337 868 256 831 q 506 905 418 905 z "},"Õ":{"ha":1015,"x_min":66,"x_max":948,"o":"m 439 1099 q 530 1069 477 1099 q 613 1037 588 1037 q 656 1048 637 1037 q 687 1074 675 1060 q 701 1088 699 1088 q 706 1083 704 1088 q 709 1074 709 1078 q 690 1026 709 1053 q 596 977 650 977 q 506 1006 559 977 q 495 1012 504 1007 q 484 1018 487 1017 q 474 1023 481 1019 q 463 1029 467 1027 q 453 1033 460 1030 q 443 1036 447 1035 q 433 1038 438 1037 q 422 1039 427 1039 q 387 1031 404 1039 q 362 1015 371 1024 q 346 997 353 1006 q 335 987 338 988 q 329 992 332 987 q 327 1002 327 998 q 346 1050 327 1024 q 439 1099 385 1099 m 486 859 q 378 836 427 859 q 297 776 330 813 q 243 688 265 739 q 211 585 220 638 q 201 475 201 531 q 223 317 201 395 q 285 175 245 239 q 388 72 325 111 q 528 33 452 33 q 635 55 587 33 q 716 116 684 78 q 771 204 749 153 q 804 309 794 254 q 814 419 814 363 q 791 577 814 499 q 729 718 769 654 q 625 820 688 781 q 486 859 562 859 m 506 905 q 675 870 595 905 q 817 777 756 836 q 912 630 877 717 q 948 445 948 544 q 912 267 948 352 q 817 120 877 182 q 675 23 757 59 q 506 -14 594 -14 q 337 21 417 -14 q 197 115 256 55 q 102 260 137 174 q 66 445 66 347 q 102 624 66 538 q 196 770 137 709 q 337 868 256 831 q 506 905 418 905 z "},"Ö":{"ha":1015,"x_min":66,"x_max":948,"o":"m 486 859 q 378 836 427 859 q 297 776 330 813 q 243 688 265 739 q 211 585 220 638 q 201 475 201 531 q 223 317 201 395 q 285 175 245 239 q 388 72 325 111 q 528 33 452 33 q 635 55 587 33 q 716 116 684 78 q 771 204 749 153 q 804 309 794 254 q 814 419 814 363 q 791 577 814 499 q 729 718 769 654 q 625 820 688 781 q 486 859 562 859 m 506 905 q 675 870 595 905 q 817 777 756 836 q 912 630 877 717 q 948 445 948 544 q 912 267 948 352 q 817 120 877 182 q 675 23 757 59 q 506 -14 594 -14 q 337 21 417 -14 q 197 115 256 55 q 102 260 137 174 q 66 445 66 347 q 102 624 66 538 q 196 770 137 709 q 337 868 256 831 q 506 905 418 905 m 583 1007 q 573 1017 583 1007 q 563 1055 563 1027 q 583 1103 563 1084 q 631 1123 602 1123 q 679 1103 659 1123 q 699 1055 699 1084 q 679 1007 699 1027 q 631 987 659 987 q 583 1007 602 987 m 337 1007 q 327 1017 337 1007 q 317 1055 317 1027 q 337 1103 317 1084 q 385 1123 357 1123 q 433 1103 414 1123 q 453 1055 453 1084 q 433 1007 453 1027 q 385 987 414 987 q 337 1007 357 987 z "},"×":{"ha":629,"x_min":75,"x_max":553,"o":"m 270 335 l 75 530 q 86 563 75 545 q 107 582 98 582 q 117 579 114 582 q 319 384 316 387 l 515 579 q 524 582 518 582 q 543 561 532 582 q 553 528 553 539 q 363 339 368 343 l 553 142 q 544 107 553 126 q 524 88 534 88 q 514 91 517 88 l 315 290 l 113 90 q 104 87 110 87 q 85 109 96 87 q 75 142 75 131 q 270 335 264 330 z "},"Ø":{"ha":1015,"x_min":66,"x_max":948,"o":"m 486 859 q 378 836 427 859 q 297 776 330 813 q 243 688 265 739 q 211 585 220 638 q 201 475 201 531 q 223 317 201 395 q 285 175 245 239 q 388 72 325 111 q 528 33 452 33 q 635 55 587 33 q 716 116 684 78 q 771 204 749 153 q 804 309 794 254 q 814 419 814 363 q 791 577 814 499 q 729 718 769 654 q 625 820 688 781 q 486 859 562 859 m 506 905 q 675 870 595 905 q 817 777 756 836 q 912 630 877 717 q 948 445 948 544 q 912 267 948 352 q 817 120 877 182 q 675 23 757 59 q 506 -14 594 -14 q 337 21 417 -14 q 197 115 256 55 q 102 260 137 174 q 66 445 66 347 q 102 624 66 538 q 196 770 137 709 q 337 868 256 831 q 506 905 418 905 m 766 905 q 793 891 777 902 q 806 875 810 880 l 239 -18 q 212 -3 227 -14 q 199 14 196 8 l 766 905 z "},"Ù":{"ha":981,"x_min":35,"x_max":966,"o":"m 570 1000 q 568 992 570 996 q 562 987 565 987 q 490 1012 549 987 q 376 1071 432 1036 q 319 1127 319 1105 q 382 1168 319 1168 q 406 1164 398 1168 q 505 1073 440 1139 q 570 1000 570 1007 m 200 891 q 359 898 220 891 q 363 878 363 892 q 359 859 363 864 q 303 852 338 859 q 265 837 268 846 q 258 736 258 815 l 258 401 q 325 152 258 235 q 511 73 389 73 q 774 372 768 73 l 774 739 q 772 800 774 781 q 760 833 770 818 q 719 851 755 842 q 663 860 682 860 q 657 880 658 867 q 660 899 657 894 q 810 892 795 892 q 860 893 838 892 q 907 897 881 895 q 956 899 932 899 q 956 860 966 882 q 896 852 937 860 q 850 833 856 844 q 839 800 841 819 q 836 741 836 782 l 836 374 q 743 87 836 179 q 482 -5 649 -5 q 240 84 334 -5 q 140 340 140 178 l 140 736 q 134 837 140 815 q 96 852 131 846 q 40 859 60 859 q 36 878 36 864 q 40 898 35 892 q 200 891 179 891 z "},"Ú":{"ha":981,"x_min":35,"x_max":966,"o":"m 454 1000 q 519 1073 454 1007 q 618 1164 584 1139 q 642 1168 626 1168 q 705 1127 705 1168 q 648 1071 705 1105 q 534 1012 592 1036 q 462 987 475 987 q 456 992 459 987 q 454 1000 454 996 m 200 891 q 359 898 220 891 q 363 878 363 892 q 359 859 363 864 q 303 852 338 859 q 265 837 268 846 q 258 736 258 815 l 258 401 q 325 152 258 235 q 511 73 389 73 q 774 372 768 73 l 774 739 q 772 800 774 781 q 760 833 770 818 q 719 851 755 842 q 663 860 682 860 q 657 880 658 867 q 660 899 657 894 q 810 892 795 892 q 860 893 838 892 q 907 897 881 895 q 956 899 932 899 q 956 860 966 882 q 896 852 937 860 q 850 833 856 844 q 839 800 841 819 q 836 741 836 782 l 836 374 q 743 87 836 179 q 482 -5 649 -5 q 240 84 334 -5 q 140 340 140 178 l 140 736 q 134 837 140 815 q 96 852 131 846 q 40 859 60 859 q 36 878 36 864 q 40 898 35 892 q 200 891 179 891 z "},"Û":{"ha":981,"x_min":35,"x_max":966,"o":"m 497 1166 q 513 1155 504 1166 q 584 1080 543 1123 q 652 1009 626 1037 q 648 994 652 1002 q 638 986 644 986 l 497 1073 q 355 986 391 1008 q 346 994 350 986 q 341 1009 341 1002 q 480 1155 454 1126 q 497 1166 490 1166 m 200 891 q 359 898 220 891 q 363 878 363 892 q 359 859 363 864 q 303 852 338 859 q 265 837 268 846 q 258 736 258 815 l 258 401 q 325 152 258 235 q 511 73 389 73 q 774 372 768 73 l 774 739 q 772 800 774 781 q 760 833 770 818 q 719 851 755 842 q 663 860 682 860 q 657 880 658 867 q 660 899 657 894 q 810 892 795 892 q 860 893 838 892 q 907 897 881 895 q 956 899 932 899 q 956 860 966 882 q 896 852 937 860 q 850 833 856 844 q 839 800 841 819 q 836 741 836 782 l 836 374 q 743 87 836 179 q 482 -5 649 -5 q 240 84 334 -5 q 140 340 140 178 l 140 736 q 134 837 140 815 q 96 852 131 846 q 40 859 60 859 q 36 878 36 864 q 40 898 35 892 q 200 891 179 891 z "},"Ü":{"ha":981,"x_min":35,"x_max":966,"o":"m 200 891 q 359 898 220 891 q 363 878 363 892 q 359 859 363 864 q 303 852 338 859 q 265 837 268 846 q 258 736 258 815 l 258 401 q 325 152 258 235 q 511 73 389 73 q 774 372 768 73 l 774 739 q 772 800 774 781 q 760 833 770 818 q 719 851 755 842 q 663 860 682 860 q 657 880 658 867 q 660 899 657 894 q 810 892 795 892 q 860 893 838 892 q 907 897 881 895 q 956 899 932 899 q 956 860 966 882 q 896 852 937 860 q 850 833 856 844 q 839 800 841 819 q 836 741 836 782 l 836 374 q 743 87 836 179 q 482 -5 649 -5 q 240 84 334 -5 q 140 340 140 178 l 140 736 q 134 837 140 815 q 96 852 131 846 q 40 859 60 859 q 36 878 36 864 q 40 898 35 892 q 200 891 179 891 m 570 1007 q 560 1017 570 1007 q 550 1055 550 1027 q 570 1103 550 1084 q 618 1123 589 1123 q 666 1103 646 1123 q 686 1055 686 1084 q 666 1007 686 1027 q 618 987 646 987 q 570 1007 589 987 m 324 1007 q 314 1017 324 1007 q 304 1055 304 1027 q 324 1103 304 1084 q 372 1123 344 1123 q 420 1103 401 1123 q 440 1055 440 1084 q 420 1007 440 1027 q 372 987 401 987 q 324 1007 344 987 z "},"Ý":{"ha":811,"x_min":-19,"x_max":820,"o":"m 393 1000 q 458 1073 393 1007 q 557 1164 524 1139 q 582 1168 566 1168 q 644 1127 644 1168 q 588 1071 644 1105 q 473 1012 532 1036 q 401 987 415 987 q 396 992 399 987 q 393 1000 393 996 m 354 157 l 354 362 q 345 400 354 381 q 245 578 302 477 q 152 743 188 679 q 112 800 131 780 q 62 837 92 820 q 23 852 46 846 q -14 859 0 859 q -19 876 -19 859 q -14 898 -19 892 q 42 895 9 897 q 100 892 75 893 q 156 891 126 891 q 330 898 194 891 q 332 875 332 892 q 327 859 332 859 q 297 856 314 859 q 263 842 280 852 q 245 815 245 831 q 262 774 245 801 l 450 449 q 553 645 496 532 q 627 800 610 759 q 631 821 631 810 q 624 836 631 829 q 594 850 616 844 q 536 857 571 857 q 532 876 533 857 q 533 897 531 894 q 669 890 659 890 q 724 891 701 890 q 774 894 747 892 q 818 897 800 896 q 819 874 820 890 q 815 857 818 857 q 795 856 806 857 q 764 851 785 855 q 724 834 743 846 q 694 803 705 822 q 480 408 653 730 q 473 366 473 396 l 472 157 q 479 57 472 79 q 517 41 481 47 q 572 35 552 35 q 577 16 576 30 q 572 -4 577 1 q 414 3 433 3 q 254 -4 393 3 q 249 16 249 1 q 254 35 250 30 q 309 41 274 35 q 347 57 345 47 q 354 157 354 79 z "},"Þ":{"ha":743,"x_min":57,"x_max":703,"o":"m 222 891 q 380 898 241 891 q 385 878 385 892 q 380 859 385 864 q 325 852 360 859 q 287 837 290 846 q 280 736 279 811 l 280 651 q 339 677 302 667 q 399 688 376 686 q 441 690 422 690 q 528 674 483 690 q 613 628 573 657 q 677 550 652 598 q 703 446 703 503 q 620 248 703 323 q 404 174 538 174 q 346 184 368 174 q 327 214 327 197 q 328 217 327 216 q 330 220 328 219 q 334 221 331 222 q 385 212 368 212 q 524 268 469 212 q 578 423 578 324 q 527 580 578 523 q 391 637 475 637 q 336 628 370 637 q 290 597 303 618 q 280 488 280 581 l 280 157 q 287 57 279 83 q 325 41 290 47 q 380 35 360 35 q 385 16 385 30 q 380 -4 385 1 q 222 3 241 3 q 62 -4 201 3 q 57 16 57 1 q 62 35 58 30 q 117 41 82 35 q 155 57 153 47 q 162 157 162 79 l 162 736 q 155 837 162 815 q 117 852 153 846 q 62 859 82 859 q 57 878 58 864 q 62 898 57 892 q 222 891 201 891 z "},"ß":{"ha":728,"x_min":34,"x_max":694,"o":"m 363 940 q 454 930 412 940 q 530 899 496 920 q 583 842 564 878 q 602 761 602 807 q 522 606 602 680 q 485 574 509 595 q 448 543 460 554 q 425 517 436 532 q 414 487 414 501 q 425 449 414 467 q 458 414 435 431 q 498 387 481 397 q 547 359 516 376 q 588 337 572 346 q 626 311 603 328 q 661 277 648 294 q 684 237 674 261 q 694 186 694 213 q 642 45 694 104 q 515 -14 591 -14 q 412 5 458 -14 q 355 45 366 24 q 355 62 355 57 q 401 123 360 123 q 414 120 408 123 q 426 111 420 117 q 436 99 432 104 q 446 83 439 94 q 456 67 452 73 q 517 28 481 28 q 578 58 555 28 q 602 138 602 88 q 593 179 602 161 q 565 212 585 197 q 531 237 546 228 q 487 262 516 246 q 462 275 467 272 q 439 288 457 278 q 415 303 421 298 q 395 319 409 308 q 375 338 380 330 q 359 358 369 346 q 346 382 350 371 q 339 409 342 394 q 336 441 336 425 q 346 481 336 461 q 368 514 356 501 q 401 548 379 526 q 435 583 424 570 q 500 745 500 655 q 465 854 500 812 q 367 895 431 895 q 315 885 338 895 q 279 854 293 874 q 256 812 265 834 q 242 758 247 789 q 237 702 238 727 q 235 644 235 677 l 235 157 q 242 57 235 79 q 279 41 245 47 q 333 35 313 35 q 337 16 337 30 q 333 -4 338 1 q 182 3 194 3 q 137 2 159 3 q 86 -1 115 1 q 39 -4 58 -3 q 34 16 34 1 q 39 35 35 30 q 90 41 58 35 q 124 57 121 47 q 131 157 131 79 l 131 530 l 52 530 q 45 543 45 530 q 60 563 45 546 q 81 586 75 581 l 131 586 l 131 594 q 166 756 131 675 q 255 888 201 837 q 363 940 310 940 z "},"à":{"ha":585,"x_min":50,"x_max":567,"o":"m 174 887 q 191 885 182 887 q 204 880 200 882 q 210 876 209 878 q 292 765 243 836 q 342 688 342 694 q 330 670 342 670 q 272 705 322 670 q 173 784 222 740 q 125 848 125 828 q 126 862 125 854 q 140 878 128 869 q 174 887 152 887 m 254 62 q 329 84 287 62 q 372 118 372 106 l 372 302 q 245 263 267 271 q 185 221 207 248 q 163 157 163 195 q 189 91 163 119 q 254 62 216 62 m 327 591 q 430 537 386 591 q 475 406 475 483 l 475 126 q 517 62 475 62 q 529 63 523 62 q 538 66 534 64 q 547 70 543 68 q 554 74 551 73 q 558 78 556 76 q 562 80 561 80 q 567 69 567 80 q 560 43 567 55 q 511 11 545 29 q 458 -8 477 -8 q 406 19 430 -8 q 376 80 382 47 q 298 25 356 60 q 209 -11 240 -11 q 96 34 142 -11 q 50 145 50 79 q 72 214 50 184 q 118 254 93 244 q 199 282 140 262 q 298 317 258 302 q 355 339 338 331 q 369 349 366 343 q 372 373 372 355 l 372 410 q 337 499 372 458 q 255 540 303 540 q 204 519 221 540 q 180 456 188 498 q 117 391 169 391 q 83 408 96 391 q 71 448 71 426 q 74 464 71 453 q 80 480 77 475 q 192 555 122 519 q 327 591 261 591 z "},"á":{"ha":585,"x_min":50,"x_max":567,"o":"m 372 887 q 405 878 393 887 q 419 862 417 869 q 420 848 420 854 q 372 784 420 828 q 273 705 323 740 q 216 670 223 670 q 203 688 203 670 q 253 765 203 694 q 335 876 302 836 q 341 880 336 878 q 354 885 345 882 q 372 887 363 887 m 254 62 q 329 84 287 62 q 372 118 372 106 l 372 302 q 245 263 267 271 q 185 221 207 248 q 163 157 163 195 q 189 91 163 119 q 254 62 216 62 m 327 591 q 430 537 386 591 q 475 406 475 483 l 475 126 q 517 62 475 62 q 529 63 523 62 q 538 66 534 64 q 547 70 543 68 q 554 74 551 73 q 558 78 556 76 q 562 80 561 80 q 567 69 567 80 q 560 43 567 55 q 511 11 545 29 q 458 -8 477 -8 q 406 19 430 -8 q 376 80 382 47 q 298 25 356 60 q 209 -11 240 -11 q 96 34 142 -11 q 50 145 50 79 q 72 214 50 184 q 118 254 93 244 q 199 282 140 262 q 298 317 258 302 q 355 339 338 331 q 369 349 366 343 q 372 373 372 355 l 372 410 q 337 499 372 458 q 255 540 303 540 q 204 519 221 540 q 180 456 188 498 q 117 391 169 391 q 83 408 96 391 q 71 448 71 426 q 74 464 71 453 q 80 480 77 475 q 192 555 122 519 q 327 591 261 591 z "},"â":{"ha":585,"x_min":50,"x_max":567,"o":"m 285 864 q 300 876 292 876 q 315 864 307 876 q 333 835 324 848 q 352 807 342 821 q 367 785 361 793 q 385 760 373 777 q 401 738 397 744 q 421 712 406 732 q 442 685 437 691 q 437 673 442 678 q 427 667 433 667 l 300 770 q 172 667 220 705 q 162 673 167 667 q 157 685 157 678 q 178 712 162 691 q 198 738 194 732 q 215 760 203 744 q 232 785 227 777 q 248 807 238 793 q 267 835 258 821 q 285 864 275 848 m 254 62 q 329 84 287 62 q 372 118 372 106 l 372 302 q 245 263 267 271 q 185 221 207 248 q 163 157 163 195 q 189 91 163 119 q 254 62 216 62 m 327 591 q 430 537 386 591 q 475 406 475 483 l 475 126 q 517 62 475 62 q 529 63 523 62 q 538 66 534 64 q 547 70 543 68 q 554 74 551 73 q 558 78 556 76 q 562 80 561 80 q 567 69 567 80 q 560 43 567 55 q 511 11 545 29 q 458 -8 477 -8 q 406 19 430 -8 q 376 80 382 47 q 298 25 356 60 q 209 -11 240 -11 q 96 34 142 -11 q 50 145 50 79 q 72 214 50 184 q 118 254 93 244 q 199 282 140 262 q 298 317 258 302 q 355 339 338 331 q 369 349 366 343 q 372 373 372 355 l 372 410 q 337 499 372 458 q 255 540 303 540 q 204 519 221 540 q 180 456 188 498 q 117 391 169 391 q 83 408 96 391 q 71 448 71 426 q 74 464 71 453 q 80 480 77 475 q 192 555 122 519 q 327 591 261 591 z "},"ã":{"ha":585,"x_min":50,"x_max":567,"o":"m 214 798 q 247 792 230 798 q 271 782 263 786 q 297 766 279 778 q 376 734 349 734 q 414 745 397 734 q 440 771 430 757 q 452 787 450 785 q 460 774 460 787 q 441 723 460 751 q 357 673 404 673 q 325 678 341 673 q 301 687 309 683 q 275 703 293 692 q 195 736 222 736 q 159 725 174 736 q 135 699 144 713 q 125 684 127 685 q 114 699 114 684 q 130 749 114 724 q 214 798 166 798 m 254 62 q 329 84 287 62 q 372 118 372 106 l 372 302 q 245 263 267 271 q 185 221 207 248 q 163 157 163 195 q 189 91 163 119 q 254 62 216 62 m 327 591 q 430 537 386 591 q 475 406 475 483 l 475 126 q 517 62 475 62 q 529 63 523 62 q 538 66 534 64 q 547 70 543 68 q 554 74 551 73 q 558 78 556 76 q 562 80 561 80 q 567 69 567 80 q 560 43 567 55 q 511 11 545 29 q 458 -8 477 -8 q 406 19 430 -8 q 376 80 382 47 q 298 25 356 60 q 209 -11 240 -11 q 96 34 142 -11 q 50 145 50 79 q 72 214 50 184 q 118 254 93 244 q 199 282 140 262 q 298 317 258 302 q 355 339 338 331 q 369 349 366 343 q 372 373 372 355 l 372 410 q 337 499 372 458 q 255 540 303 540 q 204 519 221 540 q 180 456 188 498 q 117 391 169 391 q 83 408 96 391 q 71 448 71 426 q 74 464 71 453 q 80 480 77 475 q 192 555 122 519 q 327 591 261 591 z "},"ä":{"ha":585,"x_min":50,"x_max":567,"o":"m 400 803 q 444 784 425 803 q 463 739 463 765 q 444 696 463 714 q 399 678 425 678 q 354 697 373 678 q 335 741 335 715 q 355 784 335 766 q 400 803 374 803 m 152 803 q 196 784 177 803 q 214 739 214 765 q 195 696 214 714 q 151 678 176 678 q 106 697 125 678 q 87 741 87 715 q 106 784 87 766 q 152 803 126 803 m 254 62 q 329 84 287 62 q 372 118 372 106 l 372 302 q 245 263 267 271 q 185 221 207 248 q 163 157 163 195 q 189 91 163 119 q 254 62 216 62 m 327 591 q 430 537 386 591 q 475 406 475 483 l 475 126 q 517 62 475 62 q 529 63 523 62 q 538 66 534 64 q 547 70 543 68 q 554 74 551 73 q 558 78 556 76 q 562 80 561 80 q 567 69 567 80 q 560 43 567 55 q 511 11 545 29 q 458 -8 477 -8 q 406 19 430 -8 q 376 80 382 47 q 298 25 356 60 q 209 -11 240 -11 q 96 34 142 -11 q 50 145 50 79 q 72 214 50 184 q 118 254 93 244 q 199 282 140 262 q 298 317 258 302 q 355 339 338 331 q 369 349 366 343 q 372 373 372 355 l 372 410 q 337 499 372 458 q 255 540 303 540 q 204 519 221 540 q 180 456 188 498 q 117 391 169 391 q 83 408 96 391 q 71 448 71 426 q 74 464 71 453 q 80 480 77 475 q 192 555 122 519 q 327 591 261 591 z "},"å":{"ha":585,"x_min":50,"x_max":567,"o":"m 251 849 q 240 838 251 849 q 229 796 229 827 q 251 743 229 765 q 304 720 273 720 q 356 742 334 720 q 377 796 377 764 q 356 849 377 827 q 304 871 334 871 q 251 849 273 871 m 184 796 q 220 881 184 846 q 304 917 255 917 q 387 882 353 917 q 422 796 422 846 q 387 710 422 746 q 304 674 353 674 q 220 710 255 674 q 184 796 184 746 m 254 62 q 329 84 287 62 q 372 118 372 106 l 372 302 q 245 263 267 271 q 185 221 207 248 q 163 157 163 195 q 189 91 163 119 q 254 62 216 62 m 327 591 q 430 537 386 591 q 475 406 475 483 l 475 126 q 517 62 475 62 q 529 63 523 62 q 538 66 534 64 q 547 70 543 68 q 554 74 551 73 q 558 78 556 76 q 562 80 561 80 q 567 69 567 80 q 560 43 567 55 q 511 11 545 29 q 458 -8 477 -8 q 406 19 430 -8 q 376 80 382 47 q 298 25 356 60 q 209 -11 240 -11 q 96 34 142 -11 q 50 145 50 79 q 72 214 50 184 q 118 254 93 244 q 199 282 140 262 q 298 317 258 302 q 355 339 338 331 q 369 349 366 343 q 372 373 372 355 l 372 410 q 337 499 372 458 q 255 540 303 540 q 204 519 221 540 q 180 456 188 498 q 117 391 169 391 q 83 408 96 391 q 71 448 71 426 q 74 464 71 453 q 80 480 77 475 q 192 555 122 519 q 327 591 261 591 z "},"æ":{"ha":886,"x_min":50,"x_max":834,"o":"m 245 263 q 185 222 208 250 q 163 157 163 195 q 189 91 163 119 q 254 62 216 62 q 336 87 293 62 q 378 141 378 112 q 354 262 362 176 q 351 298 351 292 q 295 280 333 292 q 245 263 256 267 m 601 545 q 543 529 569 545 q 501 489 516 513 q 476 443 486 466 q 462 403 466 419 q 460 387 458 387 l 681 387 q 712 418 710 387 q 707 452 713 431 q 688 494 701 472 q 653 530 676 515 q 601 545 630 545 m 624 594 q 707 580 670 594 q 766 545 745 566 q 802 498 788 524 q 822 450 817 471 q 827 410 827 428 q 820 362 827 378 q 795 346 813 347 q 619 340 767 344 q 453 336 471 336 q 514 144 450 212 q 674 76 578 76 q 763 100 723 76 q 823 148 802 123 q 827 145 824 148 q 832 138 829 143 q 834 129 834 134 q 826 104 834 118 q 799 69 815 87 q 758 33 783 52 q 700 1 734 14 q 628 -11 665 -11 q 500 19 562 -11 q 404 104 437 49 q 308 32 374 74 q 209 -11 241 -11 q 96 34 142 -11 q 50 145 50 79 q 68 211 50 184 q 113 252 86 239 q 241 308 151 271 q 338 347 331 344 q 351 355 348 351 q 357 366 355 358 q 359 410 359 378 q 331 499 359 459 q 255 540 302 540 q 204 518 221 540 q 180 454 188 497 q 159 406 174 420 q 117 391 143 391 q 83 408 96 391 q 71 448 71 426 q 80 480 71 467 q 188 553 116 515 q 324 591 259 591 q 398 567 365 591 q 450 507 431 543 q 527 568 482 541 q 624 594 572 594 z "},"ç":{"ha":574,"x_min":53,"x_max":533,"o":"m 327 -31 l 361 -31 q 404 -51 387 -31 q 420 -98 420 -71 q 384 -173 420 -144 q 293 -201 347 -201 q 247 -189 265 -201 q 245 -181 247 -187 q 243 -170 243 -174 q 249 -157 243 -163 q 262 -151 256 -151 q 285 -159 269 -151 q 312 -168 300 -168 q 355 -155 339 -168 q 370 -123 370 -142 q 357 -89 370 -101 q 328 -77 344 -77 q 293 -87 317 -77 q 284 -80 290 -87 q 279 -69 277 -73 q 301 -35 285 -60 q 323 0 317 -10 l 351 0 l 327 -31 m 518 524 q 503 474 518 490 q 467 458 487 458 q 439 467 453 458 q 411 490 426 476 q 388 509 395 504 q 350 529 365 524 q 311 534 336 534 q 205 472 252 534 q 159 308 159 409 q 220 136 159 194 q 378 79 281 79 q 464 101 427 79 q 522 148 501 123 q 526 145 523 148 q 531 138 528 143 q 533 129 533 134 q 525 104 533 118 q 498 69 514 87 q 457 33 481 52 q 398 1 433 14 q 327 -11 364 -11 q 184 28 248 -11 q 86 130 120 68 q 53 263 53 192 q 74 373 53 320 q 129 465 94 426 q 205 534 163 505 q 294 579 248 564 q 382 594 340 594 q 505 562 456 594 q 514 545 509 557 q 518 524 518 533 z "},"è":{"ha":583,"x_min":54,"x_max":532,"o":"m 195 887 q 213 885 204 887 q 226 880 222 882 q 232 876 231 878 q 314 765 264 836 q 363 688 363 694 q 351 670 363 670 q 294 705 344 670 q 195 784 243 740 q 146 848 146 828 q 148 862 146 854 q 162 878 150 869 q 195 887 174 887 m 157 387 q 378 387 157 387 q 410 418 408 387 q 404 452 410 431 q 386 494 398 472 q 351 530 374 515 q 298 545 328 545 q 240 529 267 545 q 198 489 214 513 q 173 443 183 466 q 160 403 163 419 q 157 387 156 387 m 151 336 q 212 144 148 212 q 372 76 276 76 q 460 100 420 76 q 521 148 500 123 q 524 145 522 148 q 529 138 527 143 q 532 129 532 134 q 524 104 532 118 q 496 69 513 87 q 456 33 480 52 q 397 1 431 14 q 326 -11 363 -11 q 131 70 207 -11 q 54 271 54 150 q 79 398 54 337 q 143 501 104 459 q 229 569 182 543 q 321 594 277 594 q 405 580 368 594 q 464 545 442 566 q 500 498 486 524 q 519 450 514 471 q 525 410 525 428 q 518 362 525 378 q 492 346 511 347 q 316 340 465 344 q 151 336 168 336 z "},"é":{"ha":583,"x_min":54,"x_max":532,"o":"m 407 887 q 440 878 429 887 q 454 862 452 869 q 456 848 456 854 q 407 784 456 828 q 309 705 359 740 q 251 670 258 670 q 239 688 239 670 q 288 765 239 694 q 370 876 338 836 q 376 880 372 878 q 389 885 380 882 q 407 887 398 887 m 157 387 q 378 387 157 387 q 410 418 408 387 q 404 452 410 431 q 386 494 398 472 q 351 530 374 515 q 298 545 328 545 q 240 529 267 545 q 198 489 214 513 q 173 443 183 466 q 160 403 163 419 q 157 387 156 387 m 151 336 q 212 144 148 212 q 372 76 276 76 q 460 100 420 76 q 521 148 500 123 q 524 145 522 148 q 529 138 527 143 q 532 129 532 134 q 524 104 532 118 q 496 69 513 87 q 456 33 480 52 q 397 1 431 14 q 326 -11 363 -11 q 131 70 207 -11 q 54 271 54 150 q 79 398 54 337 q 143 501 104 459 q 229 569 182 543 q 321 594 277 594 q 405 580 368 594 q 464 545 442 566 q 500 498 486 524 q 519 450 514 471 q 525 410 525 428 q 518 362 525 378 q 492 346 511 347 q 316 340 465 344 q 151 336 168 336 z "},"ê":{"ha":583,"x_min":54,"x_max":532,"o":"m 288 864 q 302 876 295 876 q 317 864 310 876 q 336 835 327 848 q 354 807 345 821 q 370 785 364 793 q 388 760 376 777 q 404 738 399 744 q 424 712 408 732 q 445 685 440 691 q 440 673 445 678 q 430 667 435 667 l 302 770 q 175 667 222 705 q 165 673 170 667 q 160 685 160 678 q 181 712 165 691 q 201 738 197 732 q 217 760 205 744 q 235 785 229 777 q 251 807 241 793 q 269 835 260 821 q 288 864 278 848 m 157 387 q 378 387 157 387 q 410 418 408 387 q 404 452 410 431 q 386 494 398 472 q 351 530 374 515 q 298 545 328 545 q 240 529 267 545 q 198 489 214 513 q 173 443 183 466 q 160 403 163 419 q 157 387 156 387 m 151 336 q 212 144 148 212 q 372 76 276 76 q 460 100 420 76 q 521 148 500 123 q 524 145 522 148 q 529 138 527 143 q 532 129 532 134 q 524 104 532 118 q 496 69 513 87 q 456 33 480 52 q 397 1 431 14 q 326 -11 363 -11 q 131 70 207 -11 q 54 271 54 150 q 79 398 54 337 q 143 501 104 459 q 229 569 182 543 q 321 594 277 594 q 405 580 368 594 q 464 545 442 566 q 500 498 486 524 q 519 450 514 471 q 525 410 525 428 q 518 362 525 378 q 492 346 511 347 q 316 340 465 344 q 151 336 168 336 z "},"ë":{"ha":583,"x_min":54,"x_max":532,"o":"m 438 803 q 482 784 463 803 q 500 739 500 765 q 481 696 500 714 q 437 678 463 678 q 392 697 411 678 q 373 741 373 715 q 393 784 373 766 q 438 803 412 803 m 190 803 q 234 784 215 803 q 252 739 252 765 q 233 696 252 714 q 189 678 214 678 q 144 697 163 678 q 125 741 125 715 q 144 784 125 766 q 190 803 164 803 m 157 387 q 378 387 157 387 q 410 418 408 387 q 404 452 410 431 q 386 494 398 472 q 351 530 374 515 q 298 545 328 545 q 240 529 267 545 q 198 489 214 513 q 173 443 183 466 q 160 403 163 419 q 157 387 156 387 m 151 336 q 212 144 148 212 q 372 76 276 76 q 460 100 420 76 q 521 148 500 123 q 524 145 522 148 q 529 138 527 143 q 532 129 532 134 q 524 104 532 118 q 496 69 513 87 q 456 33 480 52 q 397 1 431 14 q 326 -11 363 -11 q 131 70 207 -11 q 54 271 54 150 q 79 398 54 337 q 143 501 104 459 q 229 569 182 543 q 321 594 277 594 q 405 580 368 594 q 464 545 442 566 q 500 498 486 524 q 519 450 514 471 q 525 410 525 428 q 518 362 525 378 q 492 346 511 347 q 316 340 465 344 q 151 336 168 336 z "},"ì":{"ha":366,"x_min":28,"x_max":343,"o":"m 77 887 q 94 885 85 887 q 107 880 103 882 q 113 876 112 878 q 195 765 146 836 q 245 688 245 694 q 233 670 245 670 q 175 705 225 670 q 76 784 125 740 q 28 848 28 828 q 30 862 28 854 q 43 878 31 869 q 77 887 55 887 m 246 441 l 246 157 q 253 57 246 79 q 287 41 256 47 q 338 35 319 35 q 343 16 342 30 q 338 -4 343 1 q 193 3 199 3 q 148 2 170 3 q 97 -1 125 1 q 50 -4 68 -3 q 45 16 45 1 q 50 35 45 30 q 101 41 69 35 q 135 57 132 47 q 142 157 140 74 l 142 410 q 135 480 142 464 q 109 496 131 490 q 73 504 87 503 q 47 505 58 505 q 44 521 44 507 q 47 540 43 534 q 241 597 163 555 q 251 589 245 597 q 256 575 256 581 q 246 486 246 509 l 246 441 z "},"í":{"ha":366,"x_min":43,"x_max":343,"o":"m 281 887 q 315 878 303 887 q 329 862 327 869 q 330 848 330 854 q 282 784 330 828 q 183 705 233 740 q 125 670 133 670 q 113 688 113 670 q 163 765 113 694 q 245 876 212 836 q 251 880 246 878 q 264 885 255 882 q 281 887 273 887 m 246 441 l 246 157 q 253 57 246 79 q 287 41 256 47 q 338 35 319 35 q 343 16 342 30 q 338 -4 343 1 q 193 3 199 3 q 148 2 170 3 q 97 -1 125 1 q 50 -4 68 -3 q 45 16 45 1 q 50 35 45 30 q 101 41 69 35 q 135 57 132 47 q 142 157 140 74 l 142 410 q 135 480 142 464 q 109 496 131 490 q 73 504 87 503 q 47 505 58 505 q 44 521 44 507 q 47 540 43 534 q 241 597 163 555 q 251 589 245 597 q 256 575 256 581 q 246 486 246 509 l 246 441 z "},"î":{"ha":366,"x_min":43,"x_max":353,"o":"m 196 864 q 211 876 203 876 q 226 864 218 876 q 244 835 235 848 q 263 807 253 821 q 278 785 273 793 q 296 760 284 777 q 312 738 308 744 q 333 712 317 732 q 353 685 349 691 q 349 673 353 678 q 338 667 344 667 l 211 770 q 83 667 131 705 q 73 673 78 667 q 68 685 68 678 q 89 712 73 691 q 110 738 105 732 q 126 760 114 744 q 143 785 138 777 q 159 807 149 793 q 178 835 169 821 q 196 864 186 848 m 246 441 l 246 157 q 253 57 246 79 q 287 41 256 47 q 338 35 319 35 q 343 16 342 30 q 338 -4 343 1 q 193 3 199 3 q 148 2 170 3 q 97 -1 125 1 q 50 -4 68 -3 q 45 16 45 1 q 50 35 45 30 q 101 41 69 35 q 135 57 132 47 q 142 157 140 74 l 142 410 q 135 480 142 464 q 109 496 131 490 q 73 504 87 503 q 47 505 58 505 q 44 521 44 507 q 47 540 43 534 q 241 597 163 555 q 251 589 245 597 q 256 575 256 581 q 246 486 246 509 l 246 441 z "},"ï":{"ha":369,"x_min":11,"x_max":363,"o":"m 246 441 l 246 157 q 253 57 246 79 q 287 41 256 47 q 338 35 319 35 q 343 16 342 30 q 338 -4 343 1 q 193 3 199 3 q 148 2 170 3 q 97 -1 125 1 q 50 -4 68 -3 q 45 16 45 1 q 50 35 45 30 q 101 41 69 35 q 135 57 132 47 q 142 157 140 74 l 142 410 q 135 480 142 464 q 109 496 131 490 q 73 504 87 503 q 47 505 58 505 q 44 521 44 507 q 47 540 43 534 q 241 597 163 555 q 251 589 245 597 q 256 575 256 581 q 246 486 246 509 l 246 441 m 297 807 q 344 787 324 807 q 363 739 363 767 q 343 693 363 712 q 296 674 323 674 q 248 694 268 674 q 228 741 228 713 q 249 787 228 768 q 297 807 269 807 m 80 807 q 127 787 107 807 q 146 739 146 767 q 126 693 146 712 q 79 674 106 674 q 31 694 51 674 q 11 741 11 713 q 32 787 11 768 q 80 807 52 807 z "},"ð":{"ha":701,"x_min":54,"x_max":627,"o":"m 335 595 q 450 574 414 595 q 427 629 437 608 q 390 692 417 651 q 330 765 362 734 q 310 783 321 773 l 174 690 q 154 713 164 697 q 151 734 144 728 l 269 814 q 239 834 255 823 q 110 901 182 871 q 116 921 110 909 q 129 933 121 933 q 308 854 218 913 q 319 848 314 851 l 469 948 q 490 927 479 942 q 494 906 500 911 l 361 817 q 471 713 420 771 q 585 532 543 630 q 627 335 627 435 q 603 189 627 255 q 541 80 580 123 q 451 14 501 37 q 347 -9 401 -9 q 134 75 213 -9 q 54 286 54 160 q 72 396 54 342 q 124 495 90 450 q 212 568 157 541 q 335 595 267 595 m 317 551 q 249 531 278 551 q 203 476 220 511 q 179 399 186 441 q 171 308 171 357 q 193 178 171 240 q 256 76 214 117 q 351 35 298 35 q 469 102 429 35 q 509 274 509 169 q 501 376 509 328 q 481 446 493 425 q 317 551 427 551 z "},"ñ":{"ha":722,"x_min":43,"x_max":709,"o":"m 287 800 q 319 794 302 800 q 343 785 336 789 q 370 769 351 781 q 448 736 421 736 q 486 748 470 736 q 512 774 503 760 q 524 789 522 788 q 532 777 532 789 q 513 726 532 754 q 429 675 476 675 q 398 681 414 675 q 374 690 382 686 q 348 705 366 694 q 268 739 294 739 q 231 727 246 739 q 208 702 216 715 q 197 686 199 688 q 186 701 186 686 q 203 751 186 727 q 287 800 239 800 m 437 594 q 512 583 481 594 q 562 550 543 571 q 593 492 582 529 q 608 412 604 456 q 612 307 612 369 l 612 157 q 619 57 612 79 q 653 41 622 47 q 705 35 685 35 q 709 16 709 30 q 705 -4 709 1 q 559 3 566 3 q 514 2 536 3 q 463 -1 492 1 q 416 -4 435 -3 q 411 16 411 1 q 416 35 412 30 q 467 41 435 35 q 501 57 498 47 q 508 157 508 79 l 508 293 q 480 468 508 421 q 375 515 453 515 q 320 499 352 515 q 268 465 289 483 q 246 441 246 448 l 246 157 q 253 57 246 79 q 287 41 256 47 q 338 35 319 35 q 343 16 342 30 q 338 -4 343 1 q 193 3 199 3 q 148 2 170 3 q 97 -1 125 1 q 50 -4 68 -3 q 45 16 45 1 q 50 35 45 30 q 101 41 69 35 q 135 57 132 47 q 142 157 142 79 l 142 404 q 135 480 142 464 q 109 496 131 490 q 73 504 87 503 q 47 505 58 505 q 44 521 44 507 q 47 540 43 534 q 241 597 163 555 q 251 589 245 597 q 256 575 256 581 q 248 498 248 518 q 250 492 248 492 q 254 495 252 492 q 338 559 281 525 q 437 594 394 594 z "},"ò":{"ha":690,"x_min":56,"x_max":635,"o":"m 264 887 q 282 885 273 887 q 295 880 291 882 q 301 876 300 878 q 383 765 334 836 q 433 688 433 694 q 420 670 433 670 q 363 705 413 670 q 264 784 313 740 q 216 848 216 828 q 217 862 216 854 q 231 878 219 869 q 264 887 243 887 m 330 551 q 238 515 275 551 q 187 429 201 480 q 172 316 172 378 q 193 185 172 248 q 258 79 214 122 q 361 35 302 35 q 452 71 416 35 q 504 156 489 106 q 518 269 518 207 q 497 400 518 336 q 431 507 475 463 q 330 551 387 551 m 345 595 q 556 512 477 595 q 635 300 635 429 q 552 79 635 168 q 347 -9 470 -9 q 135 75 215 -9 q 56 289 56 159 q 138 508 56 420 q 345 595 221 595 z "},"ó":{"ha":690,"x_min":56,"x_max":635,"o":"m 457 887 q 491 878 479 887 q 504 862 503 869 q 506 848 506 854 q 457 784 506 828 q 359 705 409 740 q 301 670 309 670 q 289 688 289 670 q 338 765 289 694 q 420 876 388 836 q 426 880 422 878 q 439 885 431 882 q 457 887 448 887 m 330 551 q 238 515 275 551 q 187 429 201 480 q 172 316 172 378 q 193 185 172 248 q 258 79 214 122 q 361 35 302 35 q 452 71 416 35 q 504 156 489 106 q 518 269 518 207 q 497 400 518 336 q 431 507 475 463 q 330 551 387 551 m 345 595 q 556 512 477 595 q 635 300 635 429 q 552 79 635 168 q 347 -9 470 -9 q 135 75 215 -9 q 56 289 56 159 q 138 508 56 420 q 345 595 221 595 z "},"ô":{"ha":690,"x_min":56,"x_max":635,"o":"m 334 864 q 349 876 341 876 q 363 864 356 876 q 382 835 373 848 q 400 807 391 821 q 416 785 410 793 q 434 760 422 777 q 450 738 446 744 q 470 712 454 732 q 491 685 486 691 q 486 673 491 678 q 476 667 481 667 l 349 770 q 221 667 269 705 q 211 673 216 667 q 206 685 206 678 q 227 712 211 691 q 247 738 243 732 q 263 760 252 744 q 281 785 275 777 q 297 807 287 793 q 315 835 307 821 q 334 864 324 848 m 330 551 q 238 515 275 551 q 187 429 201 480 q 172 316 172 378 q 193 185 172 248 q 258 79 214 122 q 361 35 302 35 q 452 71 416 35 q 504 156 489 106 q 518 269 518 207 q 497 400 518 336 q 431 507 475 463 q 330 551 387 551 m 345 595 q 556 512 477 595 q 635 300 635 429 q 552 79 635 168 q 347 -9 470 -9 q 135 75 215 -9 q 56 289 56 159 q 138 508 56 420 q 345 595 221 595 z "},"õ":{"ha":690,"x_min":56,"x_max":635,"o":"m 279 799 q 312 793 295 799 q 336 783 328 787 q 362 768 344 779 q 441 735 414 735 q 479 747 463 735 q 505 772 495 758 q 517 788 515 787 q 525 776 525 788 q 506 724 525 753 q 422 674 469 674 q 390 679 406 674 q 366 689 374 684 q 340 704 358 693 q 260 738 287 738 q 224 726 239 738 q 200 700 209 714 q 190 685 192 686 q 179 700 179 685 q 195 750 179 726 q 279 799 231 799 m 330 551 q 238 515 275 551 q 187 429 201 480 q 172 316 172 378 q 193 185 172 248 q 258 79 214 122 q 361 35 302 35 q 452 71 416 35 q 504 156 489 106 q 518 269 518 207 q 497 400 518 336 q 431 507 475 463 q 330 551 387 551 m 345 595 q 556 512 477 595 q 635 300 635 429 q 552 79 635 168 q 347 -9 470 -9 q 135 75 215 -9 q 56 289 56 159 q 138 508 56 420 q 345 595 221 595 z "},"ö":{"ha":690,"x_min":56,"x_max":635,"o":"m 471 803 q 514 784 496 803 q 533 739 533 765 q 514 696 533 714 q 469 678 495 678 q 425 697 444 678 q 406 741 406 715 q 425 784 406 766 q 471 803 445 803 m 222 803 q 266 784 248 803 q 285 739 285 765 q 266 696 285 714 q 221 678 247 678 q 176 697 195 678 q 157 741 157 715 q 177 784 157 766 q 222 803 197 803 m 330 551 q 238 515 275 551 q 187 429 201 480 q 172 316 172 378 q 193 185 172 248 q 258 79 214 122 q 361 35 302 35 q 452 71 416 35 q 504 156 489 106 q 518 269 518 207 q 497 400 518 336 q 431 507 475 463 q 330 551 387 551 m 345 595 q 556 512 477 595 q 635 300 635 429 q 552 79 635 168 q 347 -9 470 -9 q 135 75 215 -9 q 56 289 56 159 q 138 508 56 420 q 345 595 221 595 z "},"÷":{"ha":812,"x_min":81,"x_max":732,"o":"m 361 26 q 352 36 361 26 q 342 75 342 46 q 361 123 342 103 q 410 142 381 142 q 458 123 438 142 q 477 75 477 103 q 458 26 477 46 q 410 7 438 7 q 361 26 381 7 m 361 546 q 352 556 361 546 q 342 594 342 566 q 361 642 342 623 q 410 662 381 662 q 458 642 438 662 q 477 594 477 623 q 458 546 477 566 q 410 526 438 526 q 361 546 381 526 m 90 297 q 81 311 81 297 q 88 343 81 320 q 104 373 95 366 l 720 373 q 728 369 724 373 q 732 357 732 365 q 726 323 732 340 q 711 297 719 305 l 90 297 z "},"ø":{"ha":690,"x_min":57,"x_max":636,"o":"m 331 551 q 239 515 276 551 q 188 429 203 480 q 174 316 174 378 q 195 185 174 248 q 260 79 216 122 q 362 35 304 35 q 454 71 417 35 q 505 156 490 106 q 519 269 519 207 q 498 400 519 336 q 433 507 477 463 q 331 551 389 551 m 346 595 q 557 512 478 595 q 636 300 636 429 q 554 79 636 168 q 349 -9 471 -9 q 137 75 216 -9 q 57 289 57 159 q 140 508 57 420 q 346 595 222 595 m 175 -11 q 163 -5 168 -8 q 151 2 159 -3 q 140 11 144 7 q 138 18 137 15 l 505 593 q 530 579 517 587 q 541 566 544 571 l 175 -11 z "},"ù":{"ha":699,"x_min":18,"x_max":672,"o":"m 224 887 q 242 885 233 887 q 255 880 251 882 q 261 876 260 878 q 343 765 294 836 q 393 688 393 694 q 380 670 393 670 q 323 705 373 670 q 224 784 273 740 q 176 848 176 828 q 177 862 176 854 q 191 878 179 869 q 224 887 203 887 m 474 434 q 463 507 474 487 q 387 534 448 534 q 384 551 384 538 q 387 570 383 564 q 573 597 498 574 q 583 584 578 597 q 588 564 588 570 q 578 476 578 545 l 578 414 l 578 191 q 588 88 578 132 q 603 74 590 79 q 629 67 616 68 q 655 64 642 65 q 668 64 667 64 q 672 49 672 62 q 669 36 672 45 q 661 27 665 27 q 616 22 642 26 q 569 12 591 18 q 528 1 547 7 q 496 -7 509 -4 l 485 -11 q 477 -4 480 -11 q 474 11 474 3 l 474 73 l 471 80 q 384 19 440 47 q 279 -9 328 -9 q 206 8 237 -9 q 157 52 175 26 q 128 117 139 79 q 113 188 117 155 q 109 260 109 222 l 109 434 q 98 507 109 487 q 22 534 83 534 q 19 551 19 538 q 22 570 18 564 q 208 597 134 574 q 218 586 213 597 q 223 570 223 576 q 214 476 214 551 l 214 418 l 214 277 q 246 117 214 168 q 349 66 279 66 q 434 91 393 66 q 474 141 475 116 l 474 434 z "},"ú":{"ha":699,"x_min":18,"x_max":672,"o":"m 466 887 q 499 878 488 887 q 513 862 511 869 q 515 848 515 854 q 466 784 515 828 q 368 705 418 740 q 310 670 317 670 q 298 688 298 670 q 347 765 298 694 q 429 876 397 836 q 435 880 431 878 q 448 885 439 882 q 466 887 457 887 m 474 434 q 463 507 474 487 q 387 534 448 534 q 384 551 384 538 q 387 570 383 564 q 573 597 498 574 q 583 584 578 597 q 588 564 588 570 q 578 476 578 545 l 578 414 l 578 191 q 588 88 578 132 q 603 74 590 79 q 629 67 616 68 q 655 64 642 65 q 668 64 667 64 q 672 49 672 62 q 669 36 672 45 q 661 27 665 27 q 616 22 642 26 q 569 12 591 18 q 528 1 547 7 q 496 -7 509 -4 l 485 -11 q 477 -4 480 -11 q 474 11 474 3 l 474 73 l 471 80 q 384 19 440 47 q 279 -9 328 -9 q 206 8 237 -9 q 157 52 175 26 q 128 117 139 79 q 113 188 117 155 q 109 260 109 222 l 109 434 q 98 507 109 487 q 22 534 83 534 q 19 551 19 538 q 22 570 18 564 q 208 597 134 574 q 218 586 213 597 q 223 570 223 576 q 214 476 214 551 l 214 418 l 214 277 q 246 117 214 168 q 349 66 279 66 q 434 91 393 66 q 474 141 475 116 l 474 434 z "},"û":{"ha":699,"x_min":18,"x_max":672,"o":"m 330 864 q 345 876 338 876 q 360 864 353 876 q 378 835 370 848 q 397 807 387 821 q 413 785 407 793 q 430 760 418 777 q 447 738 442 744 q 467 712 451 732 q 488 685 483 691 q 483 673 488 678 q 473 667 478 667 l 345 770 q 218 667 265 705 q 208 673 212 667 q 203 685 203 678 q 223 712 208 691 q 244 738 239 732 q 260 760 248 744 q 278 785 272 777 q 293 807 283 793 q 312 835 303 821 q 330 864 321 848 m 474 434 q 463 507 474 487 q 387 534 448 534 q 384 551 384 538 q 387 570 383 564 q 573 597 498 574 q 583 584 578 597 q 588 564 588 570 q 578 476 578 545 l 578 414 l 578 191 q 588 88 578 132 q 603 74 590 79 q 629 67 616 68 q 655 64 642 65 q 668 64 667 64 q 672 49 672 62 q 669 36 672 45 q 661 27 665 27 q 616 22 642 26 q 569 12 591 18 q 528 1 547 7 q 496 -7 509 -4 l 485 -11 q 477 -4 480 -11 q 474 11 474 3 l 474 73 l 471 80 q 384 19 440 47 q 279 -9 328 -9 q 206 8 237 -9 q 157 52 175 26 q 128 117 139 79 q 113 188 117 155 q 109 260 109 222 l 109 434 q 98 507 109 487 q 22 534 83 534 q 19 551 19 538 q 22 570 18 564 q 208 597 134 574 q 218 586 213 597 q 223 570 223 576 q 214 476 214 551 l 214 418 l 214 277 q 246 117 214 168 q 349 66 279 66 q 434 91 393 66 q 474 141 475 116 l 474 434 z "},"ü":{"ha":699,"x_min":18,"x_max":672,"o":"m 456 803 q 500 784 481 803 q 519 739 519 765 q 500 696 519 714 q 455 678 481 678 q 410 697 429 678 q 391 741 391 715 q 411 784 391 766 q 456 803 431 803 m 208 803 q 252 784 233 803 q 271 739 271 765 q 252 696 271 714 q 207 678 233 678 q 162 697 181 678 q 143 741 143 715 q 163 784 143 766 q 208 803 182 803 m 474 434 q 463 507 474 487 q 387 534 448 534 q 384 551 384 538 q 387 570 383 564 q 573 597 498 574 q 583 584 578 597 q 588 564 588 570 q 578 476 578 545 l 578 414 l 578 191 q 588 88 578 132 q 603 74 590 79 q 629 67 616 68 q 655 64 642 65 q 668 64 667 64 q 672 49 672 62 q 669 36 672 45 q 661 27 665 27 q 616 22 642 26 q 569 12 591 18 q 528 1 547 7 q 496 -7 509 -4 l 485 -11 q 477 -4 480 -11 q 474 11 474 3 l 474 73 l 471 80 q 384 19 440 47 q 279 -9 328 -9 q 206 8 237 -9 q 157 52 175 26 q 128 117 139 79 q 113 188 117 155 q 109 260 109 222 l 109 434 q 98 507 109 487 q 22 534 83 534 q 19 551 19 538 q 22 570 18 564 q 208 597 134 574 q 218 586 213 597 q 223 570 223 576 q 214 476 214 551 l 214 418 l 214 277 q 246 117 214 168 q 349 66 279 66 q 434 91 393 66 q 474 141 475 116 l 474 434 z "},"ý":{"ha":636,"x_min":0,"x_max":637,"o":"m 482 887 q 516 878 504 887 q 529 862 528 869 q 531 848 531 854 q 483 784 531 828 q 384 705 434 740 q 326 670 334 670 q 314 688 314 670 q 363 765 314 694 q 446 876 413 836 q 451 880 447 878 q 465 885 456 882 q 482 887 473 887 m 138 576 q 273 583 216 576 q 274 561 276 577 q 268 544 273 544 q 246 543 259 544 q 217 535 233 541 q 201 521 201 530 q 203 515 201 518 l 347 149 q 467 457 416 330 q 475 500 475 477 q 454 532 475 521 q 397 544 432 544 q 392 561 392 544 q 397 583 392 578 q 519 576 448 576 q 633 583 565 576 q 635 561 637 577 q 629 544 633 544 q 582 533 611 544 q 543 498 553 522 q 340 8 398 152 q 311 -68 333 -8 q 271 -164 288 -127 q 232 -233 254 -201 q 114 -309 180 -309 q 55 -251 55 -309 q 71 -212 55 -231 q 156 -198 125 -212 q 224 -134 186 -185 q 262 -64 239 -115 q 290 3 286 -12 q 77 517 154 349 q 2 544 64 544 q 0 563 0 544 q 2 583 0 581 q 138 576 66 576 z "},"þ":{"ha":671,"x_min":0,"x_max":619,"o":"m 374 594 q 482 567 433 594 q 560 498 531 541 q 604 408 589 455 q 619 315 619 360 q 591 190 619 251 q 518 86 563 130 q 416 16 473 42 q 302 -11 359 -11 q 207 4 254 -11 q 201 -14 201 -3 l 201 -145 q 208 -245 201 -224 q 242 -261 211 -255 q 294 -267 274 -267 q 298 -287 298 -273 q 294 -307 298 -301 q 149 -300 155 -300 q 103 -301 125 -300 q 52 -304 81 -302 q 5 -307 24 -306 q 0 -287 0 -301 q 5 -267 1 -273 q 56 -261 24 -267 q 90 -245 87 -255 q 97 -145 97 -224 l 97 757 q 90 827 97 811 q 7 852 80 852 q 6 860 7 852 q 6 878 5 869 q 9 887 6 886 q 201 941 102 897 q 211 934 206 941 q 216 920 216 927 q 201 802 201 876 l 201 521 q 204 514 201 514 q 208 517 205 514 q 289 569 240 544 q 374 594 337 594 m 315 514 q 239 495 276 514 q 201 461 201 477 l 201 136 q 242 62 201 88 q 328 37 283 37 q 423 71 381 37 q 485 157 465 106 q 505 264 505 208 q 451 448 505 381 q 315 514 396 514 z "},"ÿ":{"ha":636,"x_min":0,"x_max":637,"o":"m 466 803 q 510 784 491 803 q 528 739 528 765 q 509 696 528 714 q 465 678 490 678 q 420 697 439 678 q 401 741 401 715 q 420 784 401 766 q 466 803 440 803 m 218 803 q 261 784 243 803 q 280 739 280 765 q 261 696 280 714 q 216 678 242 678 q 172 697 191 678 q 153 741 153 715 q 172 784 153 766 q 218 803 192 803 m 138 576 q 273 583 216 576 q 274 561 276 577 q 268 544 273 544 q 246 543 259 544 q 217 535 233 541 q 201 521 201 530 q 203 515 201 518 l 347 149 q 467 457 416 330 q 475 500 475 477 q 454 532 475 521 q 397 544 432 544 q 392 561 392 544 q 397 583 392 578 q 519 576 448 576 q 633 583 565 576 q 635 561 637 577 q 629 544 633 544 q 582 533 611 544 q 543 498 553 522 q 340 8 398 152 q 311 -68 333 -8 q 271 -164 288 -127 q 232 -233 254 -201 q 114 -309 180 -309 q 55 -251 55 -309 q 71 -212 55 -231 q 156 -198 125 -212 q 224 -134 186 -185 q 262 -64 239 -115 q 290 3 286 -12 q 77 517 154 349 q 2 544 64 544 q 0 563 0 544 q 2 583 0 581 q 138 576 66 576 z "},"Ā":{"ha":850,"x_min":-19,"x_max":857,"o":"m 595 1025 q 262 1025 595 1025 q 256 1053 252 1030 q 270 1082 260 1076 l 604 1082 q 608 1057 611 1078 q 595 1025 606 1036 m 129 189 q 391 860 308 649 q 415 885 396 870 q 442 899 433 899 q 447 898 444 899 q 450 895 449 896 l 726 171 q 761 81 760 83 q 803 48 770 60 q 853 35 837 35 q 857 15 857 29 q 856 -4 857 1 q 707 3 720 3 q 655 2 679 3 q 601 -1 631 1 q 549 -4 571 -3 q 545 16 545 1 q 551 35 545 30 q 592 40 566 35 q 627 53 618 45 q 632 72 632 58 q 609 156 632 90 q 563 279 586 222 l 540 336 q 532 342 536 342 q 397 343 514 343 q 251 339 312 343 l 244 335 q 183 170 206 235 q 164 73 164 114 q 177 54 164 62 q 207 42 189 45 q 238 37 225 38 q 258 35 251 35 q 261 17 260 33 q 260 -4 262 2 q 218 -1 241 -3 q 175 2 195 1 q 129 3 155 3 q 80 2 101 3 q 33 -1 58 1 q -16 -4 7 -3 q -19 14 -19 -1 q -16 35 -19 28 q 28 42 1 35 q 65 61 56 50 q 129 189 94 98 m 395 735 l 270 404 q 273 399 270 399 q 396 396 343 396 q 510 400 447 396 q 513 401 511 400 q 514 406 514 404 l 514 407 l 395 735 z "},"ā":{"ha":585,"x_min":50,"x_max":567,"o":"m 437 712 q 133 712 437 712 q 127 740 123 717 q 141 769 132 762 l 445 769 q 450 744 452 764 q 437 712 447 723 m 254 62 q 329 84 287 62 q 372 118 372 106 l 372 302 q 245 263 267 271 q 185 221 207 248 q 163 157 163 195 q 189 91 163 119 q 254 62 216 62 m 327 591 q 430 537 386 591 q 475 406 475 483 l 475 126 q 517 62 475 62 q 529 63 523 62 q 538 66 534 64 q 547 70 543 68 q 554 74 551 73 q 558 78 556 76 q 562 80 561 80 q 567 69 567 80 q 560 43 567 55 q 511 11 545 29 q 458 -8 477 -8 q 406 19 430 -8 q 376 80 382 47 q 298 25 356 60 q 209 -11 240 -11 q 96 34 142 -11 q 50 145 50 79 q 72 214 50 184 q 118 254 93 244 q 199 282 140 262 q 298 317 258 302 q 355 339 338 331 q 369 349 366 343 q 372 373 372 355 l 372 410 q 337 499 372 458 q 255 540 303 540 q 204 519 221 540 q 180 456 188 498 q 117 391 169 391 q 83 408 96 391 q 71 448 71 426 q 74 464 71 453 q 80 480 77 475 q 192 555 122 519 q 327 591 261 591 z "},"Ă":{"ha":850,"x_min":-19,"x_max":857,"o":"m 560 1130 q 580 1122 570 1130 q 590 1107 590 1114 q 589 1099 590 1104 q 533 1015 574 1046 q 442 983 492 983 q 351 1015 393 983 q 296 1099 310 1046 q 294 1107 294 1104 q 304 1122 294 1114 q 324 1130 314 1130 q 368 1068 338 1090 q 442 1046 398 1046 q 516 1068 486 1046 q 560 1130 547 1090 m 129 189 q 391 860 308 649 q 415 885 396 870 q 442 899 433 899 q 447 898 444 899 q 450 895 449 896 l 726 171 q 761 81 760 83 q 803 48 770 60 q 853 35 837 35 q 857 15 857 29 q 856 -4 857 1 q 707 3 720 3 q 655 2 679 3 q 601 -1 631 1 q 549 -4 571 -3 q 545 16 545 1 q 551 35 545 30 q 592 40 566 35 q 627 53 618 45 q 632 72 632 58 q 609 156 632 90 q 563 279 586 222 l 540 336 q 532 342 536 342 q 397 343 514 343 q 251 339 312 343 l 244 335 q 183 170 206 235 q 164 73 164 114 q 177 54 164 62 q 207 42 189 45 q 238 37 225 38 q 258 35 251 35 q 261 17 260 33 q 260 -4 262 2 q 218 -1 241 -3 q 175 2 195 1 q 129 3 155 3 q 80 2 101 3 q 33 -1 58 1 q -16 -4 7 -3 q -19 14 -19 -1 q -16 35 -19 28 q 28 42 1 35 q 65 61 56 50 q 129 189 94 98 m 395 735 l 270 404 q 273 399 270 399 q 396 396 343 396 q 510 400 447 396 q 513 401 511 400 q 514 406 514 404 l 514 407 l 395 735 z "},"ă":{"ha":585,"x_min":50,"x_max":567,"o":"m 214 763 q 230 750 214 763 q 289 736 246 736 q 364 763 332 736 q 407 834 397 790 q 412 838 407 838 q 428 832 418 838 q 437 821 437 825 q 436 815 437 820 q 435 810 435 811 q 384 714 426 754 q 289 674 342 674 q 193 713 235 674 q 142 811 152 753 q 142 816 142 812 q 141 821 141 820 q 150 832 141 825 q 165 838 159 838 q 171 834 171 838 q 214 763 181 790 m 254 62 q 329 84 287 62 q 372 118 372 106 l 372 302 q 245 263 267 271 q 185 221 207 248 q 163 157 163 195 q 189 91 163 119 q 254 62 216 62 m 327 591 q 430 537 386 591 q 475 406 475 483 l 475 126 q 517 62 475 62 q 529 63 523 62 q 538 66 534 64 q 547 70 543 68 q 554 74 551 73 q 558 78 556 76 q 562 80 561 80 q 567 69 567 80 q 560 43 567 55 q 511 11 545 29 q 458 -8 477 -8 q 406 19 430 -8 q 376 80 382 47 q 298 25 356 60 q 209 -11 240 -11 q 96 34 142 -11 q 50 145 50 79 q 72 214 50 184 q 118 254 93 244 q 199 282 140 262 q 298 317 258 302 q 355 339 338 331 q 369 349 366 343 q 372 373 372 355 l 372 410 q 337 499 372 458 q 255 540 303 540 q 204 519 221 540 q 180 456 188 498 q 117 391 169 391 q 83 408 96 391 q 71 448 71 426 q 74 464 71 453 q 80 480 77 475 q 192 555 122 519 q 327 591 261 591 z "},"Ą":{"ha":850,"x_min":-19,"x_max":857,"o":"m 856 -4 q 811 -1 844 -3 q 758 1 777 1 q 662 -77 705 -31 q 618 -164 618 -123 q 631 -204 618 -185 q 674 -222 644 -222 q 719 -214 698 -222 q 752 -197 741 -206 q 773 -179 764 -187 q 784 -171 782 -171 q 786 -173 785 -171 q 789 -179 788 -175 q 791 -189 791 -184 q 784 -213 791 -204 q 642 -302 716 -302 q 583 -283 606 -302 q 553 -242 560 -264 q 545 -198 545 -220 q 590 -91 545 -146 q 697 3 635 -36 l 694 3 q 549 -4 691 3 q 545 16 545 1 q 551 35 545 30 q 592 40 566 35 q 627 53 618 45 q 632 72 632 58 q 609 156 632 90 q 563 279 586 222 l 540 336 q 532 342 536 342 q 397 343 514 343 q 251 339 312 343 l 244 335 q 183 170 206 235 q 164 73 164 114 q 177 54 165 62 q 208 42 190 45 q 238 37 226 38 q 258 35 251 35 q 261 17 260 33 q 260 -4 262 2 q 217 -1 241 -3 q 174 2 194 1 q 129 3 155 3 q 80 2 101 3 q 33 -1 58 1 q -16 -4 7 -3 q -19 14 -19 -1 q -16 35 -19 28 q 28 42 1 35 q 65 61 56 50 q 129 189 94 98 q 391 860 308 649 q 415 885 396 870 q 442 899 433 899 q 447 898 444 899 q 450 895 449 896 l 726 171 q 761 81 760 83 q 803 48 770 60 q 853 35 837 35 q 857 15 857 29 q 856 -4 857 1 m 395 735 l 270 404 q 273 399 270 399 q 396 396 343 396 q 510 400 447 396 q 513 402 511 400 q 514 406 514 404 l 514 407 l 395 735 z "},"ą":{"ha":585,"x_min":50,"x_max":567,"o":"m 254 62 q 329 84 287 62 q 372 118 372 106 l 372 302 q 245 263 267 271 q 185 221 207 248 q 163 157 163 195 q 189 91 163 119 q 254 62 216 62 m 376 80 q 298 25 356 60 q 209 -11 240 -11 q 96 34 142 -11 q 50 145 50 79 q 72 214 50 184 q 118 254 93 244 q 199 282 140 262 q 298 317 258 302 q 355 339 338 331 q 369 349 366 343 q 372 373 372 355 l 372 410 q 337 499 372 458 q 255 540 303 540 q 204 519 221 540 q 180 456 188 498 q 117 391 169 391 q 83 408 96 391 q 71 448 71 426 q 74 464 71 453 q 80 480 77 475 q 192 555 122 519 q 327 591 261 591 q 430 537 386 591 q 475 406 475 483 l 475 126 q 517 62 475 62 q 529 63 523 62 q 538 66 534 64 q 547 70 543 68 q 554 74 551 73 q 558 78 556 76 q 562 80 561 80 q 567 69 567 80 q 560 43 567 55 q 511 9 519 15 q 491 -5 509 8 q 465 -23 472 -18 q 441 -42 458 -28 q 415 -64 423 -56 q 394 -86 407 -72 q 374 -112 380 -100 q 363 -137 368 -123 q 358 -164 358 -151 q 371 -204 358 -185 q 414 -222 383 -222 q 459 -214 437 -222 q 492 -197 480 -206 q 512 -179 503 -187 q 524 -171 522 -171 q 526 -173 524 -171 q 529 -179 528 -175 q 530 -189 530 -184 q 524 -213 530 -204 q 381 -302 456 -302 q 323 -283 346 -302 q 292 -242 300 -264 q 285 -198 285 -220 q 328 -99 285 -156 q 425 1 370 -41 q 392 34 406 12 q 376 80 378 56 z "},"Ć":{"ha":914,"x_min":65,"x_max":857,"o":"m 483 1000 q 548 1073 483 1007 q 647 1164 613 1139 q 671 1168 655 1168 q 734 1127 734 1168 q 677 1071 734 1105 q 563 1012 621 1036 q 491 987 505 987 q 486 992 488 987 q 483 1000 483 996 m 524 905 q 811 876 680 905 q 842 675 842 689 q 833 664 843 669 q 812 658 823 658 q 796 662 802 658 q 530 860 758 860 q 357 800 434 860 q 239 651 279 741 q 199 465 199 562 q 213 339 199 401 q 256 223 227 278 q 326 127 285 168 q 425 61 367 85 q 552 37 484 37 q 731 102 657 37 q 814 259 792 157 q 857 248 838 261 q 840 143 857 222 q 810 53 823 64 q 518 -8 701 -8 q 334 28 420 -8 q 191 124 249 64 q 99 266 132 184 q 65 437 65 347 q 100 617 65 531 q 194 766 134 703 q 340 867 254 829 q 524 905 426 905 z "},"ć":{"ha":574,"x_min":53,"x_max":533,"o":"m 430 887 q 464 878 452 887 q 477 862 475 869 q 479 848 479 854 q 430 784 479 828 q 332 705 382 740 q 274 670 281 670 q 262 688 262 670 q 311 765 262 694 q 393 876 361 836 q 399 880 395 878 q 412 885 404 882 q 430 887 421 887 m 518 524 q 503 474 518 490 q 467 458 487 458 q 439 467 453 458 q 411 490 426 476 q 388 509 395 504 q 350 529 365 524 q 311 534 336 534 q 205 472 252 534 q 159 308 159 409 q 220 136 159 194 q 378 79 281 79 q 464 101 427 79 q 522 148 501 123 q 526 145 523 148 q 531 138 528 143 q 533 129 533 134 q 525 104 533 118 q 498 69 514 87 q 457 33 481 52 q 398 1 433 14 q 327 -11 364 -11 q 184 28 248 -11 q 86 130 120 68 q 53 263 53 192 q 74 373 53 320 q 129 465 94 426 q 205 534 163 505 q 294 579 248 564 q 382 594 340 594 q 505 562 456 594 q 514 545 509 557 q 518 524 518 533 z "},"Ĉ":{"ha":914,"x_min":65,"x_max":857,"o":"m 538 1166 q 555 1155 545 1166 q 626 1080 584 1123 q 693 1009 667 1037 q 689 994 693 1002 q 680 986 685 986 l 538 1073 q 397 986 432 1008 q 387 994 391 986 q 382 1009 382 1002 q 522 1155 496 1126 q 538 1166 531 1166 m 524 905 q 811 876 680 905 q 842 675 842 689 q 833 664 843 669 q 812 658 823 658 q 796 662 802 658 q 530 860 758 860 q 357 800 434 860 q 239 651 279 741 q 199 465 199 562 q 213 339 199 401 q 256 223 227 278 q 326 127 285 168 q 425 61 367 85 q 552 37 484 37 q 731 102 657 37 q 814 259 792 157 q 857 248 838 261 q 840 143 857 222 q 810 53 823 64 q 518 -8 701 -8 q 334 28 420 -8 q 191 124 249 64 q 99 266 132 184 q 65 437 65 347 q 100 617 65 531 q 194 766 134 703 q 340 867 254 829 q 524 905 426 905 z "},"ĉ":{"ha":574,"x_min":53,"x_max":533,"o":"m 308 864 q 323 876 315 876 q 338 864 330 876 q 356 835 347 848 q 375 807 365 821 q 390 785 385 793 q 408 760 396 777 q 424 738 420 744 q 445 712 429 732 q 465 685 460 691 q 460 673 465 678 q 450 667 456 667 l 323 770 q 195 667 243 705 q 185 673 190 667 q 180 685 180 678 q 201 712 185 691 q 221 738 217 732 q 238 760 226 744 q 255 785 250 777 q 271 807 261 793 q 290 835 281 821 q 308 864 298 848 m 518 524 q 503 474 518 490 q 467 458 487 458 q 439 467 453 458 q 411 490 426 476 q 388 509 395 504 q 350 529 365 524 q 311 534 336 534 q 205 472 252 534 q 159 308 159 409 q 220 136 159 194 q 378 79 281 79 q 464 101 427 79 q 522 148 501 123 q 526 145 523 148 q 531 138 528 143 q 533 129 533 134 q 525 104 533 118 q 498 69 514 87 q 457 33 481 52 q 398 1 433 14 q 327 -11 364 -11 q 184 28 248 -11 q 86 130 120 68 q 53 263 53 192 q 74 373 53 320 q 129 465 94 426 q 205 534 163 505 q 294 579 248 564 q 382 594 340 594 q 505 562 456 594 q 514 545 509 557 q 518 524 518 533 z "},"Ċ":{"ha":914,"x_min":65,"x_max":857,"o":"m 471 1007 q 461 1017 471 1007 q 452 1055 452 1027 q 471 1103 452 1084 q 519 1123 491 1123 q 568 1103 548 1123 q 587 1055 587 1084 q 568 1007 587 1027 q 519 987 548 987 q 471 1007 491 987 m 524 905 q 811 876 680 905 q 842 675 842 689 q 833 664 843 669 q 812 658 823 658 q 796 662 802 658 q 530 860 758 860 q 357 800 434 860 q 239 651 279 741 q 199 465 199 562 q 213 339 199 401 q 256 223 227 278 q 326 127 285 168 q 425 61 367 85 q 552 37 484 37 q 731 102 657 37 q 814 259 792 157 q 857 248 838 261 q 840 143 857 222 q 810 53 823 64 q 518 -8 701 -8 q 334 28 420 -8 q 191 124 249 64 q 99 266 132 184 q 65 437 65 347 q 100 617 65 531 q 194 766 134 703 q 340 867 254 829 q 524 905 426 905 z "},"ċ":{"ha":574,"x_min":53,"x_max":533,"o":"m 287 756 q 277 766 287 756 q 267 804 267 776 q 287 852 267 833 q 335 872 307 872 q 383 852 363 872 q 403 804 403 833 q 383 756 403 776 q 335 736 363 736 q 287 756 307 736 m 518 524 q 503 474 518 490 q 467 458 487 458 q 439 467 453 458 q 411 490 426 476 q 388 509 395 504 q 350 529 365 524 q 311 534 336 534 q 205 472 252 534 q 159 308 159 409 q 220 136 159 194 q 378 79 281 79 q 464 101 427 79 q 522 148 501 123 q 526 145 523 148 q 531 138 528 143 q 533 129 533 134 q 525 104 533 118 q 498 69 514 87 q 457 33 481 52 q 398 1 433 14 q 327 -11 364 -11 q 184 28 248 -11 q 86 130 120 68 q 53 263 53 192 q 74 373 53 320 q 129 465 94 426 q 205 534 163 505 q 294 579 248 564 q 382 594 340 594 q 505 562 456 594 q 514 545 509 557 q 518 524 518 533 z "},"Č":{"ha":914,"x_min":65,"x_max":857,"o":"m 524 905 q 811 876 680 905 q 842 675 842 689 q 833 664 843 669 q 812 658 823 658 q 796 662 802 658 q 530 860 758 860 q 357 800 434 860 q 239 651 279 741 q 199 465 199 562 q 213 339 199 401 q 256 223 227 278 q 326 127 285 168 q 425 61 367 85 q 552 37 484 37 q 731 102 657 37 q 814 259 792 157 q 857 248 838 261 q 840 143 857 222 q 810 53 823 64 q 518 -8 701 -8 q 334 28 420 -8 q 191 124 249 64 q 99 266 132 184 q 65 437 65 347 q 100 617 65 531 q 194 766 134 703 q 340 867 254 829 q 524 905 426 905 m 534 997 q 518 986 525 986 q 502 997 511 986 q 431 1072 473 1029 q 363 1143 389 1115 q 368 1158 363 1149 q 377 1166 372 1166 l 518 1079 l 659 1166 q 669 1158 665 1166 q 674 1143 674 1149 q 627 1095 656 1124 q 579 1045 599 1066 q 534 997 559 1025 z "},"č":{"ha":574,"x_min":53,"x_max":533,"o":"m 353 686 q 338 674 345 674 q 323 686 330 674 q 304 715 313 702 q 286 743 296 729 q 270 766 276 758 q 253 790 264 774 q 236 812 241 806 q 216 839 232 818 q 195 865 200 859 q 200 878 195 872 q 210 883 205 883 l 338 770 q 465 883 412 837 q 475 878 471 883 q 480 865 480 872 q 459 839 475 859 q 439 812 444 818 q 423 790 435 806 q 405 766 411 774 q 390 743 399 758 q 371 715 380 729 q 353 686 362 702 m 518 524 q 503 474 518 490 q 467 458 487 458 q 439 467 453 458 q 411 490 426 476 q 388 509 395 504 q 350 529 365 524 q 311 534 336 534 q 205 472 252 534 q 159 308 159 409 q 220 136 159 194 q 378 79 281 79 q 464 101 427 79 q 522 148 501 123 q 526 145 523 148 q 531 138 528 143 q 533 129 533 134 q 525 104 533 118 q 498 69 514 87 q 457 33 481 52 q 398 1 433 14 q 327 -11 364 -11 q 184 28 248 -11 q 86 130 120 68 q 53 263 53 192 q 74 373 53 320 q 129 465 94 426 q 205 534 163 505 q 294 579 248 564 q 382 594 340 594 q 505 562 456 594 q 514 545 509 557 q 518 524 518 533 z "},"Ď":{"ha":963,"x_min":57,"x_max":895,"o":"m 281 734 l 281 156 q 290 58 281 68 q 401 39 303 39 q 538 63 475 39 q 652 132 602 86 q 731 253 703 178 q 760 425 760 328 q 740 586 760 514 q 684 707 719 659 q 600 787 648 755 q 496 834 551 820 q 382 849 442 849 q 288 834 293 849 q 281 734 280 808 m 418 892 q 618 859 528 892 q 768 767 708 825 q 862 627 829 708 q 895 453 895 547 q 880 317 895 380 q 830 193 866 253 q 740 90 795 133 q 599 22 686 47 q 401 -4 512 -4 l 62 -4 q 57 16 57 1 q 62 35 58 30 q 117 41 82 35 q 155 57 153 47 q 162 157 162 79 l 162 736 q 155 837 162 815 q 117 852 153 846 q 62 859 82 859 q 57 878 58 864 q 62 898 57 892 q 222 891 201 891 q 318 892 248 891 q 418 892 388 892 m 469 997 q 452 986 459 986 q 436 997 446 986 q 365 1072 407 1029 q 298 1143 323 1115 q 302 1158 298 1149 q 311 1166 306 1166 l 452 1079 l 593 1166 q 604 1158 599 1166 q 608 1143 608 1149 q 562 1095 590 1124 q 513 1045 533 1066 q 469 997 494 1025 z "},"ď":{"ha":722,"x_min":53,"x_max":803,"o":"m 754 970 q 784 962 768 970 q 803 886 803 930 q 777 782 803 837 q 708 681 751 728 q 692 686 701 681 q 682 696 682 691 q 724 806 724 749 q 705 866 724 840 q 686 913 686 892 q 706 951 686 933 q 754 970 725 970 m 376 594 q 427 589 396 594 q 469 581 458 585 q 476 609 476 581 l 476 757 q 469 827 476 811 q 387 852 459 852 q 385 860 386 852 q 385 878 385 869 q 388 887 385 886 q 581 941 481 897 q 590 934 585 941 q 595 920 595 927 q 581 802 581 876 l 581 221 q 590 88 581 111 q 607 75 594 80 q 633 67 620 69 q 657 65 646 66 q 670 64 669 64 q 674 47 674 62 q 671 35 674 43 q 663 27 667 27 q 618 22 644 26 q 571 12 593 18 q 530 1 549 7 q 499 -7 511 -4 l 487 -11 q 476 15 476 -11 l 476 62 q 472 71 475 71 q 393 19 452 49 q 292 -11 335 -11 q 125 74 197 -11 q 53 279 53 158 q 86 403 53 342 q 169 504 119 463 q 274 569 218 545 q 376 594 330 594 m 332 537 q 213 470 258 537 q 167 312 167 402 q 218 142 167 212 q 358 73 269 73 q 439 92 401 73 q 476 127 476 110 l 476 471 q 432 516 476 494 q 332 537 388 537 z "},"Đ":{"ha":963,"x_min":57,"x_max":895,"o":"m 495 422 l 66 422 q 62 431 64 422 q 62 454 61 441 q 68 472 64 467 l 495 472 q 499 452 499 472 q 495 422 499 431 m 281 734 l 281 156 q 290 58 281 68 q 401 39 303 39 q 538 63 475 39 q 652 132 602 86 q 731 253 703 178 q 760 425 760 328 q 740 586 760 514 q 684 707 719 659 q 600 787 648 755 q 496 834 551 820 q 382 849 442 849 q 288 834 293 849 q 281 734 280 808 m 418 892 q 618 859 528 892 q 768 767 708 825 q 862 627 829 708 q 895 453 895 547 q 880 317 895 380 q 830 193 866 253 q 740 90 795 133 q 599 22 686 47 q 401 -4 512 -4 l 62 -4 q 57 16 57 1 q 62 35 58 30 q 117 41 82 35 q 155 57 153 47 q 162 157 162 79 l 162 736 q 155 837 162 815 q 117 852 153 846 q 62 859 82 859 q 57 878 58 864 q 62 898 57 892 q 222 891 201 891 q 318 892 248 891 q 418 892 388 892 z "},"đ":{"ha":699,"x_min":53,"x_max":674,"o":"m 376 594 q 427 589 396 594 q 469 581 458 585 q 476 609 476 581 l 476 757 q 469 827 476 811 q 387 852 459 852 q 385 860 386 852 q 385 878 385 869 q 388 887 385 886 q 581 941 481 897 q 590 934 585 941 q 595 920 595 927 q 581 802 581 876 l 581 221 q 590 88 581 111 q 607 75 594 80 q 633 67 620 69 q 657 65 646 66 q 670 64 669 64 q 674 47 674 62 q 671 35 674 43 q 663 27 667 27 q 618 22 644 26 q 571 12 593 18 q 530 1 549 7 q 499 -7 511 -4 l 487 -11 q 476 15 476 -11 l 476 62 q 472 71 475 71 q 393 19 452 49 q 292 -11 335 -11 q 125 74 197 -11 q 53 279 53 158 q 86 403 53 342 q 169 504 119 463 q 274 569 218 545 q 376 594 330 594 m 332 537 q 213 470 258 537 q 167 312 167 402 q 218 142 167 212 q 358 73 269 73 q 439 92 401 73 q 476 127 476 110 l 476 471 q 432 516 476 494 q 332 537 388 537 m 297 760 l 656 760 q 665 749 665 760 q 656 712 665 728 l 296 712 q 289 728 289 712 q 297 760 289 745 z "},"Ē":{"ha":796,"x_min":57,"x_max":759,"o":"m 525 1025 q 191 1025 525 1025 q 186 1053 182 1030 q 199 1082 190 1076 l 533 1082 q 538 1057 541 1078 q 525 1025 535 1036 m 222 891 q 432 896 283 891 q 659 901 582 901 q 679 797 664 861 q 698 716 694 732 q 673 709 691 709 q 654 719 656 709 q 596 820 633 794 q 497 846 558 846 l 380 846 q 287 831 292 846 q 280 735 279 806 l 280 481 q 296 475 279 477 q 338 473 312 473 l 410 473 q 463 474 444 473 q 499 478 482 475 q 523 487 515 481 q 537 502 530 492 q 548 526 544 512 q 557 559 551 539 q 559 571 558 567 q 580 581 562 581 q 603 574 596 581 l 603 317 q 581 312 597 312 q 559 323 564 312 q 538 391 545 376 q 522 412 532 406 q 378 423 505 423 q 357 423 364 423 q 336 423 349 423 q 314 422 322 422 q 297 420 306 421 q 284 416 288 418 q 280 411 280 414 l 280 153 q 281 97 279 130 q 288 60 283 64 q 318 48 300 50 q 385 46 336 46 l 450 46 q 546 56 498 46 q 621 83 593 66 q 667 132 650 100 q 706 220 685 163 q 725 228 708 228 q 759 220 751 228 q 739 163 753 202 q 716 101 724 125 q 698 46 707 77 q 686 -5 689 16 q 467 -3 616 -5 q 223 0 317 0 q 138 -2 190 0 q 62 -4 87 -4 q 57 16 57 1 q 62 35 58 30 q 117 41 82 35 q 155 57 153 47 q 162 157 162 79 l 162 736 q 155 837 162 815 q 117 852 153 846 q 62 859 82 859 q 57 878 58 864 q 62 898 57 892 q 222 891 201 891 z "},"ē":{"ha":583,"x_min":54,"x_max":532,"o":"m 441 712 q 137 712 441 712 q 132 740 127 717 q 145 769 136 762 l 449 769 q 454 744 456 764 q 441 712 451 723 m 157 387 q 378 387 157 387 q 410 418 408 387 q 404 452 410 431 q 386 494 398 472 q 351 530 374 515 q 298 545 328 545 q 240 529 267 545 q 198 489 214 513 q 173 443 183 466 q 160 403 163 419 q 157 387 156 387 m 151 336 q 212 144 148 212 q 372 76 276 76 q 460 100 420 76 q 521 148 500 123 q 524 145 522 148 q 529 138 527 143 q 532 129 532 134 q 524 104 532 118 q 496 69 513 87 q 456 33 480 52 q 397 1 431 14 q 326 -11 363 -11 q 131 70 207 -11 q 54 271 54 150 q 79 398 54 337 q 143 501 104 459 q 229 569 182 543 q 321 594 277 594 q 405 580 368 594 q 464 545 442 566 q 500 498 486 524 q 519 450 514 471 q 525 410 525 428 q 518 362 525 378 q 492 346 511 347 q 316 340 465 344 q 151 336 168 336 z "},"Ĕ":{"ha":796,"x_min":57,"x_max":759,"o":"m 519 1130 q 539 1122 530 1130 q 549 1107 549 1114 q 548 1099 549 1104 q 492 1015 534 1046 q 401 983 451 983 q 311 1015 352 983 q 255 1099 269 1046 q 254 1107 254 1104 q 263 1122 254 1114 q 283 1130 273 1130 q 327 1068 297 1090 q 401 1046 357 1046 q 476 1068 446 1046 q 519 1130 506 1090 m 222 891 q 432 896 283 891 q 659 901 582 901 q 679 797 664 861 q 698 716 694 732 q 673 709 691 709 q 654 719 656 709 q 596 820 633 794 q 497 846 558 846 l 380 846 q 287 831 292 846 q 280 735 279 806 l 280 481 q 296 475 279 477 q 338 473 312 473 l 410 473 q 463 474 444 473 q 499 478 482 475 q 523 487 515 481 q 537 502 530 492 q 548 526 544 512 q 557 559 551 539 q 559 571 558 567 q 580 581 562 581 q 603 574 596 581 l 603 317 q 581 312 597 312 q 559 323 564 312 q 538 391 545 376 q 522 412 532 406 q 378 423 505 423 q 357 423 364 423 q 336 423 349 423 q 314 422 322 422 q 297 420 306 421 q 284 416 288 418 q 280 411 280 414 l 280 153 q 281 97 279 130 q 288 60 283 64 q 318 48 300 50 q 385 46 336 46 l 450 46 q 546 56 498 46 q 621 83 593 66 q 667 132 650 100 q 706 220 685 163 q 725 228 708 228 q 759 220 751 228 q 739 163 753 202 q 716 101 724 125 q 698 46 707 77 q 686 -5 689 16 q 467 -3 616 -5 q 223 0 317 0 q 138 -2 190 0 q 62 -4 87 -4 q 57 16 57 1 q 62 35 58 30 q 117 41 82 35 q 155 57 153 47 q 162 157 162 79 l 162 736 q 155 837 162 815 q 117 852 153 846 q 62 859 82 859 q 57 878 58 864 q 62 898 57 892 q 222 891 201 891 z "},"ĕ":{"ha":583,"x_min":54,"x_max":532,"o":"m 254 763 q 271 750 254 763 q 330 736 287 736 q 405 763 372 736 q 448 834 437 790 q 453 838 448 838 q 468 832 459 838 q 477 821 477 825 q 477 815 477 820 q 476 810 476 811 q 425 714 467 754 q 330 674 383 674 q 234 713 275 674 q 183 811 193 753 q 182 816 183 812 q 182 821 182 820 q 191 832 182 825 q 206 838 200 838 q 212 834 212 838 q 254 763 222 790 m 157 387 q 378 387 157 387 q 410 418 408 387 q 404 452 410 431 q 386 494 398 472 q 351 530 374 515 q 298 545 328 545 q 240 529 267 545 q 198 489 214 513 q 173 443 183 466 q 160 403 163 419 q 157 387 156 387 m 151 336 q 212 144 148 212 q 372 76 276 76 q 460 100 420 76 q 521 148 500 123 q 524 145 522 148 q 529 138 527 143 q 532 129 532 134 q 524 104 532 118 q 496 69 513 87 q 456 33 480 52 q 397 1 431 14 q 326 -11 363 -11 q 131 70 207 -11 q 54 271 54 150 q 79 398 54 337 q 143 501 104 459 q 229 569 182 543 q 321 594 277 594 q 405 580 368 594 q 464 545 442 566 q 500 498 486 524 q 519 450 514 471 q 525 410 525 428 q 518 362 525 378 q 492 346 511 347 q 316 340 465 344 q 151 336 168 336 z "},"Ė":{"ha":796,"x_min":57,"x_max":759,"o":"m 352 1007 q 342 1017 352 1007 q 332 1055 332 1027 q 352 1103 332 1084 q 400 1123 372 1123 q 448 1103 429 1123 q 468 1055 468 1084 q 448 1007 468 1027 q 400 987 429 987 q 352 1007 372 987 m 222 891 q 432 896 283 891 q 659 901 582 901 q 679 797 664 861 q 698 716 694 732 q 673 709 691 709 q 654 719 656 709 q 596 820 633 794 q 497 846 558 846 l 380 846 q 287 831 292 846 q 280 735 279 806 l 280 481 q 296 475 279 477 q 338 473 312 473 l 410 473 q 463 474 444 473 q 499 478 482 475 q 523 487 515 481 q 537 502 530 492 q 548 526 544 512 q 557 559 551 539 q 559 571 558 567 q 580 581 562 581 q 603 574 596 581 l 603 317 q 581 312 597 312 q 559 323 564 312 q 538 391 545 376 q 522 412 532 406 q 378 423 505 423 q 357 423 364 423 q 336 423 349 423 q 314 422 322 422 q 297 420 306 421 q 284 416 288 418 q 280 411 280 414 l 280 153 q 281 97 279 130 q 288 60 283 64 q 318 48 300 50 q 385 46 336 46 l 450 46 q 546 56 498 46 q 621 83 593 66 q 667 132 650 100 q 706 220 685 163 q 725 228 708 228 q 759 220 751 228 q 739 163 753 202 q 716 101 724 125 q 698 46 707 77 q 686 -5 689 16 q 467 -3 616 -5 q 223 0 317 0 q 138 -2 190 0 q 62 -4 87 -4 q 57 16 57 1 q 62 35 58 30 q 117 41 82 35 q 155 57 153 47 q 162 157 162 79 l 162 736 q 155 837 162 815 q 117 852 153 846 q 62 859 82 859 q 57 878 58 864 q 62 898 57 892 q 222 891 201 891 z "},"ė":{"ha":583,"x_min":54,"x_max":532,"o":"m 287 756 q 277 766 287 756 q 267 804 267 776 q 287 852 267 833 q 335 872 307 872 q 383 852 363 872 q 403 804 403 833 q 383 756 403 776 q 335 736 363 736 q 287 756 307 736 m 157 387 q 378 387 157 387 q 410 418 408 387 q 404 452 410 431 q 386 494 398 472 q 351 530 374 515 q 298 545 328 545 q 240 529 267 545 q 198 489 214 513 q 173 443 183 466 q 160 403 163 419 q 157 387 156 387 m 151 336 q 212 144 148 212 q 372 76 276 76 q 460 100 420 76 q 521 148 500 123 q 524 145 522 148 q 529 138 527 143 q 532 129 532 134 q 524 104 532 118 q 496 69 513 87 q 456 33 480 52 q 397 1 431 14 q 326 -11 363 -11 q 131 70 207 -11 q 54 271 54 150 q 79 398 54 337 q 143 501 104 459 q 229 569 182 543 q 321 594 277 594 q 405 580 368 594 q 464 545 442 566 q 500 498 486 524 q 519 450 514 471 q 525 410 525 428 q 518 362 525 378 q 492 346 511 347 q 316 340 465 344 q 151 336 168 336 z "},"Ę":{"ha":796,"x_min":57,"x_max":759,"o":"m 222 891 q 432 896 283 891 q 659 901 582 901 q 679 797 664 861 q 698 716 694 732 q 673 709 691 709 q 654 719 656 709 q 596 820 633 794 q 497 846 558 846 l 380 846 q 287 831 292 846 q 280 735 279 806 l 280 481 q 296 475 279 477 q 338 473 312 473 l 410 473 q 463 474 444 473 q 499 478 482 475 q 523 487 515 481 q 537 502 530 492 q 548 526 544 512 q 557 559 551 539 q 559 571 558 567 q 580 581 562 581 q 603 574 596 581 l 603 317 q 581 312 597 312 q 559 323 564 312 q 538 391 545 376 q 522 412 532 406 q 378 423 505 423 q 357 423 364 423 q 336 423 349 423 q 314 422 322 422 q 297 420 306 421 q 284 416 288 418 q 280 411 280 414 l 280 153 q 281 97 279 130 q 288 60 283 64 q 318 48 300 50 q 385 46 336 46 l 450 46 q 546 56 498 46 q 621 83 593 66 q 667 132 650 100 q 706 220 685 163 q 725 228 708 228 q 759 220 751 228 q 739 163 753 202 q 716 101 724 125 q 698 46 707 77 q 686 -5 689 16 q 572 -62 629 -5 q 515 -165 515 -119 q 528 -205 515 -186 q 571 -224 541 -224 q 616 -216 595 -224 q 649 -198 637 -208 q 670 -180 661 -189 q 681 -172 679 -172 q 683 -174 682 -172 q 685 -181 684 -176 q 686 -190 686 -185 q 681 -214 686 -207 q 538 -304 613 -304 q 480 -284 503 -304 q 450 -243 457 -265 q 442 -199 442 -221 q 484 -98 442 -151 q 583 -5 526 -45 q 454 -2 578 -5 q 223 0 331 0 q 138 -2 190 0 q 62 -4 87 -4 q 57 16 57 1 q 62 35 58 30 q 117 41 82 35 q 155 57 153 47 q 162 157 162 79 l 162 736 q 155 837 162 815 q 117 852 153 846 q 62 859 82 859 q 57 878 58 864 q 62 898 57 892 q 222 891 201 891 z "},"ę":{"ha":585,"x_min":54,"x_max":532,"o":"m 458 35 q 360 -65 395 -19 q 326 -165 326 -112 q 338 -205 326 -186 q 381 -224 351 -224 q 426 -216 405 -224 q 459 -198 448 -208 q 480 -180 471 -189 q 491 -172 489 -172 q 493 -174 492 -172 q 495 -181 494 -176 q 496 -190 496 -185 q 491 -214 496 -207 q 349 -304 423 -304 q 290 -284 313 -304 q 260 -243 267 -265 q 252 -199 252 -221 q 284 -106 252 -161 q 358 -8 315 -52 q 326 -11 338 -11 q 131 70 207 -11 q 54 271 54 150 q 79 398 54 337 q 143 501 104 459 q 229 569 182 543 q 321 594 277 594 q 405 580 368 594 q 464 545 442 566 q 500 498 486 524 q 519 450 514 471 q 525 410 525 428 q 518 362 525 378 q 492 346 511 347 q 316 340 465 344 q 151 336 168 336 q 212 144 148 212 q 372 76 276 76 q 460 100 420 76 q 521 148 500 123 q 524 145 522 148 q 529 138 527 143 q 532 129 532 134 q 524 104 532 118 q 458 35 506 75 m 157 387 l 378 387 q 410 418 408 387 q 404 452 410 431 q 386 494 398 472 q 351 530 374 515 q 298 545 328 545 q 240 529 267 545 q 198 489 214 513 q 173 443 183 466 q 160 403 163 419 q 157 387 156 387 z "},"Ě":{"ha":796,"x_min":57,"x_max":759,"o":"m 222 891 q 432 896 283 891 q 659 901 582 901 q 679 797 664 861 q 698 716 694 732 q 673 709 691 709 q 654 719 656 709 q 596 820 633 794 q 497 846 558 846 l 380 846 q 287 831 292 846 q 280 735 279 806 l 280 481 q 296 475 279 477 q 338 473 312 473 l 410 473 q 463 474 444 473 q 499 478 482 475 q 523 487 515 481 q 537 502 530 492 q 548 526 544 512 q 557 559 551 539 q 559 571 558 567 q 580 581 562 581 q 603 574 596 581 l 603 317 q 581 312 597 312 q 559 323 564 312 q 538 391 545 376 q 522 412 532 406 q 378 423 505 423 q 357 423 364 423 q 336 423 349 423 q 314 422 322 422 q 297 420 306 421 q 284 416 288 418 q 280 411 280 414 l 280 153 q 281 97 279 130 q 288 60 283 64 q 318 48 300 50 q 385 46 336 46 l 450 46 q 546 56 498 46 q 621 83 593 66 q 667 132 650 100 q 706 220 685 163 q 725 228 708 228 q 759 220 751 228 q 739 163 753 202 q 716 101 724 125 q 698 46 707 77 q 686 -5 689 16 q 467 -3 616 -5 q 223 0 317 0 q 138 -2 190 0 q 62 -4 87 -4 q 57 16 57 1 q 62 35 58 30 q 117 41 82 35 q 155 57 153 47 q 162 157 162 79 l 162 736 q 155 837 162 815 q 117 852 153 846 q 62 859 82 859 q 57 878 58 864 q 62 898 57 892 q 222 891 201 891 m 433 997 q 416 986 423 986 q 400 997 410 986 q 329 1072 371 1029 q 262 1143 288 1115 q 266 1158 262 1149 q 275 1166 270 1166 l 416 1079 l 557 1166 q 568 1158 563 1166 q 572 1143 572 1149 q 526 1095 554 1124 q 477 1045 497 1066 q 433 997 458 1025 z "},"ě":{"ha":583,"x_min":54,"x_max":532,"o":"m 340 686 q 326 674 333 674 q 311 686 318 674 q 292 715 301 702 q 274 743 283 729 q 258 766 264 758 q 240 790 252 774 q 224 812 229 806 q 204 839 220 818 q 183 865 188 859 q 188 878 183 872 q 198 883 193 883 l 326 770 q 453 883 400 837 q 463 878 458 883 q 468 865 468 872 q 447 839 463 859 q 427 812 431 818 q 411 790 422 806 q 393 766 399 774 q 377 743 387 758 q 359 715 368 729 q 340 686 350 702 m 157 387 q 378 387 157 387 q 410 418 408 387 q 404 452 410 431 q 386 494 398 472 q 351 530 374 515 q 298 545 328 545 q 240 529 267 545 q 198 489 214 513 q 173 443 183 466 q 160 403 163 419 q 157 387 156 387 m 151 336 q 212 144 148 212 q 372 76 276 76 q 460 100 420 76 q 521 148 500 123 q 524 145 522 148 q 529 138 527 143 q 532 129 532 134 q 524 104 532 118 q 496 69 513 87 q 456 33 480 52 q 397 1 431 14 q 326 -11 363 -11 q 131 70 207 -11 q 54 271 54 150 q 79 398 54 337 q 143 501 104 459 q 229 569 182 543 q 321 594 277 594 q 405 580 368 594 q 464 545 442 566 q 500 498 486 524 q 519 450 514 471 q 525 410 525 428 q 518 362 525 378 q 492 346 511 347 q 316 340 465 344 q 151 336 168 336 z "},"Ĝ":{"ha":977,"x_min":65,"x_max":942,"o":"m 522 1166 q 538 1155 529 1166 q 609 1080 568 1123 q 677 1009 651 1037 q 673 994 677 1002 q 663 986 669 986 l 522 1073 q 380 986 416 1008 q 371 994 375 986 q 366 1009 366 1002 q 505 1155 479 1126 q 522 1166 515 1166 m 726 237 q 719 338 726 316 q 682 353 716 347 q 627 359 647 359 q 622 379 623 365 q 627 399 622 393 q 785 392 766 392 q 937 399 798 392 q 942 379 942 393 q 937 359 941 365 q 885 353 918 359 q 849 338 852 347 q 842 237 842 316 l 842 141 q 849 108 842 125 q 856 87 856 92 q 851 76 856 81 q 829 62 846 71 q 761 29 788 41 q 667 4 733 17 q 518 -8 601 -8 q 334 28 420 -8 q 191 124 249 64 q 99 266 132 184 q 65 437 65 347 q 100 617 65 531 q 194 766 134 703 q 340 867 254 829 q 524 905 426 905 q 811 876 680 905 q 842 675 842 689 q 833 664 843 669 q 812 658 823 658 q 796 662 802 658 q 530 860 758 860 q 357 800 434 860 q 239 651 279 741 q 199 465 199 562 q 213 339 199 401 q 255 223 227 278 q 325 127 284 168 q 425 61 366 85 q 552 37 483 37 q 716 80 629 37 q 726 100 726 85 l 726 237 z "},"ĝ":{"ha":632,"x_min":31,"x_max":618,"o":"m 292 905 q 307 917 299 917 q 321 905 314 917 q 340 876 331 889 q 358 848 349 862 q 374 825 368 833 q 392 801 380 817 q 408 779 404 785 q 428 752 412 773 q 449 726 444 732 q 444 713 449 719 q 434 708 439 708 l 307 811 q 179 708 227 746 q 169 713 174 708 q 164 726 164 719 q 185 752 169 732 q 205 779 201 773 q 221 801 210 785 q 239 825 233 817 q 255 848 245 833 q 273 876 264 862 q 292 905 282 889 m 292 555 q 204 507 237 555 q 172 396 172 458 q 208 278 172 330 q 302 227 243 227 q 387 274 355 227 q 418 381 418 321 q 384 503 418 450 q 292 555 351 555 m 346 -5 q 220 -12 232 -5 q 164 -54 190 -29 q 138 -103 138 -79 q 187 -213 138 -171 q 320 -255 235 -255 q 414 -235 366 -255 q 493 -180 462 -214 q 525 -110 525 -146 q 515 -77 525 -94 q 484 -43 505 -60 q 428 -16 464 -26 q 346 -5 391 -5 m 408 91 q 554 48 490 91 q 618 -52 618 5 q 589 -138 618 -93 q 513 -221 560 -184 q 400 -283 466 -258 q 266 -308 334 -307 q 156 -291 208 -309 q 67 -234 104 -273 q 31 -142 31 -195 q 46 -99 31 -121 q 86 -58 62 -77 q 133 -25 111 -39 q 175 -1 154 -12 q 98 45 132 12 q 64 125 64 79 q 118 173 79 143 q 180 217 157 203 q 99 293 130 245 q 68 391 68 341 q 135 534 68 473 q 297 595 201 595 q 329 594 313 595 q 359 587 345 592 q 382 581 376 583 q 405 572 389 579 l 420 566 q 452 556 438 559 l 597 576 q 610 563 610 572 q 600 533 610 554 q 579 507 589 513 l 490 513 q 484 509 484 513 q 508 462 494 499 q 522 385 522 425 q 455 248 522 311 q 293 186 387 186 q 252 190 276 186 q 217 198 227 194 q 182 170 197 186 q 167 138 167 153 q 190 108 167 125 q 248 91 212 91 l 408 91 z "},"Ğ":{"ha":977,"x_min":65,"x_max":942,"o":"m 635 1130 q 655 1122 645 1130 q 665 1107 665 1114 q 663 1099 665 1104 q 608 1015 649 1046 q 517 983 566 983 q 426 1015 467 983 q 370 1099 385 1046 q 369 1107 369 1104 q 379 1122 369 1114 q 399 1130 389 1130 q 443 1068 412 1090 q 517 1046 473 1046 q 591 1068 561 1046 q 635 1130 621 1090 m 726 237 q 719 338 726 316 q 682 353 716 347 q 627 359 647 359 q 622 379 623 365 q 627 399 622 393 q 785 392 766 392 q 937 399 798 392 q 942 379 942 393 q 937 359 941 365 q 885 353 918 359 q 849 338 852 347 q 842 237 842 316 l 842 141 q 849 108 842 125 q 856 87 856 92 q 851 76 856 81 q 829 62 846 71 q 761 29 788 41 q 667 4 733 17 q 518 -8 601 -8 q 334 28 420 -8 q 191 124 249 64 q 99 266 132 184 q 65 437 65 347 q 100 617 65 531 q 194 766 134 703 q 340 867 254 829 q 524 905 426 905 q 811 876 680 905 q 842 675 842 689 q 833 664 843 669 q 812 658 823 658 q 796 662 802 658 q 530 860 758 860 q 357 800 434 860 q 239 651 279 741 q 199 465 199 562 q 213 339 199 401 q 255 223 227 278 q 325 127 284 168 q 425 61 366 85 q 552 37 483 37 q 716 80 629 37 q 726 100 726 85 l 726 237 z "},"ğ":{"ha":632,"x_min":31,"x_max":618,"o":"m 246 763 q 262 750 246 763 q 321 736 279 736 q 397 763 364 736 q 439 834 429 790 q 445 838 439 838 q 460 832 451 838 q 469 821 469 825 q 469 815 469 820 q 468 810 468 811 q 417 714 458 754 q 321 674 375 674 q 226 713 267 674 q 175 811 184 753 q 174 816 175 812 q 174 821 174 820 q 183 832 174 825 q 198 838 192 838 q 203 834 203 838 q 246 763 214 790 m 292 555 q 204 507 237 555 q 172 396 172 458 q 208 278 172 330 q 302 227 243 227 q 387 274 355 227 q 418 381 418 321 q 384 503 418 450 q 292 555 351 555 m 346 -5 q 220 -12 232 -5 q 164 -54 190 -29 q 138 -103 138 -79 q 187 -213 138 -171 q 320 -255 235 -255 q 414 -235 366 -255 q 493 -180 462 -214 q 525 -110 525 -146 q 515 -77 525 -94 q 484 -43 505 -60 q 428 -16 464 -26 q 346 -5 391 -5 m 408 91 q 554 48 490 91 q 618 -52 618 5 q 589 -138 618 -93 q 513 -221 560 -184 q 400 -283 466 -258 q 266 -308 334 -307 q 156 -291 208 -309 q 67 -234 104 -273 q 31 -142 31 -195 q 46 -99 31 -121 q 86 -58 62 -77 q 133 -25 111 -39 q 175 -1 154 -12 q 98 45 132 12 q 64 125 64 79 q 118 173 79 143 q 180 217 157 203 q 99 293 130 245 q 68 391 68 341 q 135 534 68 473 q 297 595 201 595 q 329 594 313 595 q 359 587 345 592 q 382 581 376 583 q 405 572 389 579 l 420 566 q 452 556 438 559 l 597 576 q 610 563 610 572 q 600 533 610 554 q 579 507 589 513 l 490 513 q 484 509 484 513 q 508 462 494 499 q 522 385 522 425 q 455 248 522 311 q 293 186 387 186 q 252 190 276 186 q 217 198 227 194 q 182 170 197 186 q 167 138 167 153 q 190 108 167 125 q 248 91 212 91 l 408 91 z "},"Ġ":{"ha":977,"x_min":65,"x_max":942,"o":"m 471 1007 q 461 1017 471 1007 q 452 1055 452 1027 q 471 1103 452 1084 q 519 1123 491 1123 q 568 1103 548 1123 q 587 1055 587 1084 q 568 1007 587 1027 q 519 987 548 987 q 471 1007 491 987 m 726 237 q 719 338 726 316 q 682 353 716 347 q 627 359 647 359 q 622 379 623 365 q 627 399 622 393 q 785 392 766 392 q 937 399 798 392 q 942 379 942 393 q 937 359 941 365 q 885 353 918 359 q 849 338 852 347 q 842 237 842 316 l 842 141 q 849 108 842 125 q 856 87 856 92 q 851 76 856 81 q 829 62 846 71 q 761 29 788 41 q 667 4 733 17 q 518 -8 601 -8 q 334 28 420 -8 q 191 124 249 64 q 99 266 132 184 q 65 437 65 347 q 100 617 65 531 q 194 766 134 703 q 340 867 254 829 q 524 905 426 905 q 811 876 680 905 q 842 675 842 689 q 833 664 843 669 q 812 658 823 658 q 796 662 802 658 q 530 860 758 860 q 357 800 434 860 q 239 651 279 741 q 199 465 199 562 q 213 339 199 401 q 255 223 227 278 q 325 127 284 168 q 425 61 366 85 q 552 37 483 37 q 716 80 629 37 q 726 100 726 85 l 726 237 z "},"ġ":{"ha":632,"x_min":31,"x_max":618,"o":"m 260 756 q 250 766 260 756 q 240 804 240 776 q 260 852 240 833 q 308 872 279 872 q 356 852 336 872 q 376 804 376 833 q 356 756 376 776 q 308 736 336 736 q 260 756 279 736 m 292 555 q 204 507 237 555 q 172 396 172 458 q 208 278 172 330 q 302 227 243 227 q 387 274 355 227 q 418 381 418 321 q 384 503 418 450 q 292 555 351 555 m 346 -5 q 220 -12 232 -5 q 164 -54 190 -29 q 138 -103 138 -79 q 187 -213 138 -171 q 320 -255 235 -255 q 414 -235 366 -255 q 493 -180 462 -214 q 525 -110 525 -146 q 515 -77 525 -94 q 484 -43 505 -60 q 428 -16 464 -26 q 346 -5 391 -5 m 408 91 q 554 48 490 91 q 618 -52 618 5 q 589 -138 618 -93 q 513 -221 560 -184 q 400 -283 466 -258 q 266 -308 334 -307 q 156 -291 208 -309 q 67 -234 104 -273 q 31 -142 31 -195 q 46 -99 31 -121 q 86 -58 62 -77 q 133 -25 111 -39 q 175 -1 154 -12 q 98 45 132 12 q 64 125 64 79 q 118 173 79 143 q 180 217 157 203 q 99 293 130 245 q 68 391 68 341 q 135 534 68 473 q 297 595 201 595 q 329 594 313 595 q 359 587 345 592 q 382 581 376 583 q 405 572 389 579 l 420 566 q 452 556 438 559 l 597 576 q 610 563 610 572 q 600 533 610 554 q 579 507 589 513 l 490 513 q 484 509 484 513 q 508 462 494 499 q 522 385 522 425 q 455 248 522 311 q 293 186 387 186 q 252 190 276 186 q 217 198 227 194 q 182 170 197 186 q 167 138 167 153 q 190 108 167 125 q 248 91 212 91 l 408 91 z "},"Ģ":{"ha":977,"x_min":65,"x_max":942,"o":"m 517 -62 q 560 -75 541 -62 q 574 -130 574 -95 q 534 -237 574 -187 q 439 -311 495 -287 q 425 -301 432 -309 q 418 -290 418 -294 q 464 -253 439 -279 q 488 -201 488 -227 q 481 -184 488 -191 q 465 -172 473 -177 q 448 -154 456 -167 q 441 -122 441 -141 q 459 -84 441 -105 q 517 -62 477 -62 m 726 237 q 719 338 726 316 q 682 353 716 347 q 627 359 647 359 q 622 379 623 365 q 627 399 622 393 q 785 392 766 392 q 937 399 798 392 q 942 379 942 393 q 937 359 941 365 q 885 353 918 359 q 849 338 852 347 q 842 237 842 316 l 842 141 q 849 108 842 125 q 856 87 856 92 q 851 76 856 81 q 829 62 846 71 q 761 29 788 41 q 667 4 733 17 q 518 -8 601 -8 q 334 28 420 -8 q 191 124 249 64 q 99 266 132 184 q 65 437 65 347 q 100 617 65 531 q 194 766 134 703 q 340 867 254 829 q 524 905 426 905 q 811 876 680 905 q 842 675 842 689 q 833 664 843 669 q 812 658 823 658 q 796 662 802 658 q 530 860 758 860 q 357 800 434 860 q 239 651 279 741 q 199 465 199 562 q 213 339 199 401 q 255 223 227 278 q 325 127 284 168 q 425 61 366 85 q 552 37 483 37 q 716 80 629 37 q 726 100 726 85 l 726 237 z "},"ģ":{"ha":632,"x_min":31,"x_max":618,"o":"m 376 730 q 350 677 376 700 q 269 655 324 655 q 248 687 257 665 q 239 727 239 710 q 251 790 239 760 q 282 842 263 821 q 318 876 301 863 q 350 898 335 890 q 361 901 353 901 q 380 898 373 901 q 388 891 388 895 q 372 876 388 889 q 341 844 357 862 q 326 811 326 825 q 333 789 326 799 q 351 772 341 779 q 368 754 360 766 q 376 730 376 743 m 292 555 q 204 507 237 555 q 172 396 172 458 q 208 278 172 330 q 302 227 243 227 q 387 274 355 227 q 418 381 418 321 q 384 503 418 450 q 292 555 351 555 m 346 -5 q 220 -12 232 -5 q 164 -54 190 -29 q 138 -103 138 -79 q 187 -213 138 -171 q 320 -255 235 -255 q 414 -235 366 -255 q 493 -180 462 -214 q 525 -110 525 -146 q 515 -77 525 -94 q 484 -43 505 -60 q 428 -16 464 -26 q 346 -5 391 -5 m 408 91 q 554 48 490 91 q 618 -52 618 5 q 589 -138 618 -93 q 513 -221 560 -184 q 400 -283 466 -258 q 266 -308 334 -307 q 156 -291 208 -309 q 67 -234 104 -273 q 31 -142 31 -195 q 46 -99 31 -121 q 86 -58 62 -77 q 133 -25 111 -39 q 175 -1 154 -12 q 98 45 132 12 q 64 125 64 79 q 118 173 79 143 q 180 217 157 203 q 99 293 130 245 q 68 391 68 341 q 135 534 68 473 q 297 595 201 595 q 329 594 313 595 q 359 587 345 592 q 382 581 376 583 q 405 572 389 579 l 420 566 q 452 556 438 559 l 597 576 q 610 563 610 572 q 600 533 610 554 q 579 507 589 513 l 490 513 q 484 509 484 513 q 508 462 494 499 q 522 385 522 425 q 455 248 522 311 q 293 186 387 186 q 252 190 276 186 q 217 198 227 194 q 182 170 197 186 q 167 138 167 153 q 190 108 167 125 q 248 91 212 91 l 408 91 z "},"Ĥ":{"ha":985,"x_min":57,"x_max":929,"o":"m 498 1166 q 515 1155 505 1166 q 586 1080 544 1123 q 653 1009 627 1037 q 649 994 653 1002 q 640 986 645 986 l 498 1073 q 357 986 392 1008 q 347 994 351 986 q 342 1009 342 1002 q 481 1155 456 1126 q 498 1166 491 1166 m 222 891 q 380 898 241 891 q 385 876 385 892 q 380 854 385 860 q 325 848 360 854 q 287 833 290 842 q 280 732 280 811 l 280 495 l 283 491 q 496 487 482 487 q 703 491 520 487 q 706 496 706 494 l 706 732 q 699 833 706 811 q 661 848 696 842 q 606 854 626 854 q 601 876 602 860 q 606 898 601 892 q 766 891 745 891 q 924 898 785 891 q 929 876 929 892 q 924 854 928 860 q 869 848 904 854 q 831 833 833 842 q 824 732 824 811 l 824 161 q 831 61 824 83 q 869 45 833 52 q 924 39 904 39 q 929 18 928 34 q 924 -4 929 1 q 766 3 785 3 q 606 -4 745 3 q 601 18 601 1 q 606 39 602 34 q 661 45 626 39 q 699 61 696 52 q 706 161 706 83 l 706 430 l 703 435 q 611 438 687 436 q 496 441 536 441 q 281 433 298 441 l 280 430 l 280 161 q 287 61 280 83 q 325 45 290 52 q 380 39 360 39 q 385 18 385 34 q 380 -4 385 1 q 222 3 241 3 q 62 -4 201 3 q 57 18 57 1 q 62 39 58 34 q 117 45 82 39 q 155 61 153 52 q 162 161 162 83 l 162 732 q 155 833 162 811 q 117 848 153 842 q 62 854 82 854 q 57 876 58 860 q 62 898 57 892 q 222 891 201 891 z "},"ĥ":{"ha":700,"x_min":14,"x_max":691,"o":"m 170 1166 q 186 1155 176 1166 q 257 1080 215 1123 q 324 1009 298 1037 q 320 994 324 1002 q 311 986 316 986 l 170 1073 q 28 986 63 1008 q 18 994 22 986 q 14 1009 14 1002 q 153 1155 127 1126 q 170 1166 162 1166 m 419 594 q 494 583 463 594 q 544 550 524 571 q 575 492 564 529 q 590 412 586 456 q 594 307 594 369 l 594 157 q 601 57 594 79 q 635 41 604 47 q 686 35 667 35 q 691 16 690 30 q 686 -4 691 1 q 541 3 547 3 q 495 2 517 3 q 445 -1 473 1 q 397 -4 416 -3 q 393 16 393 1 q 397 35 393 30 q 449 41 417 35 q 483 57 480 47 q 490 157 490 79 l 490 293 q 462 468 490 421 q 357 515 435 515 q 302 499 334 515 q 249 465 271 483 q 228 441 228 448 l 228 157 q 235 57 228 79 q 269 41 237 47 q 320 35 300 35 q 325 16 324 30 q 320 -4 325 1 q 175 3 181 3 q 129 2 151 3 q 79 -1 107 1 q 31 -4 50 -3 q 27 16 26 1 q 31 35 27 30 q 82 41 51 35 q 117 57 114 47 q 123 157 123 79 l 123 757 q 117 827 123 811 q 34 852 106 852 q 33 860 33 852 q 32 878 32 869 q 35 887 33 886 q 228 941 129 897 q 238 934 233 941 q 243 920 243 927 q 228 802 228 876 l 228 495 q 232 492 228 492 q 236 495 233 492 q 319 559 263 525 q 419 594 376 594 z "},"Ħ":{"ha":985,"x_min":57,"x_max":929,"o":"m 222 891 q 380 898 241 891 q 385 876 385 892 q 380 854 385 860 q 325 848 360 854 q 287 833 290 842 q 280 732 280 811 l 280 495 l 283 491 q 496 487 482 487 q 703 491 520 487 q 706 496 706 494 l 706 732 q 699 833 706 811 q 661 848 696 842 q 606 854 626 854 q 601 876 602 860 q 606 898 601 892 q 766 891 745 891 q 924 898 785 891 q 929 876 929 892 q 924 854 928 860 q 869 848 904 854 q 831 833 833 842 q 824 732 824 811 l 824 161 q 831 61 824 83 q 869 45 833 52 q 924 39 904 39 q 929 18 928 34 q 924 -4 929 1 q 766 3 785 3 q 606 -4 745 3 q 601 18 601 1 q 606 39 602 34 q 661 45 626 39 q 699 61 696 52 q 706 161 706 83 l 706 430 l 703 435 q 611 438 687 436 q 496 441 536 441 q 281 433 298 441 l 280 430 l 280 161 q 287 61 280 83 q 325 45 290 52 q 380 39 360 39 q 385 18 385 34 q 380 -4 385 1 q 222 3 241 3 q 62 -4 201 3 q 57 18 57 1 q 62 39 58 34 q 117 45 82 39 q 155 61 153 52 q 162 161 162 83 l 162 732 q 155 833 162 811 q 117 848 153 842 q 62 854 82 854 q 57 876 58 860 q 62 898 57 892 q 222 891 201 891 m 117 637 q 110 655 110 637 q 118 689 110 677 l 867 689 q 873 671 873 689 q 865 637 873 650 l 117 637 z "},"ħ":{"ha":700,"x_min":24,"x_max":689,"o":"m 417 594 q 492 583 461 594 q 542 550 522 571 q 573 492 562 529 q 588 412 584 456 q 592 307 592 369 l 592 157 q 599 57 592 79 q 633 41 602 47 q 684 35 665 35 q 689 16 688 30 q 684 -4 689 1 q 539 3 545 3 q 493 2 515 3 q 443 -1 471 1 q 395 -4 414 -3 q 391 16 391 1 q 395 35 391 30 q 447 41 415 35 q 481 57 478 47 q 488 157 488 79 l 488 293 q 460 468 488 421 q 355 515 433 515 q 300 499 332 515 q 247 465 269 483 q 226 441 226 448 l 226 157 q 233 57 226 79 q 267 41 235 47 q 318 35 298 35 q 322 16 322 30 q 318 -4 323 1 q 173 3 179 3 q 127 2 149 3 q 77 -1 105 1 q 29 -4 48 -3 q 25 16 24 1 q 29 35 25 30 q 80 41 49 35 q 115 57 112 47 q 121 157 121 79 l 121 757 q 115 827 121 811 q 32 852 104 852 q 31 860 31 852 q 30 878 30 869 q 33 887 31 886 q 226 941 127 897 q 236 934 231 941 q 241 920 241 927 q 226 802 226 876 l 226 495 q 230 492 226 492 q 234 495 231 492 q 317 559 261 525 q 417 594 374 594 m 39 760 l 399 760 q 407 749 407 760 q 399 712 407 728 l 38 712 q 31 728 31 712 q 39 760 31 745 z "},"Ĩ":{"ha":439,"x_min":44,"x_max":426,"o":"m 157 1100 q 247 1071 194 1100 q 330 1038 305 1038 q 373 1050 354 1038 q 404 1075 393 1061 q 418 1090 416 1089 q 424 1085 421 1090 q 426 1076 426 1080 q 407 1027 426 1054 q 313 978 367 978 q 223 1007 276 978 q 213 1013 221 1008 q 201 1019 204 1018 q 191 1025 199 1021 q 180 1030 184 1029 q 171 1034 177 1031 q 160 1037 164 1036 q 150 1039 155 1038 q 140 1040 144 1040 q 104 1033 121 1040 q 79 1016 88 1025 q 63 998 71 1007 q 52 988 55 989 q 46 994 49 988 q 44 1003 44 999 q 63 1052 44 1025 q 157 1100 102 1100 m 221 891 q 380 898 241 891 q 384 878 385 892 q 380 859 384 864 q 324 852 359 859 q 286 837 289 846 q 279 736 279 815 l 279 157 q 286 57 279 79 q 324 41 289 47 q 380 35 359 35 q 384 16 384 30 q 380 -4 385 1 q 221 3 241 3 q 61 -4 200 3 q 57 16 56 1 q 61 35 57 30 q 117 41 81 35 q 155 57 152 47 q 161 157 161 79 l 161 736 q 155 837 161 815 q 117 852 152 846 q 61 859 81 859 q 57 878 57 864 q 61 898 56 892 q 221 891 200 891 z "},"ĩ":{"ha":366,"x_min":37,"x_max":383,"o":"m 138 798 q 170 792 153 798 q 194 782 186 786 q 220 766 202 778 q 299 734 272 734 q 337 745 321 734 q 363 771 353 757 q 375 787 373 785 q 383 774 383 787 q 364 723 383 751 q 280 673 327 673 q 249 678 264 673 q 224 687 233 683 q 199 703 216 692 q 119 736 145 736 q 82 725 97 736 q 59 699 67 713 q 48 684 50 685 q 37 699 37 684 q 54 749 37 724 q 138 798 90 798 m 257 441 l 257 157 q 264 57 257 79 q 298 41 267 47 q 349 35 330 35 q 354 16 353 30 q 349 -4 354 1 q 204 3 210 3 q 158 2 180 3 q 108 -1 136 1 q 60 -4 79 -3 q 56 16 56 1 q 60 35 56 30 q 112 41 80 35 q 146 57 143 47 q 153 157 151 74 l 153 410 q 146 480 153 464 q 120 496 142 490 q 84 504 98 503 q 58 505 69 505 q 55 521 55 507 q 58 540 54 534 q 252 597 174 555 q 261 589 256 597 q 267 575 267 581 q 257 486 257 509 l 257 441 z "},"Ī":{"ha":439,"x_min":52,"x_max":410,"o":"m 395 1025 q 61 1025 395 1025 q 56 1053 52 1030 q 69 1082 60 1076 l 403 1082 q 408 1057 410 1078 q 395 1025 405 1036 m 222 891 q 381 898 242 891 q 386 878 386 892 q 381 859 385 864 q 326 852 361 859 q 288 837 290 846 q 281 736 281 815 l 281 157 q 288 57 281 79 q 326 41 290 47 q 381 35 361 35 q 386 16 385 30 q 381 -4 386 1 q 222 3 242 3 q 62 -4 201 3 q 58 16 58 1 q 62 35 58 30 q 118 41 83 35 q 156 57 153 47 q 163 157 163 79 l 163 736 q 156 837 163 815 q 118 852 153 846 q 62 859 83 859 q 58 878 58 864 q 62 898 58 892 q 222 891 201 891 z "},"ī":{"ha":366,"x_min":20,"x_max":354,"o":"m 333 712 q 29 712 333 712 q 24 740 20 717 q 37 769 28 762 l 341 769 q 346 744 349 764 q 333 712 343 723 m 257 441 l 257 157 q 264 57 257 79 q 298 41 267 47 q 349 35 330 35 q 354 16 353 30 q 349 -4 354 1 q 204 3 210 3 q 158 2 180 3 q 108 -1 136 1 q 60 -4 79 -3 q 56 16 56 1 q 60 35 56 30 q 112 41 80 35 q 146 57 143 47 q 153 157 151 74 l 153 410 q 146 480 153 464 q 120 496 142 490 q 84 504 98 503 q 58 505 69 505 q 55 521 55 507 q 58 540 54 534 q 252 597 174 555 q 261 589 256 597 q 267 575 267 581 q 257 486 257 509 l 257 441 z "},"Ĭ":{"ha":439,"x_min":57,"x_max":385,"o":"m 347 1130 q 367 1122 357 1130 q 376 1107 376 1114 q 375 1099 376 1104 q 319 1015 361 1046 q 229 983 278 983 q 138 1015 179 983 q 82 1099 96 1046 q 81 1107 81 1104 q 91 1122 81 1114 q 111 1130 100 1130 q 154 1068 124 1090 q 229 1046 184 1046 q 303 1068 273 1046 q 347 1130 333 1090 m 222 891 q 380 898 241 891 q 385 878 385 892 q 380 859 385 864 q 325 852 360 859 q 287 837 290 846 q 280 736 280 815 l 280 157 q 287 57 280 79 q 325 41 290 47 q 380 35 360 35 q 385 16 385 30 q 380 -4 385 1 q 222 3 241 3 q 62 -4 201 3 q 57 16 57 1 q 62 35 58 30 q 117 41 82 35 q 155 57 153 47 q 162 157 162 79 l 162 736 q 155 837 162 815 q 117 852 153 846 q 62 859 82 859 q 57 878 58 864 q 62 898 57 892 q 222 891 201 891 z "},"ĭ":{"ha":366,"x_min":54,"x_max":357,"o":"m 134 763 q 151 750 134 763 q 210 736 167 736 q 285 763 252 736 q 328 834 317 790 q 333 838 328 838 q 348 832 339 838 q 357 821 357 825 q 357 815 357 820 q 356 810 356 811 q 305 714 347 754 q 210 674 263 674 q 114 713 155 674 q 63 811 73 753 q 62 816 63 812 q 62 821 62 820 q 71 832 62 825 q 86 838 80 838 q 92 834 92 838 q 134 763 102 790 m 256 441 l 256 157 q 263 57 256 79 q 297 41 266 47 q 349 35 329 35 q 353 16 353 30 q 349 -4 353 1 q 203 3 210 3 q 158 2 180 3 q 107 -1 136 1 q 60 -4 79 -3 q 55 16 55 1 q 60 35 56 30 q 111 41 79 35 q 145 57 142 47 q 152 157 151 74 l 152 410 q 145 480 152 464 q 119 496 141 490 q 83 504 98 503 q 57 505 68 505 q 54 521 54 507 q 57 540 54 534 q 251 597 173 555 q 261 589 256 597 q 266 575 266 581 q 256 486 256 509 l 256 441 z "}}}
